<svg width="37" height="34" viewBox="0 0 37 34" fill="none" xmlns="http://www.w3.org/2000/svg">
<path d="M36.3398 17.1088C36.3398 26.2973 28.2809 33.7471 18.3389 33.7471C15.6122 33.7489 12.9208 33.1775 10.4683 32.076C8.01585 30.9745 5.86654 29.3718 4.18309 27.3892C5.88271 25.523 7.97225 24.3428 10.8639 24.564C11.6196 24.6229 12.3888 24.5506 13.1483 24.5756C14.7698 24.6309 16.2368 24.1706 17.6005 23.423C19.8716 22.183 21.4495 20.3373 22.7853 18.2846C23.1714 17.694 23.0903 17.463 22.2767 17.471C19.3089 17.5005 16.341 17.4942 13.3732 17.4844C8.48957 17.4713 5.07134 19.5306 3.11853 23.6621C2.8945 24.1355 2.70774 24.6233 2.5597 25.1215C1.09891 22.667 0.335171 19.9102 0.339865 17.1088C0.339865 7.92034 8.39884 0.468754 18.3399 0.468754C21.3344 0.466808 24.282 1.15629 26.9151 2.47458C29.5482 3.79286 31.7833 5.6982 33.4174 8.01758C27.6207 7.99617 21.825 7.79456 16.0351 8.09252C11.2306 8.33873 7.88153 12.6359 9.03102 17.1677C10.3629 15.3835 12.1688 15.0347 14.1897 15.0463C18.1236 15.0704 22.0567 15.0071 25.9906 15.0133C27.7414 15.0133 29.3203 14.5593 30.7198 13.6199C32.2119 12.6199 33.5988 11.5048 34.6103 10.0516C34.6171 10.0435 34.6238 10.0337 34.6297 10.0257C35.7596 12.2407 36.3437 14.6599 36.3398 17.1088Z" fill="#7535FD"/>
</svg>
