<svg width="64" height="64" viewBox="0 0 64 64" fill="none" xmlns="http://www.w3.org/2000/svg">
<path d="M5.3335 15.9999C5.3335 10.1089 10.1091 5.33325 16.0002 5.33325H21.3335C22.8063 5.33325 24.0002 6.52716 24.0002 7.99992C24.0002 9.47268 22.8063 10.6666 21.3335 10.6666H16.0002C13.0546 10.6666 10.6668 13.0544 10.6668 15.9999V21.3333C10.6668 22.806 9.47292 23.9999 8.00016 23.9999C6.5274 23.9999 5.3335 22.806 5.3335 21.3333V15.9999Z" fill="white"/>
<path d="M58.6668 15.9999C58.6668 10.1089 53.8912 5.33325 48.0002 5.33325H42.6668C41.1941 5.33325 40.0002 6.52716 40.0002 7.99992C40.0002 9.47268 41.1941 10.6666 42.6668 10.6666H48.0002C50.9457 10.6666 53.3335 13.0544 53.3335 15.9999V21.3333C53.3335 22.806 54.5274 23.9999 56.0002 23.9999C57.4729 23.9999 58.6668 22.806 58.6668 21.3333V15.9999Z" fill="white"/>
<path d="M5.3335 47.9999C5.3335 53.891 10.1091 58.6666 16.0002 58.6666H21.3335C22.8063 58.6666 24.0002 57.4727 24.0002 55.9999C24.0002 54.5272 22.8063 53.3332 21.3335 53.3332H16.0002C13.0546 53.3332 10.6668 50.9454 10.6668 47.9999V42.6666C10.6668 41.1938 9.47292 39.9999 8.00016 39.9999C6.5274 39.9999 5.3335 41.1938 5.3335 42.6666V47.9999Z" fill="white"/>
<path d="M58.6668 47.9999C58.6668 53.891 53.8912 58.6666 48.0002 58.6666H42.6668C41.1941 58.6666 40.0002 57.4727 40.0002 55.9999C40.0002 54.5272 41.1941 53.3332 42.6668 53.3332H48.0002C50.9457 53.3332 53.3335 50.9454 53.3335 47.9999V42.6666C53.3335 41.1938 54.5274 39.9999 56.0002 39.9999C57.4729 39.9999 58.6668 41.1938 58.6668 42.6666V47.9999Z" fill="white"/>
<path d="M21.2188 23.3654L30.5187 18.6666V30.9874C30.1186 31.0983 29.7268 31.2548 29.35 31.4571L18.6668 37.1923V27.6832C18.6668 25.8347 19.6611 24.1525 21.2188 23.3654Z" fill="white"/>
<path d="M33.4816 30.9874C33.8817 31.0983 34.2736 31.2548 34.6503 31.4571L45.3335 37.1923V27.6832C45.3335 25.8347 44.3392 24.1525 42.7815 23.3654L33.4816 18.6666V30.9874Z" fill="white"/>
<path d="M30.6751 34.3025L20.5339 39.7467L31.22 45.146C31.464 45.2693 31.7304 45.3332 32.0002 45.3332C32.2699 45.3332 32.5363 45.2693 32.7803 45.146L43.4664 39.7467L33.3252 34.3025C32.4911 33.8547 31.5092 33.8547 30.6751 34.3025Z" fill="white"/>
</svg>
