<svg width="160" height="141" viewBox="0 0 160 141" fill="none" xmlns="http://www.w3.org/2000/svg">
<path fill-rule="evenodd" clip-rule="evenodd" d="M120.228 32.1377C126.975 33.6223 131.813 37.9412 136.581 42.6796C152.215 58.2363 154.88 78.7608 139.512 95.92C115.629 122.521 68.3389 134.634 35.7007 119.931C28.4709 116.685 18.5262 113.226 12.6419 102.295C7.16748 92.1306 9.24777 81.4842 14.1035 72.118C19.0593 62.511 26.9044 54.2185 32.9114 49.0494C59.1656 26.5043 106.948 10.0162 144.457 29.1994C145.231 29.5775 146.115 29.2978 146.474 28.5816C146.833 27.8655 146.561 26.9877 145.845 26.6192C107.234 6.87542 57.9702 23.6413 30.9484 46.8431C23.4718 53.2909 13.2375 64.4302 8.74669 76.9759C5.69704 85.5538 5.28984 94.7759 10.0235 103.65C16.2676 115.289 26.8066 119.128 34.4802 122.581C68.1741 137.764 117.071 125.335 141.699 97.8544C158.238 79.4148 155.472 57.3507 138.658 40.6277C133.538 35.4954 128.206 30.9084 120.882 29.2977C120.075 29.1207 119.275 29.6136 119.143 30.4055C118.952 31.1876 119.478 31.9704 120.228 32.1377Z" fill="white"/>
</svg>
