<svg width="64" height="64" viewBox="0 0 64 64" fill="none" xmlns="http://www.w3.org/2000/svg">
<path d="M21.3335 5.33325C15.4425 5.33325 10.6668 10.1089 10.6668 15.9999V24.389C10.6668 26.4091 9.52548 28.2558 7.71864 29.1593L6.80759 29.6148C5.90417 30.0665 5.3335 30.9899 5.3335 31.9999C5.3335 33.01 5.90417 33.9333 6.80759 34.3851L7.71864 34.8406C9.52548 35.744 10.6668 37.5907 10.6668 39.6109V47.9999C10.6668 53.891 15.4425 58.6666 21.3335 58.6666H25.3335C26.8063 58.6666 28.0002 57.4727 28.0002 55.9999C28.0002 54.5272 26.8063 53.3332 25.3335 53.3332H21.3335C18.388 53.3332 16.0002 50.9454 16.0002 47.9999V39.6109C16.0002 36.7028 14.8176 33.9745 12.8073 31.9999C14.8176 30.0254 16.0002 27.297 16.0002 24.389V15.9999C16.0002 13.0544 18.388 10.6666 21.3335 10.6666H25.3335C26.8063 10.6666 28.0002 9.47268 28.0002 7.99992C28.0002 6.52716 26.8063 5.33325 25.3335 5.33325H21.3335Z" fill="white"/>
<path d="M42.6668 5.33325C48.5579 5.33325 53.3335 10.1089 53.3335 15.9999V24.389C53.3335 26.4091 54.4748 28.2558 56.2817 29.1593L57.1927 29.6148C58.0962 30.0665 58.6668 30.9899 58.6668 31.9999C58.6668 33.01 58.0962 33.9333 57.1927 34.3851L56.2817 34.8406C54.4748 35.744 53.3335 37.5907 53.3335 39.6109V47.9999C53.3335 53.891 48.5579 58.6666 42.6668 58.6666H38.6668C37.1941 58.6666 36.0002 57.4727 36.0002 55.9999C36.0002 54.5272 37.1941 53.3332 38.6668 53.3332H42.6668C45.6123 53.3332 48.0002 50.9454 48.0002 47.9999V39.6109C48.0002 36.7028 49.1827 33.9745 51.193 31.9999C49.1827 30.0254 48.0002 27.297 48.0002 24.389V15.9999C48.0002 13.0544 45.6123 10.6666 42.6668 10.6666H38.6668C37.1941 10.6666 36.0002 9.47268 36.0002 7.99992C36.0002 6.52716 37.1941 5.33325 38.6668 5.33325H42.6668Z" fill="white"/>
</svg>
