<svg width="16" height="16" viewBox="0 0 16 16" fill="none" xmlns="http://www.w3.org/2000/svg">
    <path d="M13.1858 2.81615C11.884 1.51441 9.77347 1.51441 8.47173 2.81615L6.58611 4.70177C6.32576 4.96212 6.32576 5.38423 6.58611 5.64458C6.84646 5.90493 7.26857 5.90493 7.52892 5.64458L9.41454 3.75896C10.1956 2.97791 11.4619 2.97791 12.243 3.75896C13.024 4.54001 13.024 5.80634 12.243 6.58739L10.3573 8.47301C10.097 8.73336 10.097 9.15547 10.3573 9.41582C10.6177 9.67617 11.0398 9.67617 11.3002 9.41582L13.1858 7.5302C14.4875 6.22845 14.4875 4.1179 13.1858 2.81615Z" fill="black"/>
    <path d="M9.41454 7.5302C9.67489 7.26985 9.67489 6.84774 9.41454 6.58739C9.15419 6.32704 8.73208 6.32704 8.47173 6.58739L6.58611 8.47301C6.32576 8.73336 6.32576 9.15547 6.58611 9.41582C6.84646 9.67617 7.26857 9.67617 7.52892 9.41582L9.41454 7.5302Z" fill="black"/>
    <path d="M5.6433 7.5302C5.90365 7.26985 5.90365 6.84774 5.6433 6.58739C5.38295 6.32704 4.96084 6.32704 4.70049 6.58739L2.81487 8.47301C1.51313 9.77476 1.51313 11.8853 2.81487 13.1871C4.11662 14.4888 6.22717 14.4888 7.52892 13.1871L9.41454 11.3014C9.67489 11.0411 9.67489 10.619 9.41454 10.3586C9.15419 10.0983 8.73208 10.0983 8.47173 10.3586L6.58611 12.2442C5.80506 13.0253 4.53873 13.0253 3.75768 12.2442C2.97663 11.4632 2.97663 10.1969 3.75768 9.41582L5.6433 7.5302Z" fill="black"/>
    </svg>
    