<svg width="435" height="279" viewBox="0 0 435 279" fill="none" xmlns="http://www.w3.org/2000/svg">
<g filter="url(#filter0_f_8739_21587)">
<rect x="33" y="33" width="369" height="213" rx="8" fill="black" fill-opacity="0.1"/>
</g>
<rect x="33" y="33" width="368.978" height="213.452" rx="8" fill="white"/>
<rect opacity="0.1" x="33" y="144.09" width="368.978" height="0.793501" fill="#78797A"/>
<path d="M58.0216 168.108H54.5916V176.928H53.3316V168.108H49.9016V166.988H58.0216V168.108ZM60.8906 177.068C60.3399 177.068 59.8406 176.97 59.3926 176.774C58.9446 176.568 58.5573 176.293 58.2306 175.948C57.9039 175.593 57.6519 175.187 57.4746 174.73C57.2973 174.272 57.2086 173.792 57.2086 173.288C57.2086 172.774 57.2973 172.289 57.4746 171.832C57.6519 171.374 57.9039 170.973 58.2306 170.628C58.5573 170.273 58.9446 169.998 59.3926 169.802C59.8499 169.596 60.3539 169.494 60.9046 169.494C61.4459 169.494 61.9406 169.596 62.3886 169.802C62.8366 169.998 63.2239 170.273 63.5506 170.628C63.8866 170.973 64.1433 171.374 64.3206 171.832C64.4979 172.289 64.5866 172.774 64.5866 173.288C64.5866 173.792 64.4979 174.272 64.3206 174.73C64.1433 175.187 63.8913 175.593 63.5646 175.948C63.2379 176.293 62.8459 176.568 62.3886 176.774C61.9406 176.97 61.4413 177.068 60.8906 177.068ZM58.4686 173.302C58.4686 173.806 58.5759 174.263 58.7906 174.674C59.0146 175.084 59.3086 175.411 59.6726 175.654C60.0366 175.887 60.4426 176.004 60.8906 176.004C61.3386 176.004 61.7446 175.882 62.1086 175.64C62.4819 175.397 62.7759 175.07 62.9906 174.66C63.2146 174.24 63.3266 173.778 63.3266 173.274C63.3266 172.77 63.2146 172.312 62.9906 171.902C62.7759 171.491 62.4819 171.164 62.1086 170.922C61.7446 170.679 61.3386 170.558 60.8906 170.558C60.4426 170.558 60.0366 170.684 59.6726 170.936C59.3086 171.178 59.0146 171.505 58.7906 171.916C58.5759 172.326 58.4686 172.788 58.4686 173.302ZM69.7501 176.564C69.6474 176.61 69.5074 176.671 69.3301 176.746C69.1527 176.82 68.9474 176.886 68.7141 176.942C68.4807 176.998 68.2334 177.026 67.9721 177.026C67.6734 177.026 67.3981 176.974 67.1461 176.872C66.8941 176.76 66.6934 176.592 66.5441 176.368C66.3947 176.134 66.3201 175.845 66.3201 175.5V170.586H65.3261V169.62H66.3201V167.184H67.5521V169.62H69.1901V170.586H67.5521V175.122C67.5707 175.383 67.6594 175.579 67.8181 175.71C67.9767 175.831 68.1634 175.892 68.3781 175.892C68.6207 175.892 68.8447 175.85 69.0501 175.766C69.2554 175.682 69.3907 175.621 69.4561 175.584L69.7501 176.564ZM70.3179 174.814C70.3179 174.347 70.4486 173.946 70.7099 173.61C70.9806 173.264 71.3493 172.998 71.8159 172.812C72.2826 172.625 72.8239 172.532 73.4399 172.532C73.7666 172.532 74.1119 172.56 74.4759 172.616C74.8399 172.662 75.1619 172.737 75.4419 172.84V172.308C75.4419 171.748 75.2739 171.309 74.9379 170.992C74.6019 170.665 74.1259 170.502 73.5099 170.502C73.1086 170.502 72.7213 170.576 72.3479 170.726C71.9839 170.866 71.5966 171.071 71.1859 171.342L70.7379 170.474C71.2139 170.147 71.6899 169.904 72.1659 169.746C72.6419 169.578 73.1366 169.494 73.6499 169.494C74.5833 169.494 75.3206 169.755 75.8619 170.278C76.4033 170.791 76.6739 171.51 76.6739 172.434V175.528C76.6739 175.677 76.7019 175.789 76.7579 175.864C76.8233 175.929 76.9259 175.966 77.0659 175.976V176.928C76.9446 176.946 76.8373 176.96 76.7439 176.97C76.6599 176.979 76.5899 176.984 76.5339 176.984C76.2446 176.984 76.0253 176.904 75.8759 176.746C75.7359 176.587 75.6566 176.419 75.6379 176.242L75.6099 175.78C75.2926 176.19 74.8773 176.508 74.3639 176.732C73.8506 176.956 73.3419 177.068 72.8379 177.068C72.3526 177.068 71.9186 176.97 71.5359 176.774C71.1533 176.568 70.8546 176.298 70.6399 175.962C70.4253 175.616 70.3179 175.234 70.3179 174.814ZM75.0779 175.332C75.1899 175.201 75.2786 175.07 75.3439 174.94C75.4093 174.8 75.4419 174.683 75.4419 174.59V173.68C75.1526 173.568 74.8493 173.484 74.5319 173.428C74.2146 173.362 73.9019 173.33 73.5939 173.33C72.9686 173.33 72.4599 173.456 72.0679 173.708C71.6853 173.95 71.4939 174.286 71.4939 174.716C71.4939 174.949 71.5546 175.178 71.6759 175.402C71.8066 175.616 71.9933 175.794 72.2359 175.934C72.4879 176.074 72.7959 176.144 73.1599 176.144C73.5426 176.144 73.9066 176.069 74.2519 175.92C74.5973 175.761 74.8726 175.565 75.0779 175.332ZM78.6719 166.708H79.9039V175.038C79.9039 175.439 79.9599 175.686 80.0719 175.78C80.1839 175.873 80.3192 175.92 80.4779 175.92C80.6739 175.92 80.8606 175.901 81.0379 175.864C81.2152 175.817 81.3646 175.77 81.4859 175.724L81.6819 176.732C81.4766 176.816 81.2339 176.886 80.9539 176.942C80.6739 176.998 80.4266 177.026 80.2119 177.026C79.7359 177.026 79.3579 176.89 79.0779 176.62C78.8072 176.349 78.6719 175.971 78.6719 175.486V166.708ZM85.9629 176.928V166.988H92.5289V168.108H87.2229V171.426H91.6889V172.476H87.2229V176.928H85.9629ZM96.7119 177.068C96.1612 177.068 95.6572 176.97 95.1999 176.774C94.7519 176.568 94.3599 176.293 94.0239 175.948C93.6972 175.593 93.4406 175.187 93.2539 174.73C93.0766 174.272 92.9879 173.787 92.9879 173.274C92.9879 172.583 93.1466 171.953 93.4639 171.384C93.7812 170.814 94.2199 170.357 94.7799 170.012C95.3492 169.666 95.9979 169.494 96.7259 169.494C97.4632 169.494 98.1026 169.671 98.6439 170.026C99.1946 170.371 99.6192 170.828 99.9179 171.398C100.226 171.958 100.38 172.564 100.38 173.218C100.38 173.311 100.375 173.404 100.366 173.498C100.366 173.582 100.361 173.647 100.352 173.694H94.2899C94.3272 174.17 94.4579 174.594 94.6819 174.968C94.9152 175.332 95.2139 175.621 95.5779 175.836C95.9419 176.041 96.3339 176.144 96.7539 176.144C97.2019 176.144 97.6219 176.032 98.0139 175.808C98.4152 175.584 98.6906 175.29 98.8399 174.926L99.9039 175.22C99.7452 175.574 99.5072 175.892 99.1899 176.172C98.8819 176.452 98.5132 176.671 98.0839 176.83C97.6639 176.988 97.2066 177.068 96.7119 177.068ZM94.2479 172.84H99.2319C99.1946 172.364 99.0592 171.944 98.8259 171.58C98.5926 171.216 98.2939 170.931 97.9299 170.726C97.5659 170.52 97.1646 170.418 96.7259 170.418C96.2966 170.418 95.8999 170.52 95.5359 170.726C95.1719 170.931 94.8732 171.216 94.6399 171.58C94.4159 171.944 94.2852 172.364 94.2479 172.84ZM101.175 174.814C101.175 174.347 101.306 173.946 101.567 173.61C101.838 173.264 102.207 172.998 102.673 172.812C103.14 172.625 103.681 172.532 104.297 172.532C104.624 172.532 104.969 172.56 105.333 172.616C105.697 172.662 106.019 172.737 106.299 172.84V172.308C106.299 171.748 106.131 171.309 105.795 170.992C105.459 170.665 104.983 170.502 104.367 170.502C103.966 170.502 103.579 170.576 103.205 170.726C102.841 170.866 102.454 171.071 102.043 171.342L101.595 170.474C102.071 170.147 102.547 169.904 103.023 169.746C103.499 169.578 103.994 169.494 104.507 169.494C105.441 169.494 106.178 169.755 106.719 170.278C107.261 170.791 107.531 171.51 107.531 172.434V175.528C107.531 175.677 107.559 175.789 107.615 175.864C107.681 175.929 107.783 175.966 107.923 175.976V176.928C107.802 176.946 107.695 176.96 107.601 176.97C107.517 176.979 107.447 176.984 107.391 176.984C107.102 176.984 106.883 176.904 106.733 176.746C106.593 176.587 106.514 176.419 106.495 176.242L106.467 175.78C106.15 176.19 105.735 176.508 105.221 176.732C104.708 176.956 104.199 177.068 103.695 177.068C103.21 177.068 102.776 176.97 102.393 176.774C102.011 176.568 101.712 176.298 101.497 175.962C101.283 175.616 101.175 175.234 101.175 174.814ZM105.935 175.332C106.047 175.201 106.136 175.07 106.201 174.94C106.267 174.8 106.299 174.683 106.299 174.59V173.68C106.01 173.568 105.707 173.484 105.389 173.428C105.072 173.362 104.759 173.33 104.451 173.33C103.826 173.33 103.317 173.456 102.925 173.708C102.543 173.95 102.351 174.286 102.351 174.716C102.351 174.949 102.412 175.178 102.533 175.402C102.664 175.616 102.851 175.794 103.093 175.934C103.345 176.074 103.653 176.144 104.017 176.144C104.4 176.144 104.764 176.069 105.109 175.92C105.455 175.761 105.73 175.565 105.935 175.332ZM113.227 176.564C113.124 176.61 112.984 176.671 112.807 176.746C112.629 176.82 112.424 176.886 112.191 176.942C111.957 176.998 111.71 177.026 111.449 177.026C111.15 177.026 110.875 176.974 110.623 176.872C110.371 176.76 110.17 176.592 110.021 176.368C109.871 176.134 109.797 175.845 109.797 175.5V170.586H108.803V169.62H109.797V167.184H111.029V169.62H112.667V170.586H111.029V175.122C111.047 175.383 111.136 175.579 111.295 175.71C111.453 175.831 111.64 175.892 111.855 175.892C112.097 175.892 112.321 175.85 112.527 175.766C112.732 175.682 112.867 175.621 112.933 175.584L113.227 176.564ZM114.299 174.002V169.62H115.531V173.764C115.531 174.51 115.661 175.07 115.923 175.444C116.184 175.817 116.571 176.004 117.085 176.004C117.421 176.004 117.743 175.934 118.051 175.794C118.368 175.644 118.653 175.434 118.905 175.164C119.157 174.893 119.353 174.571 119.493 174.198V169.62H120.725V175.528C120.725 175.677 120.753 175.789 120.809 175.864C120.874 175.929 120.977 175.966 121.117 175.976V176.928C120.977 176.946 120.865 176.956 120.781 176.956C120.706 176.965 120.631 176.97 120.557 176.97C120.323 176.97 120.123 176.9 119.955 176.76C119.787 176.61 119.698 176.428 119.689 176.214L119.661 175.36C119.343 175.901 118.914 176.321 118.373 176.62C117.841 176.918 117.257 177.068 116.623 177.068C115.857 177.068 115.279 176.811 114.887 176.298C114.495 175.775 114.299 175.01 114.299 174.002ZM126.641 170.698C126.025 170.707 125.479 170.866 125.003 171.174C124.536 171.472 124.205 171.888 124.009 172.42V176.928H122.777V169.62H123.925V171.314C124.177 170.81 124.508 170.404 124.919 170.096C125.339 169.778 125.777 169.601 126.235 169.564C126.328 169.564 126.407 169.564 126.473 169.564C126.538 169.564 126.594 169.568 126.641 169.578V170.698ZM130.933 177.068C130.382 177.068 129.878 176.97 129.421 176.774C128.973 176.568 128.581 176.293 128.245 175.948C127.918 175.593 127.661 175.187 127.475 174.73C127.297 174.272 127.209 173.787 127.209 173.274C127.209 172.583 127.367 171.953 127.685 171.384C128.002 170.814 128.441 170.357 129.001 170.012C129.57 169.666 130.219 169.494 130.947 169.494C131.684 169.494 132.323 169.671 132.865 170.026C133.415 170.371 133.84 170.828 134.139 171.398C134.447 171.958 134.601 172.564 134.601 173.218C134.601 173.311 134.596 173.404 134.587 173.498C134.587 173.582 134.582 173.647 134.573 173.694H128.511C128.548 174.17 128.679 174.594 128.903 174.968C129.136 175.332 129.435 175.621 129.799 175.836C130.163 176.041 130.555 176.144 130.975 176.144C131.423 176.144 131.843 176.032 132.235 175.808C132.636 175.584 132.911 175.29 133.061 174.926L134.125 175.22C133.966 175.574 133.728 175.892 133.411 176.172C133.103 176.452 132.734 176.671 132.305 176.83C131.885 176.988 131.427 177.068 130.933 177.068ZM128.469 172.84H133.453C133.415 172.364 133.28 171.944 133.047 171.58C132.813 171.216 132.515 170.931 132.151 170.726C131.787 170.52 131.385 170.418 130.947 170.418C130.517 170.418 130.121 170.52 129.757 170.726C129.393 170.931 129.094 171.216 128.861 171.58C128.637 171.944 128.506 172.364 128.469 172.84ZM138.476 177.068C137.869 177.068 137.3 176.97 136.768 176.774C136.236 176.568 135.779 176.265 135.396 175.864L135.872 174.996C136.292 175.388 136.712 175.668 137.132 175.836C137.552 176.004 137.981 176.088 138.42 176.088C138.924 176.088 139.335 175.994 139.652 175.808C139.969 175.612 140.128 175.327 140.128 174.954C140.128 174.683 140.044 174.482 139.876 174.352C139.717 174.221 139.489 174.114 139.19 174.03C138.891 173.936 138.537 173.834 138.126 173.722C137.622 173.572 137.197 173.414 136.852 173.246C136.507 173.078 136.245 172.868 136.068 172.616C135.891 172.364 135.802 172.046 135.802 171.664C135.802 171.197 135.923 170.805 136.166 170.488C136.409 170.161 136.74 169.914 137.16 169.746C137.589 169.578 138.075 169.494 138.616 169.494C139.157 169.494 139.647 169.578 140.086 169.746C140.525 169.914 140.903 170.161 141.22 170.488L140.66 171.342C140.371 171.043 140.053 170.824 139.708 170.684C139.363 170.534 138.975 170.46 138.546 170.46C138.294 170.46 138.047 170.492 137.804 170.558C137.561 170.614 137.361 170.721 137.202 170.88C137.043 171.029 136.964 171.244 136.964 171.524C136.964 171.757 137.025 171.944 137.146 172.084C137.277 172.214 137.463 172.326 137.706 172.42C137.958 172.513 138.261 172.616 138.616 172.728C139.167 172.886 139.643 173.045 140.044 173.204C140.455 173.362 140.772 173.568 140.996 173.82C141.22 174.072 141.332 174.422 141.332 174.87C141.332 175.56 141.071 176.102 140.548 176.494C140.025 176.876 139.335 177.068 138.476 177.068ZM146.277 174.002V169.62H147.509V173.764C147.509 174.51 147.64 175.07 147.901 175.444C148.162 175.817 148.55 176.004 149.063 176.004C149.399 176.004 149.721 175.934 150.029 175.794C150.346 175.644 150.631 175.434 150.883 175.164C151.135 174.893 151.331 174.571 151.471 174.198V169.62H152.703V175.528C152.703 175.677 152.731 175.789 152.787 175.864C152.852 175.929 152.955 175.966 153.095 175.976V176.928C152.955 176.946 152.843 176.956 152.759 176.956C152.684 176.965 152.61 176.97 152.535 176.97C152.302 176.97 152.101 176.9 151.933 176.76C151.765 176.61 151.676 176.428 151.667 176.214L151.639 175.36C151.322 175.901 150.892 176.321 150.351 176.62C149.819 176.918 149.236 177.068 148.601 177.068C147.836 177.068 147.257 176.811 146.865 176.298C146.473 175.775 146.277 175.01 146.277 174.002ZM157.261 177.068C156.655 177.068 156.085 176.97 155.553 176.774C155.021 176.568 154.564 176.265 154.181 175.864L154.657 174.996C155.077 175.388 155.497 175.668 155.917 175.836C156.337 176.004 156.767 176.088 157.205 176.088C157.709 176.088 158.12 175.994 158.437 175.808C158.755 175.612 158.913 175.327 158.913 174.954C158.913 174.683 158.829 174.482 158.661 174.352C158.503 174.221 158.274 174.114 157.975 174.03C157.677 173.936 157.322 173.834 156.911 173.722C156.407 173.572 155.983 173.414 155.637 173.246C155.292 173.078 155.031 172.868 154.853 172.616C154.676 172.364 154.587 172.046 154.587 171.664C154.587 171.197 154.709 170.805 154.951 170.488C155.194 170.161 155.525 169.914 155.945 169.746C156.375 169.578 156.86 169.494 157.401 169.494C157.943 169.494 158.433 169.578 158.871 169.746C159.31 169.914 159.688 170.161 160.005 170.488L159.445 171.342C159.156 171.043 158.839 170.824 158.493 170.684C158.148 170.534 157.761 170.46 157.331 170.46C157.079 170.46 156.832 170.492 156.589 170.558C156.347 170.614 156.146 170.721 155.987 170.88C155.829 171.029 155.749 171.244 155.749 171.524C155.749 171.757 155.81 171.944 155.931 172.084C156.062 172.214 156.249 172.326 156.491 172.42C156.743 172.513 157.047 172.616 157.401 172.728C157.952 172.886 158.428 173.045 158.829 173.204C159.24 173.362 159.557 173.568 159.781 173.82C160.005 174.072 160.117 174.422 160.117 174.87C160.117 175.56 159.856 176.102 159.333 176.494C158.811 176.876 158.12 177.068 157.261 177.068ZM161.591 176.928V169.62H162.823V176.928H161.591ZM161.591 168.248V166.708H162.823V168.248H161.591ZM171.16 176.928H169.928V172.84C169.928 172.065 169.806 171.5 169.564 171.146C169.33 170.782 168.971 170.6 168.486 170.6C168.15 170.6 167.814 170.684 167.478 170.852C167.151 171.02 166.857 171.248 166.596 171.538C166.344 171.818 166.162 172.144 166.05 172.518V176.928H164.818V169.62H165.938V171.188C166.134 170.842 166.386 170.544 166.694 170.292C167.002 170.04 167.352 169.844 167.744 169.704C168.136 169.564 168.546 169.494 168.976 169.494C169.396 169.494 169.746 169.573 170.026 169.732C170.315 169.881 170.539 170.096 170.698 170.376C170.866 170.646 170.982 170.968 171.048 171.342C171.122 171.715 171.16 172.121 171.16 172.56V176.928ZM175.988 177.012C175.493 177.012 175.036 176.914 174.616 176.718C174.205 176.512 173.85 176.237 173.552 175.892C173.253 175.537 173.02 175.136 172.852 174.688C172.693 174.24 172.614 173.773 172.614 173.288C172.614 172.774 172.693 172.289 172.852 171.832C173.02 171.374 173.253 170.973 173.552 170.628C173.86 170.273 174.219 169.998 174.63 169.802C175.04 169.596 175.498 169.494 176.002 169.494C176.608 169.494 177.136 169.643 177.584 169.942C178.041 170.24 178.424 170.618 178.732 171.076V169.62H179.824V176.844C179.824 177.534 179.656 178.118 179.32 178.594C178.993 179.07 178.545 179.429 177.976 179.672C177.416 179.924 176.79 180.05 176.1 180.05C175.278 180.05 174.606 179.905 174.084 179.616C173.561 179.326 173.127 178.934 172.782 178.44L173.496 177.81C173.785 178.239 174.158 178.561 174.616 178.776C175.082 178.99 175.577 179.098 176.1 179.098C176.548 179.098 176.958 179.014 177.332 178.846C177.714 178.687 178.018 178.44 178.242 178.104C178.475 177.768 178.592 177.348 178.592 176.844V175.556C178.321 176.004 177.948 176.358 177.472 176.62C177.005 176.881 176.51 177.012 175.988 177.012ZM176.366 176.004C176.627 176.004 176.879 175.957 177.122 175.864C177.364 175.77 177.588 175.649 177.794 175.5C177.999 175.341 178.172 175.164 178.312 174.968C178.452 174.772 178.545 174.571 178.592 174.366V172.266C178.461 171.93 178.274 171.636 178.032 171.384C177.789 171.122 177.514 170.922 177.206 170.782C176.898 170.632 176.58 170.558 176.254 170.558C175.88 170.558 175.544 170.637 175.246 170.796C174.956 170.954 174.709 171.169 174.504 171.44C174.298 171.701 174.14 171.995 174.028 172.322C173.916 172.648 173.86 172.98 173.86 173.316C173.86 173.68 173.925 174.025 174.056 174.352C174.186 174.669 174.364 174.954 174.588 175.206C174.812 175.458 175.078 175.654 175.386 175.794C175.694 175.934 176.02 176.004 176.366 176.004ZM188.135 166.988H189.199L193.259 176.928H191.915L190.739 174.016H186.567L185.405 176.928H184.061L188.135 166.988ZM190.459 173.036L188.667 168.444L186.819 173.036H190.459ZM197.405 177.068C196.855 177.068 196.351 176.97 195.893 176.774C195.445 176.568 195.053 176.288 194.717 175.934C194.391 175.579 194.134 175.173 193.947 174.716C193.77 174.258 193.681 173.773 193.681 173.26C193.681 172.569 193.835 171.939 194.143 171.37C194.451 170.8 194.885 170.348 195.445 170.012C196.005 169.666 196.654 169.494 197.391 169.494C198.11 169.494 198.735 169.657 199.267 169.984C199.809 170.301 200.21 170.73 200.471 171.272L199.267 171.65C199.081 171.304 198.819 171.038 198.483 170.852C198.147 170.656 197.774 170.558 197.363 170.558C196.915 170.558 196.505 170.674 196.131 170.908C195.767 171.141 195.478 171.463 195.263 171.874C195.049 172.275 194.941 172.737 194.941 173.26C194.941 173.773 195.049 174.24 195.263 174.66C195.487 175.07 195.781 175.397 196.145 175.64C196.519 175.882 196.929 176.004 197.377 176.004C197.667 176.004 197.942 175.952 198.203 175.85C198.474 175.747 198.707 175.612 198.903 175.444C199.109 175.266 199.249 175.075 199.323 174.87L200.527 175.234C200.378 175.588 200.149 175.906 199.841 176.186C199.543 176.456 199.183 176.671 198.763 176.83C198.353 176.988 197.9 177.068 197.405 177.068ZM205.703 176.564C205.601 176.61 205.461 176.671 205.283 176.746C205.106 176.82 204.901 176.886 204.667 176.942C204.434 176.998 204.187 177.026 203.925 177.026C203.627 177.026 203.351 176.974 203.099 176.872C202.847 176.76 202.647 176.592 202.497 176.368C202.348 176.134 202.273 175.845 202.273 175.5V170.586H201.279V169.62H202.273V167.184H203.505V169.62H205.143V170.586H203.505V175.122C203.524 175.383 203.613 175.579 203.771 175.71C203.93 175.831 204.117 175.892 204.331 175.892C204.574 175.892 204.798 175.85 205.003 175.766C205.209 175.682 205.344 175.621 205.409 175.584L205.703 176.564ZM206.845 176.928V169.62H208.077V176.928H206.845ZM206.845 168.248V166.708H208.077V168.248H206.845ZM213.264 177.068C212.713 177.068 212.214 176.97 211.766 176.774C211.318 176.568 210.93 176.293 210.604 175.948C210.277 175.593 210.025 175.187 209.848 174.73C209.67 174.272 209.582 173.792 209.582 173.288C209.582 172.774 209.67 172.289 209.848 171.832C210.025 171.374 210.277 170.973 210.604 170.628C210.93 170.273 211.318 169.998 211.766 169.802C212.223 169.596 212.727 169.494 213.278 169.494C213.819 169.494 214.314 169.596 214.762 169.802C215.21 169.998 215.597 170.273 215.924 170.628C216.26 170.973 216.516 171.374 216.694 171.832C216.871 172.289 216.96 172.774 216.96 173.288C216.96 173.792 216.871 174.272 216.694 174.73C216.516 175.187 216.264 175.593 215.938 175.948C215.611 176.293 215.219 176.568 214.762 176.774C214.314 176.97 213.814 177.068 213.264 177.068ZM210.842 173.302C210.842 173.806 210.949 174.263 211.164 174.674C211.388 175.084 211.682 175.411 212.046 175.654C212.41 175.887 212.816 176.004 213.264 176.004C213.712 176.004 214.118 175.882 214.482 175.64C214.855 175.397 215.149 175.07 215.364 174.66C215.588 174.24 215.7 173.778 215.7 173.274C215.7 172.77 215.588 172.312 215.364 171.902C215.149 171.491 214.855 171.164 214.482 170.922C214.118 170.679 213.712 170.558 213.264 170.558C212.816 170.558 212.41 170.684 212.046 170.936C211.682 171.178 211.388 171.505 211.164 171.916C210.949 172.326 210.842 172.788 210.842 173.302ZM224.794 176.928H223.562V172.84C223.562 172.065 223.441 171.5 223.198 171.146C222.965 170.782 222.606 170.6 222.12 170.6C221.784 170.6 221.448 170.684 221.112 170.852C220.786 171.02 220.492 171.248 220.23 171.538C219.978 171.818 219.796 172.144 219.684 172.518V176.928H218.452V169.62H219.572V171.188C219.768 170.842 220.02 170.544 220.328 170.292C220.636 170.04 220.986 169.844 221.378 169.704C221.77 169.564 222.181 169.494 222.61 169.494C223.03 169.494 223.38 169.573 223.66 169.732C223.95 169.881 224.174 170.096 224.332 170.376C224.5 170.646 224.617 170.968 224.682 171.342C224.757 171.715 224.794 172.121 224.794 172.56V176.928Z" fill="#232830"/>
<path d="M50.3956 223.611V222.423H53.9836V223.611H50.3956ZM55.1944 226.299C55.1944 225.963 55.2224 225.655 55.2784 225.375C55.3344 225.087 55.4304 224.815 55.5664 224.559C55.7104 224.303 55.9064 224.063 56.1544 223.839C56.4104 223.607 56.7344 223.387 57.1264 223.179C57.4064 223.019 57.6704 222.879 57.9184 222.759C58.1664 222.631 58.3864 222.507 58.5784 222.387C58.7704 222.259 58.9184 222.123 59.0224 221.979C59.1344 221.835 59.1904 221.671 59.1904 221.487C59.1904 221.311 59.1424 221.147 59.0464 220.995C58.9504 220.843 58.8064 220.723 58.6144 220.635C58.4224 220.539 58.1904 220.491 57.9184 220.491C57.7024 220.491 57.5024 220.519 57.3184 220.575C57.1424 220.631 56.9784 220.707 56.8264 220.803C56.6824 220.891 56.5504 220.991 56.4304 221.103C56.3104 221.207 56.2064 221.311 56.1184 221.415L55.2904 220.467C55.3704 220.371 55.4944 220.263 55.6624 220.143C55.8384 220.015 56.0464 219.891 56.2864 219.771C56.5344 219.643 56.8144 219.539 57.1264 219.459C57.4384 219.371 57.7784 219.327 58.1464 219.327C58.6664 219.327 59.1104 219.415 59.4784 219.591C59.8464 219.759 60.1264 219.995 60.3184 220.299C60.5184 220.595 60.6184 220.931 60.6184 221.307C60.6184 221.603 60.5584 221.863 60.4384 222.087C60.3264 222.311 60.1784 222.511 59.9944 222.687C59.8104 222.855 59.6144 223.003 59.4064 223.131C59.2064 223.251 59.0184 223.359 58.8424 223.455C58.5304 223.607 58.2584 223.747 58.0264 223.875C57.8024 224.003 57.6104 224.131 57.4504 224.259C57.2904 224.379 57.1584 224.507 57.0544 224.643C56.9504 224.771 56.8624 224.927 56.7904 225.111H60.7504V226.299H55.1944Z" fill="#DC3444"/>
<path d="M67.9594 226.419C67.4874 226.419 67.0554 226.335 66.6634 226.167C66.2794 225.991 65.9434 225.751 65.6554 225.447C65.3754 225.143 65.1554 224.795 64.9954 224.403C64.8434 224.011 64.7674 223.595 64.7674 223.155C64.7674 222.563 64.8994 222.023 65.1634 221.535C65.4274 221.047 65.7994 220.659 66.2794 220.371C66.7594 220.075 67.3154 219.927 67.9474 219.927C68.5634 219.927 69.0994 220.067 69.5554 220.347C70.0194 220.619 70.3634 220.987 70.5874 221.451L69.5554 221.775C69.3954 221.479 69.1714 221.251 68.8834 221.091C68.5954 220.923 68.2754 220.839 67.9234 220.839C67.5394 220.839 67.1874 220.939 66.8674 221.139C66.5554 221.339 66.3074 221.615 66.1234 221.967C65.9394 222.311 65.8474 222.707 65.8474 223.155C65.8474 223.595 65.9394 223.995 66.1234 224.355C66.3154 224.707 66.5674 224.987 66.8794 225.195C67.1994 225.403 67.5514 225.507 67.9354 225.507C68.1834 225.507 68.4194 225.463 68.6434 225.375C68.8754 225.287 69.0754 225.171 69.2434 225.027C69.4194 224.875 69.5394 224.711 69.6034 224.535L70.6354 224.847C70.5074 225.151 70.3114 225.423 70.0474 225.663C69.7914 225.895 69.4834 226.079 69.1234 226.215C68.7714 226.351 68.3834 226.419 67.9594 226.419ZM74.5094 226.419C74.0374 226.419 73.6094 226.335 73.2254 226.167C72.8414 225.991 72.5094 225.755 72.2294 225.459C71.9494 225.155 71.7334 224.807 71.5814 224.415C71.4294 224.023 71.3534 223.611 71.3534 223.179C71.3534 222.739 71.4294 222.323 71.5814 221.931C71.7334 221.539 71.9494 221.195 72.2294 220.899C72.5094 220.595 72.8414 220.359 73.2254 220.191C73.6174 220.015 74.0494 219.927 74.5214 219.927C74.9854 219.927 75.4094 220.015 75.7934 220.191C76.1774 220.359 76.5094 220.595 76.7894 220.899C77.0774 221.195 77.2974 221.539 77.4494 221.931C77.6014 222.323 77.6774 222.739 77.6774 223.179C77.6774 223.611 77.6014 224.023 77.4494 224.415C77.2974 224.807 77.0814 225.155 76.8014 225.459C76.5214 225.755 76.1854 225.991 75.7934 226.167C75.4094 226.335 74.9814 226.419 74.5094 226.419ZM72.4334 223.191C72.4334 223.623 72.5254 224.015 72.7094 224.367C72.9014 224.719 73.1534 224.999 73.4654 225.207C73.7774 225.407 74.1254 225.507 74.5094 225.507C74.8934 225.507 75.2414 225.403 75.5534 225.195C75.8734 224.987 76.1254 224.707 76.3094 224.355C76.5014 223.995 76.5974 223.599 76.5974 223.167C76.5974 222.735 76.5014 222.343 76.3094 221.991C76.1254 221.639 75.8734 221.359 75.5534 221.151C75.2414 220.943 74.8934 220.839 74.5094 220.839C74.1254 220.839 73.7774 220.947 73.4654 221.163C73.1534 221.371 72.9014 221.651 72.7094 222.003C72.5254 222.355 72.4334 222.751 72.4334 223.191ZM88.401 226.299H87.345V222.795C87.345 222.139 87.237 221.655 87.021 221.343C86.813 221.031 86.501 220.875 86.085 220.875C85.661 220.875 85.277 221.031 84.933 221.343C84.589 221.647 84.345 222.043 84.201 222.531V226.299H83.145V222.795C83.145 222.131 83.041 221.647 82.833 221.343C82.625 221.031 82.313 220.875 81.897 220.875C81.481 220.875 81.097 221.027 80.745 221.331C80.401 221.627 80.157 222.023 80.013 222.519V226.299H78.957V220.035H79.917V221.379C80.173 220.915 80.505 220.559 80.913 220.311C81.321 220.055 81.781 219.927 82.293 219.927C82.813 219.927 83.229 220.071 83.541 220.359C83.853 220.639 84.045 221.003 84.117 221.451C84.397 220.955 84.737 220.579 85.137 220.323C85.537 220.059 85.993 219.927 86.505 219.927C86.865 219.927 87.165 219.995 87.405 220.131C87.653 220.259 87.849 220.443 87.993 220.683C88.137 220.915 88.241 221.191 88.305 221.511C88.369 221.831 88.401 222.179 88.401 222.555V226.299ZM93.4149 226.419C92.9029 226.419 92.4469 226.291 92.0469 226.035C91.6469 225.779 91.3309 225.455 91.0989 225.063V228.855H90.0429V220.035H90.9789V221.211C91.2269 220.827 91.5509 220.519 91.9509 220.287C92.3509 220.047 92.7869 219.927 93.2589 219.927C93.6909 219.927 94.0869 220.015 94.4469 220.191C94.8069 220.367 95.1189 220.607 95.3829 220.911C95.6469 221.215 95.8509 221.563 95.9949 221.955C96.1469 222.339 96.2229 222.743 96.2229 223.167C96.2229 223.759 96.1029 224.303 95.8629 224.799C95.6309 225.295 95.3029 225.691 94.8789 225.987C94.4549 226.275 93.9669 226.419 93.4149 226.419ZM93.0909 225.507C93.4029 225.507 93.6829 225.443 93.9309 225.315C94.1869 225.179 94.4029 225.003 94.5789 224.787C94.7629 224.563 94.9029 224.311 94.9989 224.031C95.0949 223.751 95.1429 223.463 95.1429 223.167C95.1429 222.855 95.0869 222.559 94.9749 222.279C94.8709 221.999 94.7189 221.751 94.5189 221.535C94.3269 221.319 94.0989 221.151 93.8349 221.031C93.5789 220.903 93.2989 220.839 92.9949 220.839C92.8029 220.839 92.6029 220.875 92.3949 220.947C92.1949 221.019 92.0029 221.123 91.8189 221.259C91.6349 221.387 91.4789 221.535 91.3509 221.703C91.2229 221.871 91.1389 222.051 91.0989 222.243V224.031C91.2189 224.303 91.3789 224.551 91.5789 224.775C91.7789 224.999 92.0109 225.179 92.2749 225.315C92.5389 225.443 92.8109 225.507 93.0909 225.507ZM97.0275 224.487C97.0275 224.087 97.1395 223.743 97.3635 223.455C97.5955 223.159 97.9115 222.931 98.3115 222.771C98.7115 222.611 99.1755 222.531 99.7035 222.531C99.9835 222.531 100.279 222.555 100.591 222.603C100.903 222.643 101.179 222.707 101.419 222.795V222.339C101.419 221.859 101.275 221.483 100.987 221.211C100.699 220.931 100.291 220.791 99.7635 220.791C99.4195 220.791 99.0875 220.855 98.7675 220.983C98.4555 221.103 98.1235 221.279 97.7715 221.511L97.3875 220.767C97.7955 220.487 98.2035 220.279 98.6115 220.143C99.0195 219.999 99.4435 219.927 99.8835 219.927C100.683 219.927 101.315 220.151 101.779 220.599C102.243 221.039 102.475 221.655 102.475 222.447V225.099C102.475 225.227 102.499 225.323 102.547 225.387C102.603 225.443 102.691 225.475 102.811 225.483V226.299C102.707 226.315 102.615 226.327 102.535 226.335C102.463 226.343 102.403 226.347 102.355 226.347C102.107 226.347 101.919 226.279 101.791 226.143C101.671 226.007 101.603 225.863 101.587 225.711L101.563 225.315C101.291 225.667 100.935 225.939 100.495 226.131C100.055 226.323 99.6195 226.419 99.1875 226.419C98.7715 226.419 98.3995 226.335 98.0715 226.167C97.7435 225.991 97.4875 225.759 97.3035 225.471C97.1195 225.175 97.0275 224.847 97.0275 224.487ZM101.107 224.931C101.203 224.819 101.279 224.707 101.335 224.595C101.391 224.475 101.419 224.375 101.419 224.295V223.515C101.171 223.419 100.911 223.347 100.639 223.299C100.367 223.243 100.099 223.215 99.8355 223.215C99.2995 223.215 98.8635 223.323 98.5275 223.539C98.1995 223.747 98.0355 224.035 98.0355 224.403C98.0355 224.603 98.0875 224.799 98.1915 224.991C98.3035 225.175 98.4635 225.327 98.6715 225.447C98.8875 225.567 99.1515 225.627 99.4635 225.627C99.7915 225.627 100.103 225.563 100.399 225.435C100.695 225.299 100.931 225.131 101.107 224.931ZM107.476 220.959C106.948 220.967 106.48 221.103 106.072 221.367C105.672 221.623 105.388 221.979 105.22 222.435V226.299H104.164V220.035H105.148V221.487C105.364 221.055 105.648 220.707 106 220.443C106.36 220.171 106.736 220.019 107.128 219.987C107.208 219.987 107.276 219.987 107.332 219.987C107.388 219.987 107.436 219.991 107.476 219.999V220.959ZM111.155 226.419C110.683 226.419 110.251 226.335 109.859 226.167C109.475 225.991 109.139 225.755 108.851 225.459C108.571 225.155 108.351 224.807 108.191 224.415C108.039 224.023 107.963 223.607 107.963 223.167C107.963 222.575 108.099 222.035 108.371 221.547C108.643 221.059 109.019 220.667 109.499 220.371C109.987 220.075 110.543 219.927 111.167 219.927C111.799 219.927 112.347 220.079 112.811 220.383C113.283 220.679 113.647 221.071 113.903 221.559C114.167 222.039 114.299 222.559 114.299 223.119C114.299 223.199 114.295 223.279 114.287 223.359C114.287 223.431 114.283 223.487 114.275 223.527H109.079C109.111 223.935 109.223 224.299 109.415 224.619C109.615 224.931 109.871 225.179 110.183 225.363C110.495 225.539 110.831 225.627 111.191 225.627C111.575 225.627 111.935 225.531 112.271 225.339C112.615 225.147 112.851 224.895 112.979 224.583L113.891 224.835C113.755 225.139 113.551 225.411 113.279 225.651C113.015 225.891 112.699 226.079 112.331 226.215C111.971 226.351 111.579 226.419 111.155 226.419ZM109.043 222.795H113.315C113.283 222.387 113.167 222.027 112.967 221.715C112.767 221.403 112.511 221.159 112.199 220.983C111.887 220.807 111.543 220.719 111.167 220.719C110.799 220.719 110.459 220.807 110.147 220.983C109.835 221.159 109.579 221.403 109.379 221.715C109.187 222.027 109.075 222.387 109.043 222.795ZM115.065 223.179C115.065 222.587 115.185 222.047 115.425 221.559C115.673 221.063 116.009 220.667 116.433 220.371C116.865 220.075 117.357 219.927 117.909 219.927C118.413 219.927 118.865 220.059 119.265 220.323C119.665 220.587 119.977 220.907 120.201 221.283V217.539H121.257V225.099C121.257 225.227 121.281 225.323 121.329 225.387C121.385 225.443 121.473 225.475 121.593 225.483V226.299C121.393 226.331 121.237 226.347 121.125 226.347C120.917 226.347 120.733 226.275 120.573 226.131C120.421 225.987 120.345 225.827 120.345 225.651V225.123C120.097 225.523 119.765 225.839 119.349 226.071C118.933 226.303 118.501 226.419 118.053 226.419C117.621 226.419 117.221 226.335 116.853 226.167C116.493 225.991 116.177 225.751 115.905 225.447C115.641 225.143 115.433 224.799 115.281 224.415C115.137 224.023 115.065 223.611 115.065 223.179ZM120.201 224.103V222.303C120.105 222.031 119.949 221.787 119.733 221.571C119.517 221.347 119.273 221.171 119.001 221.043C118.737 220.907 118.473 220.839 118.209 220.839C117.897 220.839 117.613 220.907 117.357 221.043C117.109 221.171 116.893 221.347 116.709 221.571C116.533 221.787 116.397 222.035 116.301 222.315C116.205 222.595 116.157 222.887 116.157 223.191C116.157 223.503 116.209 223.799 116.313 224.079C116.425 224.359 116.577 224.607 116.769 224.823C116.969 225.039 117.197 225.207 117.453 225.327C117.717 225.447 118.001 225.507 118.305 225.507C118.497 225.507 118.693 225.471 118.893 225.399C119.101 225.327 119.297 225.227 119.481 225.099C119.665 224.971 119.821 224.823 119.949 224.655C120.077 224.479 120.161 224.295 120.201 224.103ZM129.295 225.987C129.207 226.027 129.087 226.079 128.935 226.143C128.783 226.207 128.607 226.263 128.407 226.311C128.207 226.359 127.995 226.383 127.771 226.383C127.515 226.383 127.279 226.339 127.063 226.251C126.847 226.155 126.675 226.011 126.547 225.819C126.419 225.619 126.355 225.371 126.355 225.075V220.863H125.503V220.035H126.355V217.947H127.411V220.035H128.815V220.863H127.411V224.751C127.427 224.975 127.503 225.143 127.639 225.255C127.775 225.359 127.935 225.411 128.119 225.411C128.327 225.411 128.519 225.375 128.695 225.303C128.871 225.231 128.987 225.179 129.043 225.147L129.295 225.987ZM132.927 226.419C132.455 226.419 132.027 226.335 131.643 226.167C131.259 225.991 130.927 225.755 130.647 225.459C130.367 225.155 130.151 224.807 129.999 224.415C129.847 224.023 129.771 223.611 129.771 223.179C129.771 222.739 129.847 222.323 129.999 221.931C130.151 221.539 130.367 221.195 130.647 220.899C130.927 220.595 131.259 220.359 131.643 220.191C132.035 220.015 132.467 219.927 132.939 219.927C133.403 219.927 133.827 220.015 134.211 220.191C134.595 220.359 134.927 220.595 135.207 220.899C135.495 221.195 135.715 221.539 135.867 221.931C136.019 222.323 136.095 222.739 136.095 223.179C136.095 223.611 136.019 224.023 135.867 224.415C135.715 224.807 135.499 225.155 135.219 225.459C134.939 225.755 134.603 225.991 134.211 226.167C133.827 226.335 133.399 226.419 132.927 226.419ZM130.851 223.191C130.851 223.623 130.943 224.015 131.127 224.367C131.319 224.719 131.571 224.999 131.883 225.207C132.195 225.407 132.543 225.507 132.927 225.507C133.311 225.507 133.659 225.403 133.971 225.195C134.291 224.987 134.543 224.707 134.727 224.355C134.919 223.995 135.015 223.599 135.015 223.167C135.015 222.735 134.919 222.343 134.727 221.991C134.543 221.639 134.291 221.359 133.971 221.151C133.659 220.943 133.311 220.839 132.927 220.839C132.543 220.839 132.195 220.947 131.883 221.163C131.571 221.371 131.319 221.651 131.127 222.003C130.943 222.355 130.851 222.751 130.851 223.191ZM140.434 217.539H141.49V224.679C141.49 225.023 141.538 225.235 141.634 225.315C141.73 225.395 141.846 225.435 141.982 225.435C142.15 225.435 142.31 225.419 142.462 225.387C142.614 225.347 142.742 225.307 142.846 225.267L143.014 226.131C142.838 226.203 142.63 226.263 142.39 226.311C142.15 226.359 141.938 226.383 141.754 226.383C141.346 226.383 141.022 226.267 140.782 226.035C140.55 225.803 140.434 225.479 140.434 225.063V217.539ZM143.352 224.487C143.352 224.087 143.464 223.743 143.688 223.455C143.92 223.159 144.236 222.931 144.636 222.771C145.036 222.611 145.5 222.531 146.028 222.531C146.308 222.531 146.604 222.555 146.916 222.603C147.228 222.643 147.504 222.707 147.744 222.795V222.339C147.744 221.859 147.6 221.483 147.312 221.211C147.024 220.931 146.616 220.791 146.088 220.791C145.744 220.791 145.412 220.855 145.092 220.983C144.78 221.103 144.448 221.279 144.096 221.511L143.712 220.767C144.12 220.487 144.528 220.279 144.936 220.143C145.344 219.999 145.768 219.927 146.208 219.927C147.008 219.927 147.64 220.151 148.104 220.599C148.568 221.039 148.8 221.655 148.8 222.447V225.099C148.8 225.227 148.824 225.323 148.872 225.387C148.928 225.443 149.016 225.475 149.136 225.483V226.299C149.032 226.315 148.94 226.327 148.86 226.335C148.788 226.343 148.728 226.347 148.68 226.347C148.432 226.347 148.244 226.279 148.116 226.143C147.996 226.007 147.928 225.863 147.912 225.711L147.888 225.315C147.616 225.667 147.26 225.939 146.82 226.131C146.38 226.323 145.944 226.419 145.512 226.419C145.096 226.419 144.724 226.335 144.396 226.167C144.068 225.991 143.812 225.759 143.628 225.471C143.444 225.175 143.352 224.847 143.352 224.487ZM147.432 224.931C147.528 224.819 147.604 224.707 147.66 224.595C147.716 224.475 147.744 224.375 147.744 224.295V223.515C147.496 223.419 147.236 223.347 146.964 223.299C146.692 223.243 146.424 223.215 146.16 223.215C145.624 223.215 145.188 223.323 144.852 223.539C144.524 223.747 144.36 224.035 144.36 224.403C144.36 224.603 144.412 224.799 144.516 224.991C144.628 225.175 144.788 225.327 144.996 225.447C145.212 225.567 145.476 225.627 145.788 225.627C146.116 225.627 146.428 225.563 146.724 225.435C147.02 225.299 147.256 225.131 147.432 224.931ZM152.636 226.419C152.116 226.419 151.628 226.335 151.172 226.167C150.716 225.991 150.324 225.731 149.996 225.387L150.404 224.643C150.764 224.979 151.124 225.219 151.484 225.363C151.844 225.507 152.212 225.579 152.588 225.579C153.02 225.579 153.372 225.499 153.644 225.339C153.916 225.171 154.052 224.927 154.052 224.607C154.052 224.375 153.98 224.203 153.836 224.091C153.7 223.979 153.504 223.887 153.248 223.815C152.992 223.735 152.688 223.647 152.336 223.551C151.904 223.423 151.54 223.287 151.244 223.143C150.948 222.999 150.724 222.819 150.572 222.603C150.42 222.387 150.344 222.115 150.344 221.787C150.344 221.387 150.448 221.051 150.656 220.779C150.864 220.499 151.148 220.287 151.508 220.143C151.876 219.999 152.292 219.927 152.756 219.927C153.22 219.927 153.64 219.999 154.016 220.143C154.392 220.287 154.716 220.499 154.988 220.779L154.508 221.511C154.26 221.255 153.988 221.067 153.692 220.947C153.396 220.819 153.064 220.755 152.696 220.755C152.48 220.755 152.268 220.783 152.06 220.839C151.852 220.887 151.68 220.979 151.544 221.115C151.408 221.243 151.34 221.427 151.34 221.667C151.34 221.867 151.392 222.027 151.496 222.147C151.608 222.259 151.768 222.355 151.976 222.435C152.192 222.515 152.452 222.603 152.756 222.699C153.228 222.835 153.636 222.971 153.98 223.107C154.332 223.243 154.604 223.419 154.796 223.635C154.988 223.851 155.084 224.151 155.084 224.535C155.084 225.127 154.86 225.591 154.412 225.927C153.964 226.255 153.372 226.419 152.636 226.419ZM159.588 225.987C159.5 226.027 159.38 226.079 159.228 226.143C159.076 226.207 158.9 226.263 158.7 226.311C158.5 226.359 158.288 226.383 158.064 226.383C157.808 226.383 157.572 226.339 157.356 226.251C157.14 226.155 156.968 226.011 156.84 225.819C156.712 225.619 156.648 225.371 156.648 225.075V220.863H155.796V220.035H156.648V217.947H157.704V220.035H159.108V220.863H157.704V224.751C157.72 224.975 157.796 225.143 157.932 225.255C158.068 225.359 158.228 225.411 158.412 225.411C158.62 225.411 158.812 225.375 158.988 225.303C159.164 225.231 159.28 225.179 159.336 225.147L159.588 225.987ZM171.11 220.035H172.13L169.466 226.299H168.542L167.33 223.347L166.13 226.299H165.206L162.542 220.035H163.55L165.71 225.255L166.718 222.687L165.662 220.047H166.586L167.33 222.039L168.074 220.047H168.998L167.954 222.687L168.962 225.255L171.11 220.035ZM175.678 226.419C175.206 226.419 174.774 226.335 174.382 226.167C173.998 225.991 173.662 225.755 173.374 225.459C173.094 225.155 172.874 224.807 172.714 224.415C172.562 224.023 172.486 223.607 172.486 223.167C172.486 222.575 172.622 222.035 172.894 221.547C173.166 221.059 173.542 220.667 174.022 220.371C174.51 220.075 175.066 219.927 175.69 219.927C176.322 219.927 176.87 220.079 177.334 220.383C177.806 220.679 178.17 221.071 178.426 221.559C178.69 222.039 178.822 222.559 178.822 223.119C178.822 223.199 178.818 223.279 178.81 223.359C178.81 223.431 178.806 223.487 178.798 223.527H173.602C173.634 223.935 173.746 224.299 173.938 224.619C174.138 224.931 174.394 225.179 174.706 225.363C175.018 225.539 175.354 225.627 175.714 225.627C176.098 225.627 176.458 225.531 176.794 225.339C177.138 225.147 177.374 224.895 177.502 224.583L178.414 224.835C178.278 225.139 178.074 225.411 177.802 225.651C177.538 225.891 177.222 226.079 176.854 226.215C176.494 226.351 176.102 226.419 175.678 226.419ZM173.566 222.795H177.838C177.806 222.387 177.69 222.027 177.49 221.715C177.29 221.403 177.034 221.159 176.722 220.983C176.41 220.807 176.066 220.719 175.69 220.719C175.322 220.719 174.982 220.807 174.67 220.983C174.358 221.159 174.102 221.403 173.902 221.715C173.71 222.027 173.598 222.387 173.566 222.795ZM182.768 226.419C182.296 226.419 181.864 226.335 181.472 226.167C181.088 225.991 180.752 225.755 180.464 225.459C180.184 225.155 179.964 224.807 179.804 224.415C179.652 224.023 179.576 223.607 179.576 223.167C179.576 222.575 179.712 222.035 179.984 221.547C180.256 221.059 180.632 220.667 181.112 220.371C181.6 220.075 182.156 219.927 182.78 219.927C183.412 219.927 183.96 220.079 184.424 220.383C184.896 220.679 185.26 221.071 185.516 221.559C185.78 222.039 185.912 222.559 185.912 223.119C185.912 223.199 185.908 223.279 185.9 223.359C185.9 223.431 185.896 223.487 185.888 223.527H180.692C180.724 223.935 180.836 224.299 181.028 224.619C181.228 224.931 181.484 225.179 181.796 225.363C182.108 225.539 182.444 225.627 182.804 225.627C183.188 225.627 183.548 225.531 183.884 225.339C184.228 225.147 184.464 224.895 184.592 224.583L185.504 224.835C185.368 225.139 185.164 225.411 184.892 225.651C184.628 225.891 184.312 226.079 183.944 226.215C183.584 226.351 183.192 226.419 182.768 226.419ZM180.656 222.795H184.928C184.896 222.387 184.78 222.027 184.58 221.715C184.38 221.403 184.124 221.159 183.812 220.983C183.5 220.807 183.156 220.719 182.78 220.719C182.412 220.719 182.072 220.807 181.76 220.983C181.448 221.159 181.192 221.403 180.992 221.715C180.8 222.027 180.688 222.387 180.656 222.795ZM191.502 226.299L189.33 223.251L188.142 224.367V226.299H187.086V217.539H188.142V223.263L191.382 220.047H192.522L190.026 222.639L192.642 226.299H191.502Z" fill="#78797A"/>
<path d="M63.1036 199.757C63.1036 200.813 62.8156 201.733 62.2396 202.517C61.6796 203.301 60.9276 203.917 59.9836 204.365C59.0396 204.797 58.0076 205.013 56.8876 205.013C55.7516 205.013 54.7116 204.781 53.7676 204.317C52.8396 203.853 52.0956 203.221 51.5356 202.421C50.9916 201.605 50.7196 200.677 50.7196 199.637C50.7196 198.997 50.8556 198.421 51.1276 197.909C51.3996 197.381 51.7356 196.933 52.1356 196.565C52.5516 196.181 52.9676 195.885 53.3836 195.677C52.9996 195.485 52.6396 195.229 52.3036 194.909C51.9836 194.589 51.7276 194.221 51.5356 193.805C51.3436 193.389 51.2476 192.949 51.2476 192.485C51.2476 191.733 51.4156 191.061 51.7516 190.469C52.0876 189.877 52.5356 189.381 53.0956 188.981C53.6556 188.565 54.2636 188.261 54.9196 188.069C55.5916 187.861 56.2556 187.757 56.9116 187.757C57.5516 187.757 58.2076 187.861 58.8796 188.069C59.5516 188.261 60.1676 188.557 60.7276 188.957C61.2876 189.357 61.7356 189.853 62.0716 190.445C62.4236 191.021 62.5996 191.693 62.5996 192.461C62.5996 192.909 62.4956 193.349 62.2876 193.781C62.0956 194.197 61.8316 194.573 61.4956 194.909C61.1756 195.229 60.8076 195.485 60.3916 195.677C60.8556 195.917 61.2956 196.229 61.7116 196.613C62.1276 196.997 62.4636 197.453 62.7196 197.981C62.9756 198.509 63.1036 199.101 63.1036 199.757ZM59.8396 199.565C59.8396 199.149 59.7596 198.789 59.5996 198.485C59.4396 198.165 59.2156 197.901 58.9276 197.693C58.6396 197.469 58.3196 197.301 57.9676 197.189C57.6156 197.077 57.2556 197.021 56.8876 197.021C56.3756 197.021 55.8956 197.125 55.4476 197.333C55.0156 197.541 54.6636 197.837 54.3916 198.221C54.1196 198.605 53.9836 199.053 53.9836 199.565C53.9836 199.949 54.0636 200.301 54.2236 200.621C54.3996 200.925 54.6236 201.189 54.8956 201.413C55.1836 201.637 55.4956 201.813 55.8316 201.941C56.1836 202.053 56.5436 202.109 56.9116 202.109C57.4236 202.109 57.9036 201.997 58.3516 201.773C58.7996 201.549 59.1596 201.245 59.4316 200.861C59.7036 200.477 59.8396 200.045 59.8396 199.565ZM54.5116 192.581C54.5116 193.013 54.6316 193.381 54.8716 193.685C55.1116 193.989 55.4156 194.221 55.7836 194.381C56.1676 194.525 56.5436 194.597 56.9116 194.597C57.2956 194.597 57.6636 194.517 58.0156 194.357C58.3836 194.197 58.6876 193.973 58.9276 193.685C59.1836 193.381 59.3116 193.005 59.3116 192.557C59.3116 192.157 59.1996 191.813 58.9756 191.525C58.7516 191.237 58.4556 191.013 58.0876 190.853C57.7356 190.693 57.3356 190.613 56.8876 190.613C56.4716 190.613 56.0796 190.693 55.7116 190.853C55.3436 191.013 55.0476 191.245 54.8236 191.549C54.6156 191.837 54.5116 192.181 54.5116 192.581Z" fill="#232830"/>
<path d="M288 187.925L301.437 209.122L315.191 193.967L328.944 192.085L342.54 208.23L356.135 182.973L369.731 216.3" stroke="#DC3444" stroke-width="2" stroke-linejoin="round"/>
<path d="M58.358 65.7464H54.928V74.5664H53.668V65.7464H50.238V64.6264H58.358V65.7464ZM61.227 74.7064C60.6763 74.7064 60.177 74.6084 59.729 74.4124C59.281 74.2071 58.8937 73.9317 58.567 73.5864C58.2403 73.2317 57.9883 72.8257 57.811 72.3684C57.6337 71.9111 57.545 71.4304 57.545 70.9264C57.545 70.4131 57.6337 69.9277 57.811 69.4704C57.9883 69.0131 58.2403 68.6117 58.567 68.2664C58.8937 67.9117 59.281 67.6364 59.729 67.4404C60.1863 67.2351 60.6903 67.1324 61.241 67.1324C61.7823 67.1324 62.277 67.2351 62.725 67.4404C63.173 67.6364 63.5603 67.9117 63.887 68.2664C64.223 68.6117 64.4797 69.0131 64.657 69.4704C64.8343 69.9277 64.923 70.4131 64.923 70.9264C64.923 71.4304 64.8343 71.9111 64.657 72.3684C64.4797 72.8257 64.2277 73.2317 63.901 73.5864C63.5743 73.9317 63.1823 74.2071 62.725 74.4124C62.277 74.6084 61.7777 74.7064 61.227 74.7064ZM58.805 70.9404C58.805 71.4444 58.9123 71.9017 59.127 72.3124C59.351 72.7231 59.645 73.0497 60.009 73.2924C60.373 73.5257 60.779 73.6424 61.227 73.6424C61.675 73.6424 62.081 73.5211 62.445 73.2784C62.8183 73.0357 63.1123 72.7091 63.327 72.2984C63.551 71.8784 63.663 71.4164 63.663 70.9124C63.663 70.4084 63.551 69.9511 63.327 69.5404C63.1123 69.1297 62.8183 68.8031 62.445 68.5604C62.081 68.3177 61.675 68.1964 61.227 68.1964C60.779 68.1964 60.373 68.3224 60.009 68.5744C59.645 68.8171 59.351 69.1437 59.127 69.5544C58.9123 69.9651 58.805 70.4271 58.805 70.9404ZM70.0865 74.2024C69.9838 74.2491 69.8438 74.3097 69.6665 74.3844C69.4892 74.4591 69.2838 74.5244 69.0505 74.5804C68.8172 74.6364 68.5698 74.6644 68.3085 74.6644C68.0098 74.6644 67.7345 74.6131 67.4825 74.5104C67.2305 74.3984 67.0298 74.2304 66.8805 74.0064C66.7312 73.7731 66.6565 73.4837 66.6565 73.1384V68.2244H65.6625V67.2584H66.6565V64.8224H67.8885V67.2584H69.5265V68.2244H67.8885V72.7604C67.9072 73.0217 67.9958 73.2177 68.1545 73.3484C68.3132 73.4697 68.4998 73.5304 68.7145 73.5304C68.9572 73.5304 69.1812 73.4884 69.3865 73.4044C69.5918 73.3204 69.7272 73.2597 69.7925 73.2224L70.0865 74.2024ZM70.6544 72.4524C70.6544 71.9857 70.785 71.5844 71.0464 71.2484C71.317 70.9031 71.6857 70.6371 72.1524 70.4504C72.619 70.2637 73.1604 70.1704 73.7764 70.1704C74.103 70.1704 74.4484 70.1984 74.8124 70.2544C75.1764 70.3011 75.4984 70.3757 75.7784 70.4784V69.9464C75.7784 69.3864 75.6104 68.9477 75.2744 68.6304C74.9384 68.3037 74.4624 68.1404 73.8464 68.1404C73.445 68.1404 73.0577 68.2151 72.6844 68.3644C72.3204 68.5044 71.933 68.7097 71.5224 68.9804L71.0744 68.1124C71.5504 67.7857 72.0264 67.5431 72.5024 67.3844C72.9784 67.2164 73.473 67.1324 73.9864 67.1324C74.9197 67.1324 75.657 67.3937 76.1984 67.9164C76.7397 68.4297 77.0104 69.1484 77.0104 70.0724V73.1664C77.0104 73.3157 77.0384 73.4277 77.0944 73.5024C77.1597 73.5677 77.2624 73.6051 77.4024 73.6144V74.5664C77.281 74.5851 77.1737 74.5991 77.0804 74.6084C76.9964 74.6177 76.9264 74.6224 76.8704 74.6224C76.581 74.6224 76.3617 74.5431 76.2124 74.3844C76.0724 74.2257 75.993 74.0577 75.9744 73.8804L75.9464 73.4184C75.629 73.8291 75.2137 74.1464 74.7004 74.3704C74.187 74.5944 73.6784 74.7064 73.1744 74.7064C72.689 74.7064 72.255 74.6084 71.8724 74.4124C71.4897 74.2071 71.191 73.9364 70.9764 73.6004C70.7617 73.2551 70.6544 72.8724 70.6544 72.4524ZM75.4144 72.9704C75.5264 72.8397 75.615 72.7091 75.6804 72.5784C75.7457 72.4384 75.7784 72.3217 75.7784 72.2284V71.3184C75.489 71.2064 75.1857 71.1224 74.8684 71.0664C74.551 71.0011 74.2384 70.9684 73.9304 70.9684C73.305 70.9684 72.7964 71.0944 72.4044 71.3464C72.0217 71.5891 71.8304 71.9251 71.8304 72.3544C71.8304 72.5877 71.891 72.8164 72.0124 73.0404C72.143 73.2551 72.3297 73.4324 72.5724 73.5724C72.8244 73.7124 73.1324 73.7824 73.4964 73.7824C73.879 73.7824 74.243 73.7077 74.5884 73.5584C74.9337 73.3997 75.209 73.2037 75.4144 72.9704ZM79.0083 64.3464H80.2403V72.6764C80.2403 73.0777 80.2963 73.3251 80.4083 73.4184C80.5203 73.5117 80.6557 73.5584 80.8143 73.5584C81.0103 73.5584 81.197 73.5397 81.3743 73.5024C81.5517 73.4557 81.701 73.4091 81.8223 73.3624L82.0183 74.3704C81.813 74.4544 81.5703 74.5244 81.2903 74.5804C81.0103 74.6364 80.763 74.6644 80.5483 74.6644C80.0723 74.6644 79.6943 74.5291 79.4143 74.2584C79.1437 73.9877 79.0083 73.6097 79.0083 73.1244V64.3464ZM86.2994 74.5664V64.6264H90.4434C90.882 64.6264 91.2834 64.7197 91.6474 64.9064C92.0114 65.0837 92.3287 65.3264 92.5994 65.6344C92.87 65.9331 93.08 66.2737 93.2294 66.6564C93.3787 67.0297 93.4534 67.4124 93.4534 67.8044C93.4534 68.3457 93.332 68.8637 93.0894 69.3584C92.8467 69.8437 92.506 70.2404 92.0674 70.5484C91.6287 70.8471 91.1154 70.9964 90.5274 70.9964H87.5594V74.5664H86.2994ZM87.5594 69.8764H90.4574C90.8027 69.8764 91.1014 69.7831 91.3534 69.5964C91.6147 69.4097 91.8154 69.1577 91.9554 68.8404C92.1047 68.5231 92.1794 68.1777 92.1794 67.8044C92.1794 67.4124 92.0954 67.0624 91.9274 66.7544C91.7594 66.4371 91.54 66.1897 91.2694 66.0124C90.9987 65.8351 90.7 65.7464 90.3734 65.7464H87.5594V69.8764ZM98.69 68.3364C98.074 68.3457 97.528 68.5044 97.052 68.8124C96.5854 69.1111 96.254 69.5264 96.058 70.0584V74.5664H94.826V67.2584H95.974V68.9524C96.226 68.4484 96.5574 68.0424 96.968 67.7344C97.388 67.4171 97.8267 67.2397 98.284 67.2024C98.3774 67.2024 98.4567 67.2024 98.522 67.2024C98.5874 67.2024 98.6434 67.2071 98.69 67.2164V68.3364ZM102.94 74.7064C102.389 74.7064 101.89 74.6084 101.442 74.4124C100.994 74.2071 100.607 73.9317 100.28 73.5864C99.9532 73.2317 99.7012 72.8257 99.5239 72.3684C99.3466 71.9111 99.2579 71.4304 99.2579 70.9264C99.2579 70.4131 99.3466 69.9277 99.5239 69.4704C99.7012 69.0131 99.9532 68.6117 100.28 68.2664C100.607 67.9117 100.994 67.6364 101.442 67.4404C101.899 67.2351 102.403 67.1324 102.954 67.1324C103.495 67.1324 103.99 67.2351 104.438 67.4404C104.886 67.6364 105.273 67.9117 105.6 68.2664C105.936 68.6117 106.193 69.0131 106.37 69.4704C106.547 69.9277 106.636 70.4131 106.636 70.9264C106.636 71.4304 106.547 71.9111 106.37 72.3684C106.193 72.8257 105.941 73.2317 105.614 73.5864C105.287 73.9317 104.895 74.2071 104.438 74.4124C103.99 74.6084 103.491 74.7064 102.94 74.7064ZM100.518 70.9404C100.518 71.4444 100.625 71.9017 100.84 72.3124C101.064 72.7231 101.358 73.0497 101.722 73.2924C102.086 73.5257 102.492 73.6424 102.94 73.6424C103.388 73.6424 103.794 73.5211 104.158 73.2784C104.531 73.0357 104.825 72.7091 105.04 72.2984C105.264 71.8784 105.376 71.4164 105.376 70.9124C105.376 70.4084 105.264 69.9511 105.04 69.5404C104.825 69.1297 104.531 68.8031 104.158 68.5604C103.794 68.3177 103.388 68.1964 102.94 68.1964C102.492 68.1964 102.086 68.3224 101.722 68.5744C101.358 68.8171 101.064 69.1437 100.84 69.5544C100.625 69.9651 100.518 70.4271 100.518 70.9404ZM107.653 70.9264C107.653 70.2357 107.793 69.6057 108.073 69.0364C108.362 68.4577 108.754 67.9957 109.249 67.6504C109.753 67.3051 110.327 67.1324 110.971 67.1324C111.559 67.1324 112.086 67.2864 112.553 67.5944C113.019 67.9024 113.383 68.2757 113.645 68.7144V64.3464H114.877V73.1664C114.877 73.3157 114.905 73.4277 114.961 73.5024C115.026 73.5677 115.129 73.6051 115.269 73.6144V74.5664C115.035 74.6037 114.853 74.6224 114.723 74.6224C114.48 74.6224 114.265 74.5384 114.079 74.3704C113.901 74.2024 113.813 74.0157 113.813 73.8104V73.1944C113.523 73.6611 113.136 74.0297 112.651 74.3004C112.165 74.5711 111.661 74.7064 111.139 74.7064C110.635 74.7064 110.168 74.6084 109.739 74.4124C109.319 74.2071 108.95 73.9271 108.633 73.5724C108.325 73.2177 108.082 72.8164 107.905 72.3684C107.737 71.9111 107.653 71.4304 107.653 70.9264ZM113.645 72.0044V69.9044C113.533 69.5871 113.351 69.3024 113.099 69.0504C112.847 68.7891 112.562 68.5837 112.245 68.4344C111.937 68.2757 111.629 68.1964 111.321 68.1964C110.957 68.1964 110.625 68.2757 110.327 68.4344C110.037 68.5837 109.785 68.7891 109.571 69.0504C109.365 69.3024 109.207 69.5917 109.095 69.9184C108.983 70.2451 108.927 70.5857 108.927 70.9404C108.927 71.3044 108.987 71.6497 109.109 71.9764C109.239 72.3031 109.417 72.5924 109.641 72.8444C109.874 73.0964 110.14 73.2924 110.439 73.4324C110.747 73.5724 111.078 73.6424 111.433 73.6424C111.657 73.6424 111.885 73.6004 112.119 73.5164C112.361 73.4324 112.59 73.3157 112.805 73.1664C113.019 73.0171 113.201 72.8444 113.351 72.6484C113.5 72.4431 113.598 72.2284 113.645 72.0044ZM116.863 71.6404V67.2584H118.095V71.4024C118.095 72.1491 118.226 72.7091 118.487 73.0824C118.749 73.4557 119.136 73.6424 119.649 73.6424C119.985 73.6424 120.307 73.5724 120.615 73.4324C120.933 73.2831 121.217 73.0731 121.469 72.8024C121.721 72.5317 121.917 72.2097 122.057 71.8364V67.2584H123.289V73.1664C123.289 73.3157 123.317 73.4277 123.373 73.5024C123.439 73.5677 123.541 73.6051 123.681 73.6144V74.5664C123.541 74.5851 123.429 74.5944 123.345 74.5944C123.271 74.6037 123.196 74.6084 123.121 74.6084C122.888 74.6084 122.687 74.5384 122.519 74.3984C122.351 74.2491 122.263 74.0671 122.253 73.8524L122.225 72.9984C121.908 73.5397 121.479 73.9597 120.937 74.2584C120.405 74.5571 119.822 74.7064 119.187 74.7064C118.422 74.7064 117.843 74.4497 117.451 73.9364C117.059 73.4137 116.863 72.6484 116.863 71.6404ZM128.576 74.7064C128.025 74.7064 127.521 74.6084 127.064 74.4124C126.616 74.2071 126.224 73.9271 125.888 73.5724C125.561 73.2177 125.304 72.8117 125.118 72.3544C124.94 71.8971 124.852 71.4117 124.852 70.8984C124.852 70.2077 125.006 69.5777 125.314 69.0084C125.622 68.4391 126.056 67.9864 126.616 67.6504C127.176 67.3051 127.824 67.1324 128.562 67.1324C129.28 67.1324 129.906 67.2957 130.438 67.6224C130.979 67.9397 131.38 68.3691 131.642 68.9104L130.438 69.2884C130.251 68.9431 129.99 68.6771 129.654 68.4904C129.318 68.2944 128.944 68.1964 128.534 68.1964C128.086 68.1964 127.675 68.3131 127.302 68.5464C126.938 68.7797 126.648 69.1017 126.434 69.5124C126.219 69.9137 126.112 70.3757 126.112 70.8984C126.112 71.4117 126.219 71.8784 126.434 72.2984C126.658 72.7091 126.952 73.0357 127.316 73.2784C127.689 73.5211 128.1 73.6424 128.548 73.6424C128.837 73.6424 129.112 73.5911 129.374 73.4884C129.644 73.3857 129.878 73.2504 130.074 73.0824C130.279 72.9051 130.419 72.7137 130.494 72.5084L131.698 72.8724C131.548 73.2271 131.32 73.5444 131.012 73.8244C130.713 74.0951 130.354 74.3097 129.934 74.4684C129.523 74.6271 129.07 74.7064 128.576 74.7064ZM136.874 74.2024C136.771 74.2491 136.631 74.3097 136.454 74.3844C136.276 74.4591 136.071 74.5244 135.838 74.5804C135.604 74.6364 135.357 74.6644 135.096 74.6644C134.797 74.6644 134.522 74.6131 134.27 74.5104C134.018 74.3984 133.817 74.2304 133.668 74.0064C133.518 73.7731 133.444 73.4837 133.444 73.1384V68.2244H132.45V67.2584H133.444V64.8224H134.676V67.2584H136.314V68.2244H134.676V72.7604C134.694 73.0217 134.783 73.2177 134.942 73.3484C135.1 73.4697 135.287 73.5304 135.502 73.5304C135.744 73.5304 135.968 73.4884 136.174 73.4044C136.379 73.3204 136.514 73.2597 136.58 73.2224L136.874 74.2024ZM140.521 74.7064C139.915 74.7064 139.345 74.6084 138.813 74.4124C138.281 74.2071 137.824 73.9037 137.441 73.5024L137.917 72.6344C138.337 73.0264 138.757 73.3064 139.177 73.4744C139.597 73.6424 140.027 73.7264 140.465 73.7264C140.969 73.7264 141.38 73.6331 141.697 73.4464C142.015 73.2504 142.173 72.9657 142.173 72.5924C142.173 72.3217 142.089 72.1211 141.921 71.9904C141.763 71.8597 141.534 71.7524 141.235 71.6684C140.937 71.5751 140.582 71.4724 140.171 71.3604C139.667 71.2111 139.243 71.0524 138.897 70.8844C138.552 70.7164 138.291 70.5064 138.113 70.2544C137.936 70.0024 137.847 69.6851 137.847 69.3024C137.847 68.8357 137.969 68.4437 138.211 68.1264C138.454 67.7997 138.785 67.5524 139.205 67.3844C139.635 67.2164 140.12 67.1324 140.661 67.1324C141.203 67.1324 141.693 67.2164 142.131 67.3844C142.57 67.5524 142.948 67.7997 143.265 68.1264L142.705 68.9804C142.416 68.6817 142.099 68.4624 141.753 68.3224C141.408 68.1731 141.021 68.0984 140.591 68.0984C140.339 68.0984 140.092 68.1311 139.849 68.1964C139.607 68.2524 139.406 68.3597 139.247 68.5184C139.089 68.6677 139.009 68.8824 139.009 69.1624C139.009 69.3957 139.07 69.5824 139.191 69.7224C139.322 69.8531 139.509 69.9651 139.751 70.0584C140.003 70.1517 140.307 70.2544 140.661 70.3664C141.212 70.5251 141.688 70.6837 142.089 70.8424C142.5 71.0011 142.817 71.2064 143.041 71.4584C143.265 71.7104 143.377 72.0604 143.377 72.5084C143.377 73.1991 143.116 73.7404 142.593 74.1324C142.071 74.5151 141.38 74.7064 140.521 74.7064ZM147.944 69.5264C147.944 68.9197 148.047 68.3271 148.252 67.7484C148.467 67.1604 148.775 66.6284 149.176 66.1524C149.587 65.6671 150.086 65.2844 150.674 65.0044C151.262 64.7151 151.93 64.5704 152.676 64.5704C153.563 64.5704 154.324 64.7757 154.958 65.1864C155.593 65.5877 156.064 66.1057 156.372 66.7404L155.378 67.3844C155.182 66.9644 154.93 66.6331 154.622 66.3904C154.324 66.1384 153.997 65.9611 153.642 65.8584C153.297 65.7557 152.956 65.7044 152.62 65.7044C152.07 65.7044 151.58 65.8164 151.15 66.0404C150.73 66.2644 150.376 66.5631 150.086 66.9364C149.797 67.3097 149.578 67.7297 149.428 68.1964C149.288 68.6537 149.218 69.1157 149.218 69.5824C149.218 70.0957 149.302 70.5904 149.47 71.0664C149.648 71.5424 149.89 71.9624 150.198 72.3264C150.506 72.6904 150.87 72.9797 151.29 73.1944C151.71 73.4091 152.168 73.5164 152.662 73.5164C153.008 73.5164 153.362 73.4557 153.726 73.3344C154.09 73.2131 154.431 73.0264 154.748 72.7744C155.066 72.5131 155.318 72.1771 155.504 71.7664L156.554 72.3404C156.349 72.8351 156.032 73.2551 155.602 73.6004C155.173 73.9457 154.692 74.2071 154.16 74.3844C153.638 74.5617 153.12 74.6504 152.606 74.6504C151.925 74.6504 151.3 74.5057 150.73 74.2164C150.161 73.9177 149.666 73.5257 149.246 73.0404C148.836 72.5457 148.514 71.9951 148.28 71.3884C148.056 70.7724 147.944 70.1517 147.944 69.5264ZM161.127 74.7064C160.577 74.7064 160.077 74.6084 159.629 74.4124C159.181 74.2071 158.794 73.9317 158.467 73.5864C158.141 73.2317 157.889 72.8257 157.711 72.3684C157.534 71.9111 157.445 71.4304 157.445 70.9264C157.445 70.4131 157.534 69.9277 157.711 69.4704C157.889 69.0131 158.141 68.6117 158.467 68.2664C158.794 67.9117 159.181 67.6364 159.629 67.4404C160.087 67.2351 160.591 67.1324 161.141 67.1324C161.683 67.1324 162.177 67.2351 162.625 67.4404C163.073 67.6364 163.461 67.9117 163.787 68.2664C164.123 68.6117 164.38 69.0131 164.557 69.4704C164.735 69.9277 164.823 70.4131 164.823 70.9264C164.823 71.4304 164.735 71.9111 164.557 72.3684C164.38 72.8257 164.128 73.2317 163.801 73.5864C163.475 73.9317 163.083 74.2071 162.625 74.4124C162.177 74.6084 161.678 74.7064 161.127 74.7064ZM158.705 70.9404C158.705 71.4444 158.813 71.9017 159.027 72.3124C159.251 72.7231 159.545 73.0497 159.909 73.2924C160.273 73.5257 160.679 73.6424 161.127 73.6424C161.575 73.6424 161.981 73.5211 162.345 73.2784C162.719 73.0357 163.013 72.7091 163.227 72.2984C163.451 71.8784 163.563 71.4164 163.563 70.9124C163.563 70.4084 163.451 69.9511 163.227 69.5404C163.013 69.1297 162.719 68.8031 162.345 68.5604C161.981 68.3177 161.575 68.1964 161.127 68.1964C160.679 68.1964 160.273 68.3224 159.909 68.5744C159.545 68.8171 159.251 69.1437 159.027 69.5544C158.813 69.9651 158.705 70.4271 158.705 70.9404ZM172.658 74.5664H171.426V70.4784C171.426 69.7037 171.305 69.1391 171.062 68.7844C170.829 68.4204 170.47 68.2384 169.984 68.2384C169.648 68.2384 169.312 68.3224 168.976 68.4904C168.65 68.6584 168.356 68.8871 168.094 69.1764C167.842 69.4564 167.66 69.7831 167.548 70.1564V74.5664H166.316V67.2584H167.436V68.8264C167.632 68.4811 167.884 68.1824 168.192 67.9304C168.5 67.6784 168.85 67.4824 169.242 67.3424C169.634 67.2024 170.045 67.1324 170.474 67.1324C170.894 67.1324 171.244 67.2117 171.524 67.3704C171.814 67.5197 172.038 67.7344 172.196 68.0144C172.364 68.2851 172.481 68.6071 172.546 68.9804C172.621 69.3537 172.658 69.7597 172.658 70.1984V74.5664ZM180.916 74.5664H179.684V70.4784C179.684 69.7037 179.563 69.1391 179.32 68.7844C179.087 68.4204 178.727 68.2384 178.242 68.2384C177.906 68.2384 177.57 68.3224 177.234 68.4904C176.907 68.6584 176.613 68.8871 176.352 69.1764C176.1 69.4564 175.918 69.7831 175.806 70.1564V74.5664H174.574V67.2584H175.694V68.8264C175.89 68.4811 176.142 68.1824 176.45 67.9304C176.758 67.6784 177.108 67.4824 177.5 67.3424C177.892 67.2024 178.303 67.1324 178.732 67.1324C179.152 67.1324 179.502 67.2117 179.782 67.3704C180.071 67.5197 180.295 67.7344 180.454 68.0144C180.622 68.2851 180.739 68.6071 180.804 68.9804C180.879 69.3537 180.916 69.7597 180.916 70.1984V74.5664ZM186.066 74.7064C185.515 74.7064 185.011 74.6084 184.554 74.4124C184.106 74.2071 183.714 73.9317 183.378 73.5864C183.051 73.2317 182.795 72.8257 182.608 72.3684C182.431 71.9111 182.342 71.4257 182.342 70.9124C182.342 70.2217 182.501 69.5917 182.818 69.0224C183.135 68.4531 183.574 67.9957 184.134 67.6504C184.703 67.3051 185.352 67.1324 186.08 67.1324C186.817 67.1324 187.457 67.3097 187.998 67.6644C188.549 68.0097 188.973 68.4671 189.272 69.0364C189.58 69.5964 189.734 70.2031 189.734 70.8564C189.734 70.9497 189.729 71.0431 189.72 71.1364C189.72 71.2204 189.715 71.2857 189.706 71.3324H183.644C183.681 71.8084 183.812 72.2331 184.036 72.6064C184.269 72.9704 184.568 73.2597 184.932 73.4744C185.296 73.6797 185.688 73.7824 186.108 73.7824C186.556 73.7824 186.976 73.6704 187.368 73.4464C187.769 73.2224 188.045 72.9284 188.194 72.5644L189.258 72.8584C189.099 73.2131 188.861 73.5304 188.544 73.8104C188.236 74.0904 187.867 74.3097 187.438 74.4684C187.018 74.6271 186.561 74.7064 186.066 74.7064ZM183.602 70.4784H188.586C188.549 70.0024 188.413 69.5824 188.18 69.2184C187.947 68.8544 187.648 68.5697 187.284 68.3644C186.92 68.1591 186.519 68.0564 186.08 68.0564C185.651 68.0564 185.254 68.1591 184.89 68.3644C184.526 68.5697 184.227 68.8544 183.994 69.2184C183.77 69.5824 183.639 70.0024 183.602 70.4784ZM194.337 74.7064C193.787 74.7064 193.283 74.6084 192.825 74.4124C192.377 74.2071 191.985 73.9271 191.649 73.5724C191.323 73.2177 191.066 72.8117 190.879 72.3544C190.702 71.8971 190.613 71.4117 190.613 70.8984C190.613 70.2077 190.767 69.5777 191.075 69.0084C191.383 68.4391 191.817 67.9864 192.377 67.6504C192.937 67.3051 193.586 67.1324 194.323 67.1324C195.042 67.1324 195.667 67.2957 196.199 67.6224C196.741 67.9397 197.142 68.3691 197.403 68.9104L196.199 69.2884C196.013 68.9431 195.751 68.6771 195.415 68.4904C195.079 68.2944 194.706 68.1964 194.295 68.1964C193.847 68.1964 193.437 68.3131 193.063 68.5464C192.699 68.7797 192.41 69.1017 192.195 69.5124C191.981 69.9137 191.873 70.3757 191.873 70.8984C191.873 71.4117 191.981 71.8784 192.195 72.2984C192.419 72.7091 192.713 73.0357 193.077 73.2784C193.451 73.5211 193.861 73.6424 194.309 73.6424C194.599 73.6424 194.874 73.5911 195.135 73.4884C195.406 73.3857 195.639 73.2504 195.835 73.0824C196.041 72.9051 196.181 72.7137 196.255 72.5084L197.459 72.8724C197.31 73.2271 197.081 73.5444 196.773 73.8244C196.475 74.0951 196.115 74.3097 195.695 74.4684C195.285 74.6271 194.832 74.7064 194.337 74.7064ZM202.635 74.2024C202.533 74.2491 202.393 74.3097 202.215 74.3844C202.038 74.4591 201.833 74.5244 201.599 74.5804C201.366 74.6364 201.119 74.6644 200.857 74.6644C200.559 74.6644 200.283 74.6131 200.031 74.5104C199.779 74.3984 199.579 74.2304 199.429 74.0064C199.28 73.7731 199.205 73.4837 199.205 73.1384V68.2244H198.211V67.2584H199.205V64.8224H200.437V67.2584H202.075V68.2244H200.437V72.7604C200.456 73.0217 200.545 73.2177 200.703 73.3484C200.862 73.4697 201.049 73.5304 201.263 73.5304C201.506 73.5304 201.73 73.4884 201.935 73.4044C202.141 73.3204 202.276 73.2597 202.341 73.2224L202.635 74.2024ZM206.916 74.7064C206.365 74.7064 205.861 74.6084 205.404 74.4124C204.956 74.2071 204.564 73.9317 204.228 73.5864C203.901 73.2317 203.644 72.8257 203.458 72.3684C203.28 71.9111 203.192 71.4257 203.192 70.9124C203.192 70.2217 203.35 69.5917 203.668 69.0224C203.985 68.4531 204.424 67.9957 204.984 67.6504C205.553 67.3051 206.202 67.1324 206.93 67.1324C207.667 67.1324 208.306 67.3097 208.848 67.6644C209.398 68.0097 209.823 68.4671 210.122 69.0364C210.43 69.5964 210.584 70.2031 210.584 70.8564C210.584 70.9497 210.579 71.0431 210.57 71.1364C210.57 71.2204 210.565 71.2857 210.556 71.3324H204.494C204.531 71.8084 204.662 72.2331 204.886 72.6064C205.119 72.9704 205.418 73.2597 205.782 73.4744C206.146 73.6797 206.538 73.7824 206.958 73.7824C207.406 73.7824 207.826 73.6704 208.218 73.4464C208.619 73.2224 208.894 72.9284 209.044 72.5644L210.108 72.8584C209.949 73.2131 209.711 73.5304 209.394 73.8104C209.086 74.0904 208.717 74.3097 208.288 74.4684C207.868 74.6271 207.41 74.7064 206.916 74.7064ZM204.452 70.4784H209.436C209.398 70.0024 209.263 69.5824 209.03 69.2184C208.796 68.8544 208.498 68.5697 208.134 68.3644C207.77 68.1591 207.368 68.0564 206.93 68.0564C206.5 68.0564 206.104 68.1591 205.74 68.3644C205.376 68.5697 205.077 68.8544 204.844 69.2184C204.62 69.5824 204.489 70.0024 204.452 70.4784ZM211.477 70.9264C211.477 70.2357 211.617 69.6057 211.897 69.0364C212.186 68.4577 212.578 67.9957 213.073 67.6504C213.577 67.3051 214.151 67.1324 214.795 67.1324C215.383 67.1324 215.91 67.2864 216.377 67.5944C216.844 67.9024 217.208 68.2757 217.469 68.7144V64.3464H218.701V73.1664C218.701 73.3157 218.729 73.4277 218.785 73.5024C218.85 73.5677 218.953 73.6051 219.093 73.6144V74.5664C218.86 74.6037 218.678 74.6224 218.547 74.6224C218.304 74.6224 218.09 74.5384 217.903 74.3704C217.726 74.2024 217.637 74.0157 217.637 73.8104V73.1944C217.348 73.6611 216.96 74.0297 216.475 74.3004C215.99 74.5711 215.486 74.7064 214.963 74.7064C214.459 74.7064 213.992 74.6084 213.563 74.4124C213.143 74.2071 212.774 73.9271 212.457 73.5724C212.149 73.2177 211.906 72.8164 211.729 72.3684C211.561 71.9111 211.477 71.4304 211.477 70.9264ZM217.469 72.0044V69.9044C217.357 69.5871 217.175 69.3024 216.923 69.0504C216.671 68.7891 216.386 68.5837 216.069 68.4344C215.761 68.2757 215.453 68.1964 215.145 68.1964C214.781 68.1964 214.45 68.2757 214.151 68.4344C213.862 68.5837 213.61 68.7891 213.395 69.0504C213.19 69.3024 213.031 69.5917 212.919 69.9184C212.807 70.2451 212.751 70.5857 212.751 70.9404C212.751 71.3044 212.812 71.6497 212.933 71.9764C213.064 72.3031 213.241 72.5924 213.465 72.8444C213.698 73.0964 213.964 73.2924 214.263 73.4324C214.571 73.5724 214.902 73.6424 215.257 73.6424C215.481 73.6424 215.71 73.6004 215.943 73.5164C216.186 73.4324 216.414 73.3157 216.629 73.1664C216.844 73.0171 217.026 72.8444 217.175 72.6484C217.324 72.4431 217.422 72.2284 217.469 72.0044Z" fill="#232830"/>
<path d="M54.44 122.149V123.205H53.108V124.657H51.92V123.205H50.588V122.149H51.92V120.697H53.108V122.149H54.44ZM59.3264 124.105C59.6624 124.161 59.9544 124.289 60.2024 124.489C60.4584 124.681 60.6544 124.929 60.7904 125.233C60.9264 125.529 60.9944 125.865 60.9944 126.241C60.9944 126.737 60.8704 127.17 60.6224 127.538C60.3824 127.906 60.0384 128.19 59.5904 128.39C59.1424 128.598 58.6144 128.701 58.0064 128.701C57.3984 128.701 56.8624 128.594 56.3984 128.378C55.9344 128.17 55.5624 127.866 55.2824 127.466L56.0864 126.553C56.2784 126.841 56.5264 127.07 56.8304 127.238C57.1344 127.414 57.5184 127.502 57.9824 127.502C58.5024 127.502 58.9064 127.39 59.1944 127.166C59.4824 126.942 59.6264 126.605 59.6264 126.157C59.6264 125.693 59.4664 125.329 59.1464 125.065C58.8344 124.801 58.3624 124.669 57.7304 124.669H57.4064V123.637H57.7664C58.3024 123.637 58.7144 123.513 59.0024 123.265C59.2904 123.009 59.4344 122.689 59.4344 122.305C59.4344 122.049 59.3744 121.841 59.2544 121.681C59.1424 121.513 58.9824 121.389 58.7744 121.309C58.5664 121.229 58.3264 121.189 58.0544 121.189C57.6464 121.189 57.2864 121.277 56.9744 121.453C56.6624 121.629 56.4144 121.881 56.2304 122.209L55.4024 121.309C55.5624 121.053 55.7824 120.829 56.0624 120.637C56.3424 120.445 56.6624 120.297 57.0224 120.193C57.3904 120.081 57.7784 120.025 58.1864 120.025C58.7144 120.025 59.1784 120.113 59.5784 120.289C59.9784 120.465 60.2864 120.713 60.5024 121.033C60.7264 121.353 60.8384 121.729 60.8384 122.161C60.8384 122.473 60.7784 122.769 60.6584 123.049C60.5384 123.321 60.3624 123.553 60.1304 123.745C59.8984 123.929 59.6304 124.049 59.3264 124.105Z" fill="#00875A"/>
<path d="M68.1435 127.058C67.6715 127.058 67.2395 126.974 66.8475 126.805C66.4635 126.629 66.1275 126.389 65.8395 126.085C65.5595 125.781 65.3395 125.433 65.1795 125.041C65.0275 124.649 64.9515 124.233 64.9515 123.793C64.9515 123.201 65.0835 122.661 65.3475 122.173C65.6115 121.685 65.9835 121.297 66.4635 121.009C66.9435 120.713 67.4995 120.565 68.1315 120.565C68.7475 120.565 69.2835 120.705 69.7395 120.985C70.2035 121.257 70.5475 121.625 70.7715 122.089L69.7395 122.413C69.5795 122.117 69.3555 121.889 69.0675 121.729C68.7795 121.561 68.4595 121.477 68.1075 121.477C67.7235 121.477 67.3715 121.577 67.0515 121.777C66.7395 121.977 66.4915 122.253 66.3075 122.605C66.1235 122.949 66.0315 123.345 66.0315 123.793C66.0315 124.233 66.1235 124.633 66.3075 124.993C66.4995 125.345 66.7515 125.625 67.0635 125.833C67.3835 126.041 67.7355 126.146 68.1195 126.146C68.3675 126.146 68.6035 126.101 68.8275 126.013C69.0595 125.925 69.2595 125.809 69.4275 125.665C69.6035 125.513 69.7235 125.35 69.7875 125.174L70.8195 125.485C70.6915 125.789 70.4955 126.061 70.2315 126.301C69.9755 126.533 69.6675 126.717 69.3075 126.853C68.9555 126.99 68.5675 127.058 68.1435 127.058ZM74.6935 127.058C74.2215 127.058 73.7935 126.974 73.4095 126.805C73.0255 126.629 72.6935 126.394 72.4135 126.097C72.1335 125.793 71.9175 125.445 71.7655 125.053C71.6135 124.661 71.5375 124.249 71.5375 123.817C71.5375 123.377 71.6135 122.961 71.7655 122.569C71.9175 122.177 72.1335 121.833 72.4135 121.537C72.6935 121.233 73.0255 120.997 73.4095 120.829C73.8015 120.653 74.2335 120.565 74.7055 120.565C75.1695 120.565 75.5935 120.653 75.9775 120.829C76.3615 120.997 76.6935 121.233 76.9735 121.537C77.2615 121.833 77.4815 122.177 77.6335 122.569C77.7855 122.961 77.8615 123.377 77.8615 123.817C77.8615 124.249 77.7855 124.661 77.6335 125.053C77.4815 125.445 77.2655 125.793 76.9855 126.097C76.7055 126.394 76.3695 126.629 75.9775 126.805C75.5935 126.974 75.1655 127.058 74.6935 127.058ZM72.6175 123.829C72.6175 124.261 72.7095 124.653 72.8935 125.005C73.0855 125.357 73.3375 125.637 73.6495 125.845C73.9615 126.045 74.3095 126.146 74.6935 126.146C75.0775 126.146 75.4255 126.041 75.7375 125.833C76.0575 125.625 76.3095 125.345 76.4935 124.993C76.6855 124.633 76.7815 124.237 76.7815 123.805C76.7815 123.373 76.6855 122.981 76.4935 122.629C76.3095 122.277 76.0575 121.997 75.7375 121.789C75.4255 121.581 75.0775 121.477 74.6935 121.477C74.3095 121.477 73.9615 121.585 73.6495 121.801C73.3375 122.009 73.0855 122.289 72.8935 122.641C72.7095 122.993 72.6175 123.389 72.6175 123.829ZM88.5851 126.938H87.5291V123.433C87.5291 122.777 87.4211 122.293 87.2051 121.981C86.9971 121.669 86.6851 121.513 86.2691 121.513C85.8451 121.513 85.4611 121.669 85.1171 121.981C84.7731 122.285 84.5291 122.681 84.3851 123.169V126.938H83.3291V123.433C83.3291 122.769 83.2251 122.285 83.0171 121.981C82.8091 121.669 82.4971 121.513 82.0811 121.513C81.6651 121.513 81.2811 121.665 80.9291 121.969C80.5851 122.265 80.3411 122.661 80.1971 123.157V126.938H79.1411V120.673H80.1011V122.017C80.3571 121.553 80.6891 121.197 81.0971 120.949C81.5051 120.693 81.9651 120.565 82.4771 120.565C82.9971 120.565 83.4131 120.709 83.7251 120.997C84.0371 121.277 84.2291 121.641 84.3011 122.089C84.5811 121.593 84.9211 121.217 85.3211 120.961C85.7211 120.697 86.1771 120.565 86.6891 120.565C87.0491 120.565 87.3491 120.633 87.5891 120.77C87.8371 120.897 88.0331 121.081 88.1771 121.321C88.3211 121.553 88.4251 121.829 88.4891 122.149C88.5531 122.469 88.5851 122.817 88.5851 123.193V126.938ZM93.599 127.058C93.087 127.058 92.631 126.929 92.231 126.673C91.831 126.417 91.515 126.093 91.283 125.701V129.494H90.227V120.673H91.163V121.849C91.411 121.465 91.735 121.157 92.135 120.925C92.535 120.685 92.971 120.565 93.443 120.565C93.875 120.565 94.271 120.653 94.631 120.829C94.991 121.005 95.303 121.245 95.567 121.549C95.831 121.853 96.035 122.201 96.179 122.593C96.331 122.977 96.407 123.381 96.407 123.805C96.407 124.397 96.287 124.941 96.047 125.438C95.815 125.933 95.487 126.329 95.063 126.625C94.639 126.914 94.151 127.058 93.599 127.058ZM93.275 126.146C93.587 126.146 93.867 126.081 94.115 125.953C94.371 125.817 94.587 125.641 94.763 125.425C94.947 125.201 95.087 124.949 95.183 124.669C95.279 124.389 95.327 124.101 95.327 123.805C95.327 123.493 95.271 123.197 95.159 122.917C95.055 122.637 94.903 122.389 94.703 122.173C94.511 121.957 94.283 121.789 94.019 121.669C93.763 121.541 93.483 121.477 93.179 121.477C92.987 121.477 92.787 121.513 92.579 121.585C92.379 121.657 92.187 121.761 92.003 121.897C91.819 122.025 91.663 122.173 91.535 122.341C91.407 122.509 91.323 122.689 91.283 122.881V124.669C91.403 124.941 91.563 125.189 91.763 125.413C91.963 125.637 92.195 125.817 92.459 125.953C92.723 126.081 92.995 126.146 93.275 126.146ZM97.2116 125.125C97.2116 124.725 97.3236 124.381 97.5476 124.093C97.7796 123.797 98.0956 123.569 98.4956 123.41C98.8956 123.249 99.3596 123.169 99.8876 123.169C100.168 123.169 100.464 123.193 100.776 123.241C101.088 123.281 101.364 123.345 101.604 123.433V122.977C101.604 122.497 101.46 122.121 101.172 121.849C100.884 121.569 100.476 121.429 99.9476 121.429C99.6036 121.429 99.2716 121.493 98.9516 121.621C98.6396 121.741 98.3076 121.917 97.9556 122.149L97.5716 121.405C97.9796 121.125 98.3876 120.917 98.7956 120.781C99.2036 120.637 99.6276 120.565 100.068 120.565C100.868 120.565 101.5 120.789 101.964 121.237C102.428 121.677 102.66 122.293 102.66 123.085V125.737C102.66 125.865 102.684 125.961 102.732 126.025C102.788 126.081 102.876 126.113 102.996 126.121V126.938C102.892 126.954 102.8 126.966 102.72 126.974C102.648 126.982 102.588 126.986 102.54 126.986C102.292 126.986 102.104 126.918 101.976 126.781C101.856 126.645 101.788 126.501 101.772 126.349L101.748 125.953C101.476 126.305 101.12 126.577 100.68 126.769C100.24 126.962 99.8036 127.058 99.3716 127.058C98.9556 127.058 98.5836 126.974 98.2556 126.805C97.9276 126.629 97.6716 126.397 97.4876 126.109C97.3036 125.813 97.2116 125.485 97.2116 125.125ZM101.292 125.569C101.388 125.457 101.464 125.345 101.52 125.233C101.576 125.113 101.604 125.013 101.604 124.933V124.153C101.356 124.057 101.096 123.985 100.824 123.938C100.552 123.882 100.284 123.854 100.02 123.854C99.4836 123.854 99.0476 123.961 98.7116 124.177C98.3836 124.385 98.2196 124.673 98.2196 125.041C98.2196 125.241 98.2716 125.437 98.3756 125.629C98.4876 125.813 98.6476 125.965 98.8556 126.085C99.0716 126.205 99.3356 126.265 99.6476 126.265C99.9756 126.265 100.288 126.201 100.584 126.073C100.88 125.937 101.116 125.769 101.292 125.569ZM107.66 121.597C107.132 121.605 106.664 121.741 106.256 122.005C105.856 122.261 105.572 122.617 105.404 123.073V126.938H104.348V120.673H105.332V122.125C105.548 121.693 105.832 121.345 106.184 121.081C106.544 120.809 106.92 120.657 107.312 120.625C107.392 120.625 107.46 120.625 107.516 120.625C107.572 120.625 107.62 120.629 107.66 120.637V121.597ZM111.339 127.058C110.867 127.058 110.435 126.974 110.043 126.805C109.659 126.629 109.323 126.394 109.035 126.097C108.755 125.793 108.535 125.445 108.375 125.053C108.223 124.661 108.147 124.245 108.147 123.805C108.147 123.213 108.283 122.673 108.555 122.185C108.827 121.697 109.203 121.305 109.683 121.009C110.171 120.713 110.727 120.565 111.351 120.565C111.983 120.565 112.531 120.717 112.995 121.021C113.467 121.317 113.831 121.709 114.087 122.197C114.351 122.677 114.483 123.197 114.483 123.757C114.483 123.837 114.479 123.917 114.471 123.997C114.471 124.069 114.467 124.125 114.459 124.165H109.263C109.295 124.573 109.407 124.937 109.599 125.257C109.799 125.569 110.055 125.817 110.367 126.001C110.679 126.177 111.015 126.265 111.375 126.265C111.759 126.265 112.119 126.169 112.455 125.977C112.799 125.785 113.035 125.533 113.163 125.221L114.075 125.473C113.939 125.777 113.735 126.049 113.463 126.289C113.199 126.529 112.883 126.717 112.515 126.853C112.155 126.99 111.763 127.058 111.339 127.058ZM109.227 123.433H113.499C113.467 123.025 113.351 122.665 113.151 122.353C112.951 122.041 112.695 121.797 112.383 121.621C112.071 121.445 111.727 121.357 111.351 121.357C110.983 121.357 110.643 121.445 110.331 121.621C110.019 121.797 109.763 122.041 109.563 122.353C109.371 122.665 109.259 123.025 109.227 123.433ZM115.249 123.817C115.249 123.225 115.369 122.685 115.609 122.197C115.857 121.701 116.193 121.305 116.617 121.009C117.049 120.713 117.541 120.565 118.093 120.565C118.597 120.565 119.049 120.697 119.449 120.961C119.849 121.225 120.161 121.545 120.385 121.921V118.177H121.441V125.737C121.441 125.865 121.465 125.961 121.513 126.025C121.569 126.081 121.657 126.113 121.777 126.121V126.938C121.577 126.97 121.421 126.986 121.309 126.986C121.101 126.986 120.917 126.913 120.757 126.769C120.605 126.625 120.529 126.465 120.529 126.289V125.761C120.281 126.161 119.949 126.477 119.533 126.709C119.117 126.942 118.685 127.058 118.237 127.058C117.805 127.058 117.405 126.974 117.037 126.805C116.677 126.629 116.361 126.389 116.089 126.085C115.825 125.781 115.617 125.437 115.465 125.053C115.321 124.661 115.249 124.249 115.249 123.817ZM120.385 124.741V122.941C120.289 122.669 120.133 122.425 119.917 122.209C119.701 121.985 119.457 121.809 119.185 121.681C118.921 121.545 118.657 121.477 118.393 121.477C118.081 121.477 117.797 121.545 117.541 121.681C117.293 121.809 117.077 121.985 116.893 122.209C116.717 122.425 116.581 122.673 116.485 122.953C116.389 123.233 116.341 123.525 116.341 123.829C116.341 124.141 116.393 124.437 116.497 124.717C116.609 124.997 116.761 125.245 116.953 125.461C117.153 125.677 117.381 125.845 117.637 125.965C117.901 126.086 118.185 126.146 118.489 126.146C118.681 126.146 118.877 126.109 119.077 126.037C119.285 125.965 119.481 125.865 119.665 125.737C119.849 125.609 120.005 125.461 120.133 125.293C120.261 125.117 120.345 124.933 120.385 124.741ZM129.479 126.625C129.391 126.665 129.271 126.717 129.119 126.781C128.967 126.845 128.791 126.901 128.591 126.95C128.391 126.998 128.179 127.022 127.955 127.022C127.699 127.022 127.463 126.978 127.247 126.889C127.031 126.793 126.859 126.649 126.731 126.457C126.603 126.257 126.539 126.009 126.539 125.713V121.501H125.687V120.673H126.539V118.585H127.595V120.673H128.999V121.501H127.595V125.389C127.611 125.613 127.687 125.781 127.823 125.893C127.959 125.997 128.119 126.049 128.303 126.049C128.511 126.049 128.703 126.013 128.879 125.941C129.055 125.869 129.171 125.817 129.227 125.785L129.479 126.625ZM133.111 127.058C132.639 127.058 132.211 126.974 131.827 126.805C131.443 126.629 131.111 126.394 130.831 126.097C130.551 125.793 130.335 125.445 130.183 125.053C130.031 124.661 129.955 124.249 129.955 123.817C129.955 123.377 130.031 122.961 130.183 122.569C130.335 122.177 130.551 121.833 130.831 121.537C131.111 121.233 131.443 120.997 131.827 120.829C132.219 120.653 132.651 120.565 133.123 120.565C133.587 120.565 134.011 120.653 134.395 120.829C134.779 120.997 135.111 121.233 135.391 121.537C135.679 121.833 135.899 122.177 136.051 122.569C136.203 122.961 136.279 123.377 136.279 123.817C136.279 124.249 136.203 124.661 136.051 125.053C135.899 125.445 135.683 125.793 135.403 126.097C135.123 126.394 134.787 126.629 134.395 126.805C134.011 126.974 133.583 127.058 133.111 127.058ZM131.035 123.829C131.035 124.261 131.127 124.653 131.311 125.005C131.503 125.357 131.755 125.637 132.067 125.845C132.379 126.045 132.727 126.146 133.111 126.146C133.495 126.146 133.843 126.041 134.155 125.833C134.475 125.625 134.727 125.345 134.911 124.993C135.103 124.633 135.199 124.237 135.199 123.805C135.199 123.373 135.103 122.981 134.911 122.629C134.727 122.277 134.475 121.997 134.155 121.789C133.843 121.581 133.495 121.477 133.111 121.477C132.727 121.477 132.379 121.585 132.067 121.801C131.755 122.009 131.503 122.289 131.311 122.641C131.127 122.993 131.035 123.389 131.035 123.829ZM140.618 118.177H141.674V125.317C141.674 125.661 141.722 125.873 141.818 125.953C141.914 126.033 142.03 126.073 142.166 126.073C142.334 126.073 142.494 126.057 142.646 126.025C142.798 125.985 142.926 125.945 143.03 125.905L143.198 126.769C143.022 126.841 142.814 126.901 142.574 126.95C142.334 126.998 142.122 127.022 141.938 127.022C141.53 127.022 141.206 126.905 140.966 126.673C140.734 126.441 140.618 126.117 140.618 125.701V118.177ZM143.536 125.125C143.536 124.725 143.648 124.381 143.872 124.093C144.104 123.797 144.42 123.569 144.82 123.41C145.22 123.249 145.684 123.169 146.212 123.169C146.492 123.169 146.788 123.193 147.1 123.241C147.412 123.281 147.688 123.345 147.928 123.433V122.977C147.928 122.497 147.784 122.121 147.496 121.849C147.208 121.569 146.8 121.429 146.272 121.429C145.928 121.429 145.596 121.493 145.276 121.621C144.964 121.741 144.632 121.917 144.28 122.149L143.896 121.405C144.304 121.125 144.712 120.917 145.12 120.781C145.528 120.637 145.952 120.565 146.392 120.565C147.192 120.565 147.824 120.789 148.288 121.237C148.752 121.677 148.984 122.293 148.984 123.085V125.737C148.984 125.865 149.008 125.961 149.056 126.025C149.112 126.081 149.2 126.113 149.32 126.121V126.938C149.216 126.954 149.124 126.966 149.044 126.974C148.972 126.982 148.912 126.986 148.864 126.986C148.616 126.986 148.428 126.918 148.3 126.781C148.18 126.645 148.112 126.501 148.096 126.349L148.072 125.953C147.8 126.305 147.444 126.577 147.004 126.769C146.564 126.962 146.128 127.058 145.696 127.058C145.28 127.058 144.908 126.974 144.58 126.805C144.252 126.629 143.996 126.397 143.812 126.109C143.628 125.813 143.536 125.485 143.536 125.125ZM147.616 125.569C147.712 125.457 147.788 125.345 147.844 125.233C147.9 125.113 147.928 125.013 147.928 124.933V124.153C147.68 124.057 147.42 123.985 147.148 123.938C146.876 123.882 146.608 123.854 146.344 123.854C145.808 123.854 145.372 123.961 145.036 124.177C144.708 124.385 144.544 124.673 144.544 125.041C144.544 125.241 144.596 125.437 144.7 125.629C144.812 125.813 144.972 125.965 145.18 126.085C145.396 126.205 145.66 126.265 145.972 126.265C146.3 126.265 146.612 126.201 146.908 126.073C147.204 125.937 147.44 125.769 147.616 125.569ZM152.82 127.058C152.3 127.058 151.812 126.974 151.356 126.805C150.9 126.629 150.508 126.369 150.18 126.025L150.588 125.281C150.948 125.617 151.308 125.857 151.668 126.001C152.028 126.145 152.396 126.217 152.772 126.217C153.204 126.217 153.556 126.137 153.828 125.977C154.1 125.809 154.236 125.565 154.236 125.245C154.236 125.013 154.164 124.841 154.02 124.729C153.884 124.617 153.688 124.525 153.432 124.453C153.176 124.373 152.872 124.285 152.52 124.189C152.088 124.061 151.724 123.925 151.428 123.781C151.132 123.637 150.908 123.457 150.756 123.241C150.604 123.025 150.528 122.753 150.528 122.425C150.528 122.025 150.632 121.689 150.84 121.417C151.048 121.137 151.332 120.925 151.692 120.781C152.06 120.637 152.476 120.565 152.94 120.565C153.404 120.565 153.824 120.637 154.2 120.781C154.576 120.925 154.9 121.137 155.172 121.417L154.692 122.149C154.444 121.893 154.172 121.705 153.876 121.585C153.58 121.457 153.248 121.393 152.88 121.393C152.664 121.393 152.452 121.421 152.244 121.477C152.036 121.525 151.864 121.617 151.728 121.753C151.592 121.881 151.524 122.065 151.524 122.305C151.524 122.505 151.576 122.665 151.68 122.785C151.792 122.897 151.952 122.993 152.16 123.073C152.376 123.153 152.636 123.241 152.94 123.337C153.412 123.473 153.82 123.609 154.164 123.745C154.516 123.881 154.788 124.057 154.98 124.273C155.172 124.489 155.268 124.789 155.268 125.174C155.268 125.765 155.044 126.229 154.596 126.565C154.148 126.894 153.556 127.058 152.82 127.058ZM159.772 126.625C159.684 126.665 159.564 126.717 159.412 126.781C159.26 126.845 159.084 126.901 158.884 126.95C158.684 126.998 158.472 127.022 158.248 127.022C157.992 127.022 157.756 126.978 157.54 126.889C157.324 126.793 157.152 126.649 157.024 126.457C156.896 126.257 156.832 126.009 156.832 125.713V121.501H155.98V120.673H156.832V118.585H157.888V120.673H159.292V121.501H157.888V125.389C157.904 125.613 157.98 125.781 158.116 125.893C158.252 125.997 158.412 126.049 158.596 126.049C158.804 126.049 158.996 126.013 159.172 125.941C159.348 125.869 159.464 125.817 159.52 125.785L159.772 126.625ZM171.294 120.673H172.314L169.65 126.938H168.726L167.514 123.985L166.314 126.938H165.39L162.726 120.673H163.734L165.894 125.893L166.902 123.325L165.846 120.685H166.77L167.514 122.677L168.258 120.685H169.182L168.138 123.325L169.146 125.893L171.294 120.673ZM175.862 127.058C175.39 127.058 174.958 126.974 174.566 126.805C174.182 126.629 173.846 126.394 173.558 126.097C173.278 125.793 173.058 125.445 172.898 125.053C172.746 124.661 172.67 124.245 172.67 123.805C172.67 123.213 172.806 122.673 173.078 122.185C173.35 121.697 173.726 121.305 174.206 121.009C174.694 120.713 175.25 120.565 175.874 120.565C176.506 120.565 177.054 120.717 177.518 121.021C177.99 121.317 178.354 121.709 178.61 122.197C178.874 122.677 179.006 123.197 179.006 123.757C179.006 123.837 179.002 123.917 178.994 123.997C178.994 124.069 178.99 124.125 178.982 124.165H173.786C173.818 124.573 173.93 124.937 174.122 125.257C174.322 125.569 174.578 125.817 174.89 126.001C175.202 126.177 175.538 126.265 175.898 126.265C176.282 126.265 176.642 126.169 176.978 125.977C177.322 125.785 177.558 125.533 177.686 125.221L178.598 125.473C178.462 125.777 178.258 126.049 177.986 126.289C177.722 126.529 177.406 126.717 177.038 126.853C176.678 126.99 176.286 127.058 175.862 127.058ZM173.75 123.433H178.022C177.99 123.025 177.874 122.665 177.674 122.353C177.474 122.041 177.218 121.797 176.906 121.621C176.594 121.445 176.25 121.357 175.874 121.357C175.506 121.357 175.166 121.445 174.854 121.621C174.542 121.797 174.286 122.041 174.086 122.353C173.894 122.665 173.782 123.025 173.75 123.433ZM182.952 127.058C182.48 127.058 182.048 126.974 181.656 126.805C181.272 126.629 180.936 126.394 180.648 126.097C180.368 125.793 180.148 125.445 179.988 125.053C179.836 124.661 179.76 124.245 179.76 123.805C179.76 123.213 179.896 122.673 180.168 122.185C180.44 121.697 180.816 121.305 181.296 121.009C181.784 120.713 182.34 120.565 182.964 120.565C183.596 120.565 184.144 120.717 184.608 121.021C185.08 121.317 185.444 121.709 185.7 122.197C185.964 122.677 186.096 123.197 186.096 123.757C186.096 123.837 186.092 123.917 186.084 123.997C186.084 124.069 186.08 124.125 186.072 124.165H180.876C180.908 124.573 181.02 124.937 181.212 125.257C181.412 125.569 181.668 125.817 181.98 126.001C182.292 126.177 182.628 126.265 182.988 126.265C183.372 126.265 183.732 126.169 184.068 125.977C184.412 125.785 184.648 125.533 184.776 125.221L185.688 125.473C185.552 125.777 185.348 126.049 185.076 126.289C184.812 126.529 184.496 126.717 184.128 126.853C183.768 126.99 183.376 127.058 182.952 127.058ZM180.84 123.433H185.112C185.08 123.025 184.964 122.665 184.764 122.353C184.564 122.041 184.308 121.797 183.996 121.621C183.684 121.445 183.34 121.357 182.964 121.357C182.596 121.357 182.256 121.445 181.944 121.621C181.632 121.797 181.376 122.041 181.176 122.353C180.984 122.665 180.872 123.025 180.84 123.433ZM191.686 126.938L189.514 123.889L188.326 125.005V126.938H187.27V118.177H188.326V123.901L191.566 120.685H192.706L190.21 123.277L192.826 126.938H191.686Z" fill="#78797A"/>
<path d="M57.488 105.484V101.908H50.48V99.0515L58.52 88.7315H60.704V99.0275H62.816V101.908H60.704V105.484H57.488ZM53.696 99.0275H57.848V93.6035L53.696 99.0275ZM69.9989 106.012C68.7669 106.012 67.6549 105.748 66.6629 105.22C65.6709 104.692 64.9189 103.972 64.4069 103.06L66.2549 101.14C66.7029 101.764 67.2629 102.26 67.9349 102.628C68.6069 102.996 69.3029 103.18 70.0229 103.18C70.5989 103.18 71.1029 103.06 71.5349 102.82C71.9829 102.58 72.3349 102.244 72.5909 101.812C72.8469 101.38 72.9749 100.884 72.9749 100.324C72.9749 99.7635 72.8549 99.2755 72.6149 98.8595C72.3749 98.4435 72.0469 98.1235 71.6309 97.8995C71.2149 97.6595 70.7429 97.5395 70.2149 97.5395C69.6869 97.5395 69.1909 97.6595 68.7269 97.8995C68.2789 98.1235 67.9189 98.4515 67.6469 98.8835H64.8389L66.8069 88.7315H75.2069V91.6595H69.1349L68.4389 95.4755C68.6469 95.2835 68.9349 95.1235 69.3029 94.9955C69.6709 94.8515 70.1269 94.7795 70.6709 94.7795C71.7429 94.7795 72.7029 95.0115 73.5509 95.4755C74.3989 95.9395 75.0629 96.5875 75.5429 97.4195C76.0229 98.2355 76.2629 99.1795 76.2629 100.252C76.2629 101.388 75.9909 102.388 75.4469 103.252C74.9029 104.132 74.1589 104.812 73.2149 105.292C72.2709 105.772 71.1989 106.012 69.9989 106.012Z" fill="#232830"/>
<path d="M369.943 85.5638L356.506 106.76L342.753 91.6059L328.999 89.7239L315.404 105.869L301.808 80.6113L288.213 113.938" stroke="#00875A" stroke-width="2" stroke-linejoin="round"/>
<defs>
<filter id="filter0_f_8739_21587" x="0.733334" y="0.733334" width="433.533" height="277.533" filterUnits="userSpaceOnUse" color-interpolation-filters="sRGB">
<feFlood flood-opacity="0" result="BackgroundImageFix"/>
<feBlend mode="normal" in="SourceGraphic" in2="BackgroundImageFix" result="shape"/>
<feGaussianBlur stdDeviation="16.1333" result="effect1_foregroundBlur_8739_21587"/>
</filter>
</defs>
</svg>
