<svg width="25" height="20" viewBox="0 0 25 20" fill="none" xmlns="http://www.w3.org/2000/svg">
<path d="M20.8303 2.42863C19.2535 1.70672 17.5889 1.19458 15.8789 0.905273C15.6449 1.32356 15.4332 1.75392 15.2447 2.19456C13.4233 1.9201 11.571 1.9201 9.74963 2.19456C9.56097 1.75397 9.34926 1.32361 9.11537 0.905273C7.40435 1.19702 5.73861 1.71038 4.1602 2.43241C1.02665 7.06856 0.177188 11.5896 0.601917 16.0464C2.437 17.4022 4.49099 18.4334 6.67459 19.095C7.16628 18.4337 7.60135 17.7321 7.97521 16.9978C7.26512 16.7326 6.57977 16.4054 5.92707 16.0199C6.09885 15.8954 6.26685 15.767 6.42919 15.6424C8.32839 16.5356 10.4013 16.9986 12.5 16.9986C14.5987 16.9986 16.6716 16.5356 18.5708 15.6424C18.735 15.7764 18.903 15.9048 19.0729 16.0199C18.4189 16.406 17.7323 16.7338 17.021 16.9997C17.3944 17.7337 17.8295 18.4346 18.3216 19.095C20.5071 18.436 22.5626 17.4054 24.398 16.0483C24.8964 10.8798 23.5467 6.40032 20.8303 2.42863ZM8.5132 13.3055C7.32962 13.3055 6.3518 12.2314 6.3518 10.91C6.3518 9.58861 7.29564 8.50508 8.50942 8.50508C9.7232 8.50508 10.6935 9.58861 10.6727 10.91C10.6519 12.2314 9.71943 13.3055 8.5132 13.3055ZM16.4868 13.3055C15.3013 13.3055 14.3273 12.2314 14.3273 10.91C14.3273 9.58861 15.2711 8.50508 16.4868 8.50508C17.7024 8.50508 18.6652 9.58861 18.6444 10.91C18.6236 12.2314 17.693 13.3055 16.4868 13.3055Z" fill="white"/>
</svg>
