<svg width="20" height="20" viewBox="0 0 20 20" fill="none" xmlns="http://www.w3.org/2000/svg">
    <path fill-rule="evenodd" clip-rule="evenodd" d="M5 6.66732C5 6.20708 5.3731 5.83398 5.83333 5.83398H14.1667C14.6269 5.83398 15 6.20708 15 6.66732C15 7.12755 14.6269 7.50065 14.1667 7.50065H5.83333C5.3731 7.50065 5 7.12755 5 6.66732ZM6.66675 10.0013C6.66675 9.54105 7.03985 9.16797 7.50008 9.16797H12.5001C12.9603 9.16797 13.3334 9.54105 13.3334 10.0013C13.3334 10.4616 12.9603 10.8346 12.5001 10.8346H7.50008C7.03985 10.8346 6.66675 10.4616 6.66675 10.0013ZM8.33325 13.3333C8.33325 12.8731 8.70634 12.5 9.16659 12.5H10.8333C11.2935 12.5 11.6666 12.8731 11.6666 13.3333C11.6666 13.7936 11.2935 14.1667 10.8333 14.1667H9.16659C8.70634 14.1667 8.33325 13.7936 8.33325 13.3333Z" fill="#979797"/>
    </svg>
    