<svg width="64" height="64" viewBox="0 0 64 64" fill="none" xmlns="http://www.w3.org/2000/svg">
<path d="M29.3356 37.3335C29.3356 32.9152 32.9173 29.3335 37.3356 29.3335C41.7539 29.3335 45.3356 32.9152 45.3356 37.3335C45.3356 41.7517 41.7539 45.3335 37.3356 45.3335C32.9173 45.3335 29.3356 41.7517 29.3356 37.3335Z" fill="white"/>
<path fill-rule="evenodd" clip-rule="evenodd" d="M41.3408 17.5618C39.1077 15.4796 35.5636 15.4796 33.3304 17.5618C32.0534 18.7525 30.2777 19.3086 28.5185 19.0688C25.442 18.6494 22.5747 20.6572 22.0379 23.6069C21.7309 25.2937 20.6335 26.7496 19.064 27.5522C16.3193 28.9559 15.2241 32.2046 16.5886 34.8951C17.3689 36.4337 17.3689 38.2332 16.5886 39.7718C15.2241 42.4623 16.3193 45.7111 19.064 47.1147C20.6335 47.9173 21.7309 49.3732 22.0379 51.06C22.5747 54.0097 25.442 56.0176 28.5185 55.5981C30.2777 55.3583 32.0534 55.9144 33.3304 57.1051C35.5636 59.1874 39.1077 59.1874 41.3408 57.1051C42.6178 55.9144 44.3935 55.3583 46.1528 55.5981C49.2292 56.0176 52.0965 54.0097 52.6333 51.06C52.9403 49.3732 54.0377 47.9173 55.6073 47.1147C58.352 45.7111 59.4472 42.4623 58.0826 39.7718C57.3023 38.2332 57.3023 36.4337 58.0826 34.8951C59.4472 32.2046 58.352 28.9559 55.6073 27.5522C54.0377 26.7496 52.9403 25.2937 52.6333 23.6069C52.0965 20.6572 49.2292 18.6494 46.1528 19.0688C44.3935 19.3086 42.6178 18.7525 41.3408 17.5618ZM37.3356 24.0001C29.9718 24.0001 24.0023 29.9697 24.0023 37.3335C24.0023 44.6973 29.9718 50.6668 37.3356 50.6668C44.6994 50.6668 50.6689 44.6973 50.6689 37.3335C50.6689 29.9697 44.6994 24.0001 37.3356 24.0001Z" fill="white"/>
<path d="M9.63391 25.7328C9.20628 24.4499 8.19961 23.4432 6.91672 23.0156C5.61109 22.5804 5.61109 20.7336 6.91672 20.2984C8.19961 19.8708 9.20629 18.8641 9.63391 17.5812C10.0691 16.2756 11.9159 16.2756 12.3511 17.5812C12.7787 18.8641 13.7854 19.8708 15.0683 20.2984C16.3739 20.7336 16.3739 22.5804 15.0683 23.0156C13.7854 23.4432 12.7787 24.4499 12.3511 25.7328C11.9159 27.0384 10.0691 27.0384 9.63391 25.7328Z" fill="white"/>
<path d="M20.3006 15.0661C19.873 13.7832 18.8663 12.7765 17.5834 12.3489C16.2778 11.9137 16.2778 10.0669 17.5834 9.63172C18.8663 9.20409 19.873 8.19741 20.3006 6.91452C20.7358 5.6089 22.5826 5.6089 23.0178 6.91452C23.4454 8.19741 24.4521 9.20409 25.735 9.63172C27.0406 10.0669 27.0406 11.9137 25.735 12.3489C24.4521 12.7765 23.4454 13.7832 23.0178 15.0661C22.5826 16.3717 20.7358 16.3717 20.3006 15.0661Z" fill="white"/>
</svg>
