<svg width="20" height="20" viewBox="0 0 20 20" fill="none" xmlns="http://www.w3.org/2000/svg">
    <g id="48px_logo-github 1" clip-path="url(#clip0_515_2771)">
    <path id="Vector" fill-rule="evenodd" clip-rule="evenodd" d="M10 0.25C4.45833 0.25 0 4.70833 0 10.25C0 14.6667 2.875 18.4167 6.83333 19.75C7.33333 19.8333 7.5 19.5417 7.5 19.25C7.5 19 7.5 18.375 7.5 17.5417C4.70833 18.1667 4.125 16.2083 4.125 16.2083C3.66667 15.0417 3 14.75 3 14.75C2.08333 14.125 3.08333 14.125 3.08333 14.125C4.08333 14.2083 4.625 15.1667 4.625 15.1667C5.5 16.7083 6.95833 16.25 7.54167 16C7.625 15.3333 7.875 14.9167 8.16667 14.6667C5.95833 14.4167 3.625 13.5417 3.625 9.70833C3.625 8.625 4 7.70833 4.66667 7.04167C4.58333 6.79167 4.20833 5.79167 4.75 4.375C4.75 4.375 5.58333 4.125 7.5 5.41667C8.29167 5.20833 9.16667 5.08333 10 5.08333C10.8333 5.08333 11.7083 5.20833 12.5 5.41667C14.4167 4.125 15.25 4.375 15.25 4.375C15.7917 5.75 15.4583 6.75 15.3333 7.04167C15.9583 7.75 16.375 8.625 16.375 9.70833C16.375 13.5417 14.0417 14.375 11.7917 14.625C12.1667 14.9167 12.4583 15.5417 12.4583 16.4583C12.4583 17.7917 12.4583 18.875 12.4583 19.2083C12.4583 19.4583 12.625 19.7917 13.1667 19.7083C17.125 18.4167 20 14.6667 20 10.25C20 4.70833 15.5417 0.25 10 0.25Z" fill="#444444"/>
    </g>
    <defs>
    <clipPath id="clip0_515_2771">
    <rect width="20" height="20" fill="white"/>
    </clipPath>
    </defs>
    </svg>
    