<svg width="20" height="20" viewBox="0 0 20 20" fill="none" xmlns="http://www.w3.org/2000/svg">
    <g id="Logo Google">
    <g id="Clipped">
    <mask id="mask0_515_2753" style="mask-type:luminance" maskUnits="userSpaceOnUse" x="0" y="0" width="20" height="20">
    <path id="a" fill-rule="evenodd" clip-rule="evenodd" d="M19.7674 8.18182H10.2326V12.0455H15.7209C15.2093 14.5 13.0698 15.9091 10.2326 15.9091C6.88372 15.9091 4.18605 13.2727 4.18605 10C4.18605 6.72727 6.88372 4.09091 10.2326 4.09091C11.6744 4.09091 12.9767 4.59091 14 5.40909L16.9767 2.5C15.1628 0.954545 12.8372 0 10.2326 0C4.55814 0 0 4.45455 0 10C0 15.5455 4.55814 20 10.2326 20C15.3488 20 20 16.3636 20 10C20 9.40909 19.907 8.77273 19.7674 8.18182Z" fill="white"/>
    </mask>
    <g mask="url(#mask0_515_2753)">
    <path id="Path" d="M-0.929688 15.9092V4.09106L6.97729 10.0002L-0.929688 15.9092Z" fill="#FBBC05"/>
    </g>
    </g>
    <g id="Clipped_2">
    <mask id="mask1_515_2753" style="mask-type:luminance" maskUnits="userSpaceOnUse" x="0" y="0" width="20" height="20">
    <path id="a_2" fill-rule="evenodd" clip-rule="evenodd" d="M19.7674 8.18182H10.2326V12.0455H15.7209C15.2093 14.5 13.0698 15.9091 10.2326 15.9091C6.88372 15.9091 4.18605 13.2727 4.18605 10C4.18605 6.72727 6.88372 4.09091 10.2326 4.09091C11.6744 4.09091 12.9767 4.59091 14 5.40909L16.9767 2.5C15.1628 0.954545 12.8372 0 10.2326 0C4.55814 0 0 4.45455 0 10C0 15.5455 4.55814 20 10.2326 20C15.3488 20 20 16.3636 20 10C20 9.40909 19.907 8.77273 19.7674 8.18182Z" fill="white"/>
    </mask>
    <g mask="url(#mask1_515_2753)">
    <path id="Path_2" d="M-0.929688 4.09107L6.97729 10.0002L10.2331 7.22743L21.3959 5.4547V-0.908936H-0.929688V4.09107Z" fill="#EA4335"/>
    </g>
    </g>
    <g id="Clipped_3">
    <mask id="mask2_515_2753" style="mask-type:luminance" maskUnits="userSpaceOnUse" x="0" y="0" width="20" height="20">
    <path id="a_3" fill-rule="evenodd" clip-rule="evenodd" d="M19.7674 8.18182H10.2326V12.0455H15.7209C15.2093 14.5 13.0698 15.9091 10.2326 15.9091C6.88372 15.9091 4.18605 13.2727 4.18605 10C4.18605 6.72727 6.88372 4.09091 10.2326 4.09091C11.6744 4.09091 12.9767 4.59091 14 5.40909L16.9767 2.5C15.1628 0.954545 12.8372 0 10.2326 0C4.55814 0 0 4.45455 0 10C0 15.5455 4.55814 20 10.2326 20C15.3488 20 20 16.3636 20 10C20 9.40909 19.907 8.77273 19.7674 8.18182Z" fill="white"/>
    </mask>
    <g mask="url(#mask2_515_2753)">
    <path id="Path_3" d="M-0.929688 15.9092L13.0238 5.4547L16.6982 5.90925L21.3959 -0.908936V20.9093H-0.929688V15.9092Z" fill="#34A853"/>
    </g>
    </g>
    <g id="Clipped_4">
    <mask id="mask3_515_2753" style="mask-type:luminance" maskUnits="userSpaceOnUse" x="0" y="0" width="20" height="20">
    <path id="a_4" fill-rule="evenodd" clip-rule="evenodd" d="M19.7674 8.18182H10.2326V12.0455H15.7209C15.2093 14.5 13.0698 15.9091 10.2326 15.9091C6.88372 15.9091 4.18605 13.2727 4.18605 10C4.18605 6.72727 6.88372 4.09091 10.2326 4.09091C11.6744 4.09091 12.9767 4.59091 14 5.40909L16.9767 2.5C15.1628 0.954545 12.8372 0 10.2326 0C4.55814 0 0 4.45455 0 10C0 15.5455 4.55814 20 10.2326 20C15.3488 20 20 16.3636 20 10C20 9.40909 19.907 8.77273 19.7674 8.18182Z" fill="white"/>
    </mask>
    <g mask="url(#mask3_515_2753)">
    <path id="Path_4" d="M21.3958 20.9092L6.97716 10.0002L5.1167 8.63652L21.3958 4.09106V20.9092Z" fill="#4285F4"/>
    </g>
    </g>
    </g>
    </svg>
    