<svg width="435" height="313" viewBox="0 0 435 313" fill="none" xmlns="http://www.w3.org/2000/svg">
<g filter="url(#filter0_f_8739_21544)">
<rect x="33" y="33" width="369" height="247" rx="8" fill="black" fill-opacity="0.1"/>
</g>
<rect x="33" y="33" width="369" height="247" rx="8" fill="white"/>
<path d="M57.938 224.88V226H51.19V216.06H57.812V217.18H52.45V220.4H57.112V221.45H52.45V224.88H57.938ZM63.2662 219.77C62.6502 219.779 62.1042 219.938 61.6282 220.246C61.1615 220.545 60.8302 220.96 60.6342 221.492V226H59.4022V218.692H60.5502V220.386C60.8022 219.882 61.1335 219.476 61.5442 219.168C61.9642 218.851 62.4029 218.673 62.8602 218.636C62.9535 218.636 63.0329 218.636 63.0982 218.636C63.1635 218.636 63.2195 218.641 63.2662 218.65V219.77ZM68.3521 219.77C67.7361 219.779 67.1901 219.938 66.7141 220.246C66.2475 220.545 65.9161 220.96 65.7201 221.492V226H64.4881V218.692H65.6361V220.386C65.8881 219.882 66.2195 219.476 66.6301 219.168C67.0501 218.851 67.4888 218.673 67.9461 218.636C68.0395 218.636 68.1188 218.636 68.1841 218.636C68.2495 218.636 68.3055 218.641 68.3521 218.65V219.77ZM72.602 226.14C72.0513 226.14 71.552 226.042 71.104 225.846C70.656 225.641 70.2687 225.365 69.942 225.02C69.6153 224.665 69.3633 224.259 69.186 223.802C69.0087 223.345 68.92 222.864 68.92 222.36C68.92 221.847 69.0087 221.361 69.186 220.904C69.3633 220.447 69.6153 220.045 69.942 219.7C70.2687 219.345 70.656 219.07 71.104 218.874C71.5613 218.669 72.0653 218.566 72.616 218.566C73.1573 218.566 73.652 218.669 74.1 218.874C74.548 219.07 74.9353 219.345 75.262 219.7C75.598 220.045 75.8547 220.447 76.032 220.904C76.2093 221.361 76.298 221.847 76.298 222.36C76.298 222.864 76.2093 223.345 76.032 223.802C75.8547 224.259 75.6027 224.665 75.276 225.02C74.9493 225.365 74.5573 225.641 74.1 225.846C73.652 226.042 73.1527 226.14 72.602 226.14ZM70.18 222.374C70.18 222.878 70.2873 223.335 70.502 223.746C70.726 224.157 71.02 224.483 71.384 224.726C71.748 224.959 72.154 225.076 72.602 225.076C73.05 225.076 73.456 224.955 73.82 224.712C74.1933 224.469 74.4873 224.143 74.702 223.732C74.926 223.312 75.038 222.85 75.038 222.346C75.038 221.842 74.926 221.385 74.702 220.974C74.4873 220.563 74.1933 220.237 73.82 219.994C73.456 219.751 73.05 219.63 72.602 219.63C72.154 219.63 71.748 219.756 71.384 220.008C71.02 220.251 70.726 220.577 70.502 220.988C70.2873 221.399 70.18 221.861 70.18 222.374ZM81.6549 219.77C81.0389 219.779 80.4929 219.938 80.0169 220.246C79.5502 220.545 79.2189 220.96 79.0229 221.492V226H77.7909V218.692H78.9389V220.386C79.1909 219.882 79.5222 219.476 79.9329 219.168C80.3529 218.851 80.7915 218.673 81.2489 218.636C81.3422 218.636 81.4215 218.636 81.4869 218.636C81.5522 218.636 81.6082 218.641 81.6549 218.65V219.77ZM85.3828 226.14C84.7761 226.14 84.2068 226.042 83.6748 225.846C83.1428 225.641 82.6855 225.337 82.3028 224.936L82.7788 224.068C83.1988 224.46 83.6188 224.74 84.0388 224.908C84.4588 225.076 84.8881 225.16 85.3268 225.16C85.8308 225.16 86.2415 225.067 86.5588 224.88C86.8761 224.684 87.0348 224.399 87.0348 224.026C87.0348 223.755 86.9508 223.555 86.7828 223.424C86.6241 223.293 86.3955 223.186 86.0968 223.102C85.7981 223.009 85.4435 222.906 85.0328 222.794C84.5288 222.645 84.1041 222.486 83.7588 222.318C83.4135 222.15 83.1521 221.94 82.9748 221.688C82.7975 221.436 82.7088 221.119 82.7088 220.736C82.7088 220.269 82.8301 219.877 83.0728 219.56C83.3155 219.233 83.6468 218.986 84.0668 218.818C84.4961 218.65 84.9815 218.566 85.5228 218.566C86.0641 218.566 86.5541 218.65 86.9928 218.818C87.4315 218.986 87.8095 219.233 88.1268 219.56L87.5668 220.414C87.2775 220.115 86.9601 219.896 86.6148 219.756C86.2695 219.607 85.8821 219.532 85.4528 219.532C85.2008 219.532 84.9535 219.565 84.7108 219.63C84.4681 219.686 84.2675 219.793 84.1088 219.952C83.9501 220.101 83.8708 220.316 83.8708 220.596C83.8708 220.829 83.9315 221.016 84.0528 221.156C84.1835 221.287 84.3701 221.399 84.6128 221.492C84.8648 221.585 85.1681 221.688 85.5228 221.8C86.0735 221.959 86.5495 222.117 86.9508 222.276C87.3615 222.435 87.6788 222.64 87.9028 222.892C88.1268 223.144 88.2388 223.494 88.2388 223.942C88.2388 224.633 87.9775 225.174 87.4548 225.566C86.9321 225.949 86.2415 226.14 85.3828 226.14ZM96.4458 226.14C95.8951 226.14 95.3958 226.042 94.9478 225.846C94.4998 225.641 94.1124 225.365 93.7858 225.02C93.4591 224.665 93.2071 224.259 93.0298 223.802C92.8524 223.345 92.7638 222.864 92.7638 222.36C92.7638 221.847 92.8524 221.361 93.0298 220.904C93.2071 220.447 93.4591 220.045 93.7858 219.7C94.1124 219.345 94.4998 219.07 94.9478 218.874C95.4051 218.669 95.9091 218.566 96.4598 218.566C97.0011 218.566 97.4958 218.669 97.9438 218.874C98.3918 219.07 98.7791 219.345 99.1058 219.7C99.4418 220.045 99.6984 220.447 99.8758 220.904C100.053 221.361 100.142 221.847 100.142 222.36C100.142 222.864 100.053 223.345 99.8758 223.802C99.6984 224.259 99.4464 224.665 99.1198 225.02C98.7931 225.365 98.4011 225.641 97.9438 225.846C97.4958 226.042 96.9964 226.14 96.4458 226.14ZM94.0238 222.374C94.0238 222.878 94.1311 223.335 94.3458 223.746C94.5698 224.157 94.8638 224.483 95.2278 224.726C95.5918 224.959 95.9978 225.076 96.4458 225.076C96.8938 225.076 97.2998 224.955 97.6638 224.712C98.0371 224.469 98.3311 224.143 98.5458 223.732C98.7698 223.312 98.8818 222.85 98.8818 222.346C98.8818 221.842 98.7698 221.385 98.5458 220.974C98.3311 220.563 98.0371 220.237 97.6638 219.994C97.2998 219.751 96.8938 219.63 96.4458 219.63C95.9978 219.63 95.5918 219.756 95.2278 220.008C94.8638 220.251 94.5698 220.577 94.3458 220.988C94.1311 221.399 94.0238 221.861 94.0238 222.374ZM103.489 226L100.619 218.692H101.907L104.203 224.824L106.499 218.692H107.703L104.833 226H103.489ZM111.923 226.14C111.373 226.14 110.869 226.042 110.411 225.846C109.963 225.641 109.571 225.365 109.235 225.02C108.909 224.665 108.652 224.259 108.465 223.802C108.288 223.345 108.199 222.859 108.199 222.346C108.199 221.655 108.358 221.025 108.675 220.456C108.993 219.887 109.431 219.429 109.991 219.084C110.561 218.739 111.209 218.566 111.937 218.566C112.675 218.566 113.314 218.743 113.855 219.098C114.406 219.443 114.831 219.901 115.129 220.47C115.437 221.03 115.591 221.637 115.591 222.29C115.591 222.383 115.587 222.477 115.577 222.57C115.577 222.654 115.573 222.719 115.563 222.766H109.501C109.539 223.242 109.669 223.667 109.893 224.04C110.127 224.404 110.425 224.693 110.789 224.908C111.153 225.113 111.545 225.216 111.965 225.216C112.413 225.216 112.833 225.104 113.225 224.88C113.627 224.656 113.902 224.362 114.051 223.998L115.115 224.292C114.957 224.647 114.719 224.964 114.401 225.244C114.093 225.524 113.725 225.743 113.295 225.902C112.875 226.061 112.418 226.14 111.923 226.14ZM109.459 221.912H114.443C114.406 221.436 114.271 221.016 114.037 220.652C113.804 220.288 113.505 220.003 113.141 219.798C112.777 219.593 112.376 219.49 111.937 219.49C111.508 219.49 111.111 219.593 110.747 219.798C110.383 220.003 110.085 220.288 109.851 220.652C109.627 221.016 109.497 221.436 109.459 221.912ZM120.825 219.77C120.209 219.779 119.663 219.938 119.187 220.246C118.72 220.545 118.389 220.96 118.193 221.492V226H116.961V218.692H118.109V220.386C118.361 219.882 118.692 219.476 119.103 219.168C119.523 218.851 119.961 218.673 120.419 218.636C120.512 218.636 120.591 218.636 120.657 218.636C120.722 218.636 120.778 218.641 120.825 218.65V219.77ZM129.04 225.636C128.937 225.683 128.797 225.743 128.62 225.818C128.442 225.893 128.237 225.958 128.004 226.014C127.77 226.07 127.523 226.098 127.262 226.098C126.963 226.098 126.688 226.047 126.436 225.944C126.184 225.832 125.983 225.664 125.834 225.44C125.684 225.207 125.61 224.917 125.61 224.572V219.658H124.616V218.692H125.61V216.256H126.842V218.692H128.48V219.658H126.842V224.194C126.86 224.455 126.949 224.651 127.108 224.782C127.266 224.903 127.453 224.964 127.668 224.964C127.91 224.964 128.134 224.922 128.34 224.838C128.545 224.754 128.68 224.693 128.746 224.656L129.04 225.636ZM130.182 226V218.692H131.414V226H130.182ZM130.182 217.32V215.78H131.414V217.32H130.182ZM144.426 226H143.194V221.912C143.194 221.147 143.068 220.582 142.816 220.218C142.573 219.854 142.209 219.672 141.724 219.672C141.229 219.672 140.781 219.854 140.38 220.218C139.979 220.573 139.694 221.035 139.526 221.604V226H138.294V221.912C138.294 221.137 138.173 220.573 137.93 220.218C137.687 219.854 137.323 219.672 136.838 219.672C136.353 219.672 135.905 219.849 135.494 220.204C135.093 220.549 134.808 221.011 134.64 221.59V226H133.408V218.692H134.528V220.26C134.827 219.719 135.214 219.303 135.69 219.014C136.166 218.715 136.703 218.566 137.3 218.566C137.907 218.566 138.392 218.734 138.756 219.07C139.12 219.397 139.344 219.821 139.428 220.344C139.755 219.765 140.151 219.327 140.618 219.028C141.085 218.72 141.617 218.566 142.214 218.566C142.634 218.566 142.984 218.645 143.264 218.804C143.553 218.953 143.782 219.168 143.95 219.448C144.118 219.719 144.239 220.041 144.314 220.414C144.389 220.787 144.426 221.193 144.426 221.632V226ZM149.576 226.14C149.025 226.14 148.521 226.042 148.064 225.846C147.616 225.641 147.224 225.365 146.888 225.02C146.561 224.665 146.304 224.259 146.118 223.802C145.94 223.345 145.852 222.859 145.852 222.346C145.852 221.655 146.01 221.025 146.328 220.456C146.645 219.887 147.084 219.429 147.644 219.084C148.213 218.739 148.862 218.566 149.59 218.566C150.327 218.566 150.966 218.743 151.508 219.098C152.058 219.443 152.483 219.901 152.782 220.47C153.09 221.03 153.244 221.637 153.244 222.29C153.244 222.383 153.239 222.477 153.23 222.57C153.23 222.654 153.225 222.719 153.216 222.766H147.154C147.191 223.242 147.322 223.667 147.546 224.04C147.779 224.404 148.078 224.693 148.442 224.908C148.806 225.113 149.198 225.216 149.618 225.216C150.066 225.216 150.486 225.104 150.878 224.88C151.279 224.656 151.554 224.362 151.704 223.998L152.768 224.292C152.609 224.647 152.371 224.964 152.054 225.244C151.746 225.524 151.377 225.743 150.948 225.902C150.528 226.061 150.07 226.14 149.576 226.14ZM147.112 221.912H152.096C152.058 221.436 151.923 221.016 151.69 220.652C151.456 220.288 151.158 220.003 150.794 219.798C150.43 219.593 150.028 219.49 149.59 219.49C149.16 219.49 148.764 219.593 148.4 219.798C148.036 220.003 147.737 220.288 147.504 220.652C147.28 221.016 147.149 221.436 147.112 221.912Z" fill="#232830"/>
<path d="M57.488 256.917V253.341H50.48V250.485L58.52 240.165H60.704V250.461H62.816V253.341H60.704V256.917H57.488ZM53.696 250.461H57.848V245.037L53.696 250.461Z" fill="#232830"/>
<path fill-rule="evenodd" clip-rule="evenodd" d="M338.249 228.038L336.892 226.627L333.774 229.897L333.761 216.292L331.845 216.294L331.858 229.862L328.764 226.647L327.412 228.064L332.843 233.708L338.249 228.038Z" fill="#00875A"/>
<path d="M354.736 228.306V230H349.052V228.306H351.04V224.064C350.956 224.176 350.826 224.293 350.648 224.414C350.471 224.526 350.27 224.633 350.046 224.736C349.822 224.839 349.598 224.923 349.374 224.988C349.15 225.053 348.95 225.086 348.772 225.086V223.336C348.94 223.336 349.141 223.285 349.374 223.182C349.617 223.07 349.855 222.939 350.088 222.79C350.331 222.641 350.536 222.496 350.704 222.356C350.882 222.207 350.994 222.09 351.04 222.006H352.958V228.306H354.736ZM355.886 230V227.984H357.426V230H355.886ZM358.751 230C358.751 229.58 358.783 229.202 358.849 228.866C358.914 228.53 359.026 228.217 359.185 227.928C359.353 227.639 359.577 227.368 359.857 227.116C360.146 226.855 360.51 226.603 360.949 226.36C361.331 226.155 361.667 225.977 361.957 225.828C362.246 225.669 362.489 225.525 362.685 225.394C362.89 225.263 363.044 225.133 363.147 225.002C363.249 224.862 363.301 224.703 363.301 224.526C363.301 224.339 363.249 224.171 363.147 224.022C363.044 223.863 362.899 223.737 362.713 223.644C362.526 223.551 362.293 223.504 362.013 223.504C361.789 223.504 361.579 223.532 361.383 223.588C361.196 223.644 361.019 223.723 360.851 223.826C360.692 223.929 360.543 224.045 360.403 224.176C360.263 224.297 360.137 224.428 360.025 224.568L358.835 223.196C358.965 223.065 359.138 222.925 359.353 222.776C359.577 222.617 359.838 222.473 360.137 222.342C360.445 222.202 360.781 222.09 361.145 222.006C361.518 221.913 361.915 221.866 362.335 221.866C362.969 221.866 363.511 221.969 363.959 222.174C364.407 222.37 364.747 222.645 364.981 223C365.223 223.355 365.345 223.77 365.345 224.246C365.345 224.573 365.284 224.862 365.163 225.114C365.041 225.366 364.887 225.59 364.701 225.786C364.514 225.973 364.309 226.141 364.085 226.29C363.87 226.439 363.66 226.57 363.455 226.682C363.165 226.831 362.904 226.971 362.671 227.102C362.437 227.223 362.232 227.349 362.055 227.48C361.877 227.601 361.719 227.727 361.579 227.858C361.448 227.989 361.331 228.138 361.229 228.306H365.499V230H358.751ZM371.455 226.696C371.847 226.761 372.188 226.911 372.477 227.144C372.766 227.368 372.99 227.657 373.149 228.012C373.317 228.367 373.401 228.759 373.401 229.188C373.401 229.767 373.252 230.271 372.953 230.7C372.654 231.129 372.23 231.461 371.679 231.694C371.138 231.937 370.498 232.058 369.761 232.058C369.052 232.058 368.422 231.941 367.871 231.708C367.33 231.484 366.877 231.153 366.513 230.714L367.577 229.384C367.82 229.683 368.109 229.916 368.445 230.084C368.79 230.261 369.21 230.35 369.705 230.35C370.274 230.35 370.708 230.233 371.007 230C371.306 229.776 371.455 229.435 371.455 228.978C371.455 228.493 371.282 228.119 370.937 227.858C370.592 227.597 370.069 227.466 369.369 227.466H368.977V226.066H369.411C369.98 226.066 370.424 225.935 370.741 225.674C371.068 225.413 371.231 225.086 371.231 224.694C371.231 224.442 371.17 224.232 371.049 224.064C370.928 223.896 370.76 223.77 370.545 223.686C370.34 223.602 370.097 223.56 369.817 223.56C369.397 223.56 369.014 223.658 368.669 223.854C368.324 224.05 368.044 224.325 367.829 224.68L366.653 223.364C366.849 223.075 367.115 222.827 367.451 222.622C367.796 222.407 368.188 222.239 368.627 222.118C369.075 221.997 369.542 221.936 370.027 221.936C370.662 221.936 371.217 222.039 371.693 222.244C372.178 222.449 372.556 222.739 372.827 223.112C373.098 223.485 373.233 223.919 373.233 224.414C373.233 224.778 373.158 225.123 373.009 225.45C372.86 225.777 372.65 226.052 372.379 226.276C372.118 226.491 371.81 226.631 371.455 226.696ZM376.728 224.162C376.298 224.162 375.911 224.069 375.566 223.882C375.22 223.686 374.94 223.429 374.726 223.112C374.52 222.785 374.418 222.426 374.418 222.034C374.418 221.642 374.52 221.287 374.726 220.97C374.94 220.643 375.22 220.387 375.566 220.2C375.911 220.013 376.298 219.92 376.728 219.92C377.157 219.92 377.544 220.013 377.89 220.2C378.244 220.387 378.524 220.643 378.73 220.97C378.935 221.287 379.038 221.642 379.038 222.034C379.038 222.426 378.935 222.785 378.73 223.112C378.524 223.429 378.244 223.686 377.89 223.882C377.544 224.069 377.157 224.162 376.728 224.162ZM376.728 223.224C376.914 223.224 377.082 223.168 377.232 223.056C377.381 222.944 377.498 222.799 377.582 222.622C377.675 222.445 377.722 222.253 377.722 222.048C377.722 221.824 377.675 221.623 377.582 221.446C377.488 221.269 377.367 221.129 377.218 221.026C377.068 220.914 376.905 220.858 376.728 220.858C376.541 220.858 376.373 220.914 376.224 221.026C376.074 221.129 375.953 221.269 375.86 221.446C375.776 221.623 375.734 221.819 375.734 222.034C375.734 222.249 375.78 222.449 375.874 222.636C375.967 222.813 376.088 222.958 376.238 223.07C376.387 223.173 376.55 223.224 376.728 223.224ZM382.132 230.14C381.702 230.14 381.315 230.047 380.97 229.86C380.624 229.673 380.344 229.421 380.13 229.104C379.924 228.777 379.822 228.418 379.822 228.026C379.822 227.625 379.924 227.265 380.13 226.948C380.344 226.631 380.624 226.379 380.97 226.192C381.315 225.996 381.702 225.898 382.132 225.898C382.561 225.898 382.948 225.996 383.294 226.192C383.648 226.379 383.928 226.631 384.134 226.948C384.339 227.265 384.442 227.62 384.442 228.012C384.442 228.404 384.339 228.763 384.134 229.09C383.928 229.407 383.648 229.664 383.294 229.86C382.948 230.047 382.561 230.14 382.132 230.14ZM382.132 229.202C382.318 229.202 382.486 229.146 382.636 229.034C382.785 228.922 382.902 228.777 382.986 228.6C383.079 228.423 383.126 228.231 383.126 228.026C383.126 227.802 383.079 227.601 382.986 227.424C382.902 227.247 382.78 227.107 382.622 227.004C382.472 226.892 382.309 226.836 382.132 226.836C381.954 226.836 381.786 226.892 381.628 227.004C381.478 227.107 381.357 227.251 381.264 227.438C381.18 227.615 381.138 227.807 381.138 228.012C381.138 228.236 381.184 228.437 381.278 228.614C381.371 228.791 381.492 228.936 381.642 229.048C381.791 229.151 381.954 229.202 382.132 229.202ZM375.216 229.342L379.15 224.736L382.79 219.948L383.644 220.704L379.808 225.24L376.056 230.098L375.216 229.342Z" fill="#00875A"/>
<path d="M54 173L74.4338 142.381C79.8591 134.252 89.6722 130.224 99.2443 132.198L104.273 133.235C110.215 134.461 116.4 133.39 121.585 130.24L127.913 126.394C136.853 120.961 148.282 121.945 156.162 128.825L159.077 131.371C167.3 138.551 179.333 139.276 188.36 133.137L193.557 129.602C199.171 125.783 206.223 124.743 212.7 126.779V126.779C223.867 130.288 235.84 124.525 240.064 113.608L252.256 82.0916C257.392 68.8159 273.058 63.118 285.523 69.9918V69.9918C289.784 72.3417 294.67 73.3109 299.506 72.7654L303.97 72.2617C314.391 71.0862 324.368 76.8126 328.61 86.4034L348.271 130.86C350.423 135.727 354.132 139.741 358.814 142.27L381 154.253" stroke="#5243AA" stroke-width="4" stroke-linecap="round" stroke-linejoin="round"/>
<defs>
<filter id="filter0_f_8739_21544" x="0.733334" y="0.733334" width="433.533" height="311.533" filterUnits="userSpaceOnUse" color-interpolation-filters="sRGB">
<feFlood flood-opacity="0" result="BackgroundImageFix"/>
<feBlend mode="normal" in="SourceGraphic" in2="BackgroundImageFix" result="shape"/>
<feGaussianBlur stdDeviation="16.1333" result="effect1_foregroundBlur_8739_21544"/>
</filter>
</defs>
</svg>
