<svg width="20" height="20" viewBox="0 0 20 20" fill="none" xmlns="http://www.w3.org/2000/svg">
    <path fill-rule="evenodd" clip-rule="evenodd" d="M1.66797 10.0003C1.66797 5.39795 5.39893 1.66699 10.0013 1.66699C14.6036 1.66699 18.3346 5.39795 18.3346 10.0003C18.3346 14.6027 14.6036 18.3337 10.0013 18.3337C5.39893 18.3337 1.66797 14.6027 1.66797 10.0003ZM10.0026 16.6673C6.3207 16.6673 3.33594 13.6826 3.33594 10.0007C3.33594 6.31875 6.3207 3.33398 10.0026 3.33398C13.6845 3.33398 16.6693 6.31875 16.6693 10.0007C16.6693 13.6826 13.6845 16.6673 10.0026 16.6673ZM10.0013 5.04295C9.54105 5.04295 9.16797 5.41604 9.16797 5.87628C9.16797 6.33652 9.54105 6.70962 10.0013 6.70962C10.4616 6.70962 10.8346 6.33652 10.8346 5.87628C10.8346 5.41604 10.4616 5.04295 10.0013 5.04295ZM9.16797 9.14983C9.16797 8.68958 9.54105 8.31647 10.0013 8.31647C10.4616 8.31647 10.8346 8.68958 10.8346 9.14983V14.1498C10.8346 14.6101 10.4616 14.9832 10.0013 14.9832C9.54105 14.9832 9.16797 14.6101 9.16797 14.1498V9.14983Z" fill="#78797A"/>
    </svg>
    