<svg width="100" height="100" viewBox="0 0 100 100" fill="none" xmlns="http://www.w3.org/2000/svg">
    <g filter="url(#filter0_d_7087_12460)">
    <circle cx="48" cy="46" r="30" fill="white"/>
    </g>
    <path fill-rule="evenodd" clip-rule="evenodd" d="M41.6668 52.2222C37.8807 50.0321 35.3335 45.9386 35.3335 41.2502C35.3335 34.2546 41.0046 28.5835 48.0002 28.5835C54.9958 28.5835 60.6668 34.2546 60.6668 41.2502C60.6668 45.9386 58.1196 50.0321 54.3335 52.2222V52.3333C54.3335 55.8312 51.4979 58.6667 48.0002 58.6667C44.5024 58.6667 41.6668 55.8312 41.6668 52.3333V52.2222ZM44.8335 60.2502V60.2603C44.8335 62.0092 46.2512 63.427 48.0002 63.427C49.7491 63.427 51.1668 62.0092 51.1668 60.2603V60.2502C50.2354 60.789 49.1538 61.0974 48.0002 61.0974C46.8465 61.0974 45.765 60.789 44.8335 60.2502Z" fill="#171717"/>
    <defs>
    <filter id="filter0_d_7087_12460" x="0" y="0" width="100" height="100" filterUnits="userSpaceOnUse" color-interpolation-filters="sRGB">
    <feFlood flood-opacity="0" result="BackgroundImageFix"/>
    <feColorMatrix in="SourceAlpha" type="matrix" values="0 0 0 0 0 0 0 0 0 0 0 0 0 0 0 0 0 0 127 0" result="hardAlpha"/>
    <feMorphology radius="4" operator="dilate" in="SourceAlpha" result="effect1_dropShadow_7087_12460"/>
    <feOffset dx="2" dy="4"/>
    <feGaussianBlur stdDeviation="8"/>
    <feComposite in2="hardAlpha" operator="out"/>
    <feColorMatrix type="matrix" values="0 0 0 0 0 0 0 0 0 0 0 0 0 0 0 0 0 0 0.25 0"/>
    <feBlend mode="normal" in2="BackgroundImageFix" result="effect1_dropShadow_7087_12460"/>
    <feBlend mode="normal" in="SourceGraphic" in2="effect1_dropShadow_7087_12460" result="shape"/>
    </filter>
    </defs>
    </svg>
    