<svg width="566" height="317" viewBox="0 0 566 317" fill="none" xmlns="http://www.w3.org/2000/svg">
<g filter="url(#filter0_f_8739_21563)">
<rect x="33" y="33" width="500" height="251" rx="8.06667" fill="black" fill-opacity="0.1"/>
</g>
<rect x="33" y="33" width="500" height="251" rx="8.07" fill="white"/>
<path d="M61.28 70V58.64H63.072V70H61.28ZM78.2154 70H76.4554V65.312C76.4554 64.5333 76.3274 63.9627 76.0714 63.6C75.8154 63.2373 75.442 63.056 74.9514 63.056C74.4607 63.056 74.002 63.2427 73.5754 63.616C73.1594 63.9787 72.866 64.4533 72.6954 65.04V70H70.9354V65.312C70.9354 64.5333 70.8074 63.9627 70.5514 63.6C70.2954 63.2373 69.9274 63.056 69.4474 63.056C68.9567 63.056 68.498 63.2373 68.0714 63.6C67.6554 63.9627 67.3567 64.4373 67.1754 65.024V70H65.4154V61.632H67.0154V63.312C67.346 62.7253 67.778 62.2773 68.3114 61.968C68.8554 61.648 69.474 61.488 70.1674 61.488C70.8607 61.488 71.4047 61.6693 71.7994 62.032C72.2047 62.3947 72.4554 62.848 72.5514 63.392C72.914 62.7733 73.3567 62.304 73.8794 61.984C74.4127 61.6533 75.0207 61.488 75.7034 61.488C76.194 61.488 76.6047 61.5787 76.9354 61.76C77.266 61.9413 77.522 62.192 77.7034 62.512C77.8847 62.8213 78.0127 63.184 78.0874 63.6C78.1727 64.0053 78.2154 64.4373 78.2154 64.896V70ZM84.9955 70.16C84.3235 70.16 83.7315 70 83.2195 69.68C82.7075 69.36 82.3022 68.944 82.0035 68.432V73.408H80.2435V61.632H81.7955V63.136C82.1155 62.6347 82.5315 62.2347 83.0435 61.936C83.5555 61.6373 84.1262 61.488 84.7555 61.488C85.3315 61.488 85.8595 61.6053 86.3395 61.84C86.8195 62.064 87.2355 62.3787 87.5875 62.784C87.9395 63.1893 88.2115 63.6533 88.4035 64.176C88.6062 64.688 88.7075 65.232 88.7075 65.808C88.7075 66.608 88.5475 67.3387 88.2275 68C87.9182 68.6613 87.4808 69.1893 86.9155 69.584C86.3608 69.968 85.7208 70.16 84.9955 70.16ZM84.4195 68.656C84.7928 68.656 85.1288 68.576 85.4275 68.416C85.7368 68.256 85.9982 68.0427 86.2115 67.776C86.4355 67.5093 86.6062 67.2053 86.7235 66.864C86.8408 66.5227 86.8995 66.1707 86.8995 65.808C86.8995 65.424 86.8355 65.0613 86.7075 64.72C86.5795 64.3787 86.3928 64.08 86.1475 63.824C85.9128 63.568 85.6355 63.3653 85.3155 63.216C85.0062 63.0667 84.6648 62.992 84.2915 62.992C84.0675 62.992 83.8328 63.0347 83.5875 63.12C83.3422 63.2053 83.1128 63.3227 82.8995 63.472C82.6862 63.6213 82.4995 63.7973 82.3395 64C82.1795 64.2027 82.0675 64.416 82.0035 64.64V66.832C82.1528 67.1733 82.3502 67.4827 82.5955 67.76C82.8408 68.0267 83.1235 68.2453 83.4435 68.416C83.7635 68.576 84.0888 68.656 84.4195 68.656ZM94.0504 70.16C93.389 70.16 92.797 70.048 92.2744 69.824C91.7517 69.5893 91.2984 69.2693 90.9144 68.864C90.541 68.4587 90.253 68 90.0504 67.488C89.8477 66.9653 89.7464 66.4107 89.7464 65.824C89.7464 65.2373 89.8477 64.6827 90.0504 64.16C90.253 63.6373 90.541 63.1787 90.9144 62.784C91.2984 62.3787 91.7517 62.064 92.2744 61.84C92.8077 61.6053 93.3997 61.488 94.0504 61.488C94.701 61.488 95.2877 61.6053 95.8104 61.84C96.3437 62.064 96.797 62.3787 97.1704 62.784C97.5544 63.1787 97.8477 63.6373 98.0504 64.16C98.253 64.6827 98.3544 65.2373 98.3544 65.824C98.3544 66.4107 98.253 66.9653 98.0504 67.488C97.8477 68 97.5544 68.4587 97.1704 68.864C96.797 69.2693 96.3437 69.5893 95.8104 69.824C95.2877 70.048 94.701 70.16 94.0504 70.16ZM91.5544 65.84C91.5544 66.3733 91.6664 66.8533 91.8904 67.28C92.1144 67.7067 92.413 68.0427 92.7864 68.288C93.1597 68.5333 93.581 68.656 94.0504 68.656C94.509 68.656 94.925 68.5333 95.2984 68.288C95.6824 68.032 95.9864 67.6907 96.2104 67.264C96.4344 66.8267 96.5464 66.3467 96.5464 65.824C96.5464 65.2907 96.4344 64.8107 96.2104 64.384C95.9864 63.9573 95.6824 63.6213 95.2984 63.376C94.925 63.12 94.509 62.992 94.0504 62.992C93.581 62.992 93.1597 63.12 92.7864 63.376C92.413 63.632 92.1144 63.9733 91.8904 64.4C91.6664 64.816 91.5544 65.296 91.5544 65.84ZM104.619 63.152C103.937 63.1627 103.329 63.3173 102.795 63.616C102.273 63.9147 101.899 64.336 101.675 64.88V70H99.9154V61.632H101.547V63.504C101.835 62.928 102.214 62.4693 102.683 62.128C103.153 61.776 103.649 61.584 104.171 61.552C104.278 61.552 104.363 61.552 104.427 61.552C104.502 61.552 104.566 61.5573 104.619 61.568V63.152ZM110.556 69.568C110.406 69.6427 110.22 69.7227 109.996 69.808C109.772 69.8933 109.516 69.968 109.228 70.032C108.95 70.096 108.662 70.128 108.364 70.128C108.001 70.128 107.665 70.064 107.356 69.936C107.046 69.808 106.796 69.6053 106.604 69.328C106.422 69.04 106.332 68.672 106.332 68.224V62.992H105.228V61.632H106.332V58.88H108.092V61.632H109.916V62.992H108.092V67.664C108.113 67.952 108.204 68.1653 108.364 68.304C108.534 68.4427 108.742 68.512 108.988 68.512C109.233 68.512 109.468 68.4693 109.692 68.384C109.916 68.2987 110.081 68.2293 110.188 68.176L110.556 69.568ZM118.732 58.64H120.428L124.844 70H122.956L121.756 66.912H117.372L116.188 70H114.284L118.732 58.64ZM121.404 65.584L119.58 60.608L117.692 65.584H121.404ZM126.249 70V58.64H131.017C131.529 58.64 131.998 58.7467 132.425 58.96C132.851 59.1733 133.225 59.456 133.545 59.808C133.865 60.16 134.11 60.5547 134.281 60.992C134.451 61.4293 134.537 61.8773 134.537 62.336C134.537 62.9653 134.393 63.568 134.105 64.144C133.827 64.7093 133.427 65.168 132.905 65.52C132.393 65.872 131.795 66.048 131.113 66.048H128.041V70H126.249ZM128.041 64.464H131.001C131.342 64.464 131.641 64.3733 131.897 64.192C132.153 64 132.35 63.744 132.489 63.424C132.638 63.104 132.713 62.7413 132.713 62.336C132.713 61.92 132.627 61.552 132.457 61.232C132.286 60.912 132.062 60.6667 131.785 60.496C131.518 60.3147 131.225 60.224 130.905 60.224H128.041V64.464ZM136.218 70V58.64H138.01V70H136.218ZM147.31 58.64H149.006L153.422 70H151.534L150.334 66.912H145.95L144.766 70H142.862L147.31 58.64ZM149.982 65.584L148.158 60.608L146.27 65.584H149.982ZM158.145 70.16C157.494 70.16 156.902 70.048 156.369 69.824C155.846 69.5893 155.393 69.2693 155.009 68.864C154.625 68.4587 154.326 67.9947 154.113 67.472C153.91 66.9493 153.809 66.3947 153.809 65.808C153.809 65.0187 153.985 64.2987 154.337 63.648C154.7 62.9973 155.201 62.4747 155.841 62.08C156.492 61.6853 157.26 61.488 158.145 61.488C158.998 61.488 159.74 61.68 160.369 62.064C161.009 62.4373 161.478 62.9387 161.777 63.568L160.065 64.112C159.873 63.76 159.601 63.488 159.249 63.296C158.908 63.0933 158.529 62.992 158.113 62.992C157.644 62.992 157.217 63.1147 156.833 63.36C156.46 63.5947 156.161 63.9253 155.937 64.352C155.724 64.768 155.617 65.2533 155.617 65.808C155.617 66.3413 155.729 66.8267 155.953 67.264C156.177 67.6907 156.476 68.032 156.849 68.288C157.233 68.5333 157.66 68.656 158.129 68.656C158.417 68.656 158.694 68.608 158.961 68.512C159.238 68.4053 159.478 68.2667 159.681 68.096C159.884 67.9147 160.028 67.7173 160.113 67.504L161.841 68.016C161.66 68.432 161.388 68.8 161.025 69.12C160.673 69.44 160.252 69.696 159.761 69.888C159.281 70.0693 158.742 70.16 158.145 70.16ZM167.946 69.568C167.797 69.6427 167.61 69.7227 167.386 69.808C167.162 69.8933 166.906 69.968 166.618 70.032C166.341 70.096 166.053 70.128 165.754 70.128C165.392 70.128 165.056 70.064 164.746 69.936C164.437 69.808 164.186 69.6053 163.994 69.328C163.813 69.04 163.722 68.672 163.722 68.224V62.992H162.618V61.632H163.722V58.88H165.482V61.632H167.306V62.992H165.482V67.664C165.504 67.952 165.594 68.1653 165.754 68.304C165.925 68.4427 166.133 68.512 166.378 68.512C166.624 68.512 166.858 68.4693 167.082 68.384C167.306 68.2987 167.472 68.2293 167.578 68.176L167.946 69.568ZM169.165 70V61.632H170.925V70H169.165ZM169.165 60.256V58.32H170.925V60.256H169.165ZM176.8 70.16C176.139 70.16 175.547 70.048 175.024 69.824C174.502 69.5893 174.048 69.2693 173.664 68.864C173.291 68.4587 173.003 68 172.8 67.488C172.598 66.9653 172.496 66.4107 172.496 65.824C172.496 65.2373 172.598 64.6827 172.8 64.16C173.003 63.6373 173.291 63.1787 173.664 62.784C174.048 62.3787 174.502 62.064 175.024 61.84C175.558 61.6053 176.15 61.488 176.8 61.488C177.451 61.488 178.038 61.6053 178.56 61.84C179.094 62.064 179.547 62.3787 179.92 62.784C180.304 63.1787 180.598 63.6373 180.8 64.16C181.003 64.6827 181.104 65.2373 181.104 65.824C181.104 66.4107 181.003 66.9653 180.8 67.488C180.598 68 180.304 68.4587 179.92 68.864C179.547 69.2693 179.094 69.5893 178.56 69.824C178.038 70.048 177.451 70.16 176.8 70.16ZM174.304 65.84C174.304 66.3733 174.416 66.8533 174.64 67.28C174.864 67.7067 175.163 68.0427 175.536 68.288C175.91 68.5333 176.331 68.656 176.8 68.656C177.259 68.656 177.675 68.5333 178.048 68.288C178.432 68.032 178.736 67.6907 178.96 67.264C179.184 66.8267 179.296 66.3467 179.296 65.824C179.296 65.2907 179.184 64.8107 178.96 64.384C178.736 63.9573 178.432 63.6213 178.048 63.376C177.675 63.12 177.259 62.992 176.8 62.992C176.331 62.992 175.91 63.12 175.536 63.376C175.163 63.632 174.864 63.9733 174.64 64.4C174.416 64.816 174.304 65.296 174.304 65.84ZM190.169 70H188.409V65.312C188.409 64.5333 188.281 63.9627 188.025 63.6C187.78 63.2373 187.412 63.056 186.921 63.056C186.58 63.056 186.239 63.1413 185.897 63.312C185.567 63.4827 185.268 63.7173 185.001 64.016C184.735 64.304 184.543 64.64 184.425 65.024V70H182.665V61.632H184.265V63.312C184.479 62.9387 184.756 62.6187 185.097 62.352C185.449 62.0747 185.844 61.8613 186.281 61.712C186.719 61.5627 187.183 61.488 187.673 61.488C188.175 61.488 188.585 61.5787 188.905 61.76C189.236 61.9413 189.492 62.192 189.673 62.512C189.865 62.8213 189.993 63.184 190.057 63.6C190.132 64.0053 190.169 64.4373 190.169 64.896V70ZM195.188 70.16C194.484 70.16 193.818 70.048 193.188 69.824C192.559 69.5893 192.02 69.2427 191.572 68.784L192.228 67.6C192.708 68.0267 193.188 68.336 193.668 68.528C194.159 68.72 194.644 68.816 195.124 68.816C195.615 68.816 196.015 68.7253 196.324 68.544C196.634 68.352 196.788 68.0747 196.788 67.712C196.788 67.4453 196.708 67.248 196.548 67.12C196.388 66.992 196.154 66.88 195.844 66.784C195.546 66.688 195.183 66.5813 194.756 66.464C194.159 66.2827 193.658 66.096 193.252 65.904C192.847 65.7013 192.543 65.456 192.34 65.168C192.138 64.88 192.036 64.512 192.036 64.064C192.036 63.52 192.175 63.056 192.452 62.672C192.73 62.288 193.114 61.9947 193.604 61.792C194.106 61.5893 194.682 61.488 195.332 61.488C195.94 61.488 196.5 61.584 197.012 61.776C197.535 61.9573 197.994 62.2453 198.388 62.64L197.636 63.808C197.263 63.4667 196.879 63.216 196.484 63.056C196.1 62.896 195.684 62.816 195.236 62.816C194.98 62.816 194.735 62.848 194.5 62.912C194.266 62.9653 194.068 63.072 193.908 63.232C193.759 63.3813 193.684 63.5947 193.684 63.872C193.684 64.096 193.748 64.2773 193.876 64.416C194.004 64.5547 194.196 64.672 194.452 64.768C194.708 64.864 195.023 64.9707 195.396 65.088C196.047 65.28 196.602 65.472 197.06 65.664C197.519 65.8453 197.871 66.0853 198.116 66.384C198.372 66.672 198.5 67.072 198.5 67.584C198.5 68.3947 198.196 69.0293 197.588 69.488C196.991 69.936 196.191 70.16 195.188 70.16Z" fill="#232830"/>
<path d="M33 92L533 92" stroke="#D4D4D4"/>
<path d="M65.13 123.22H67.038L72.006 136H69.882L68.532 132.526H63.6L62.268 136H60.126L65.13 123.22ZM68.136 131.032L66.084 125.434L63.96 131.032H68.136ZM73.5865 136V123.22H78.9505C79.5265 123.22 80.0545 123.34 80.5345 123.58C81.0145 123.82 81.4345 124.138 81.7945 124.534C82.1545 124.93 82.4305 125.374 82.6225 125.866C82.8145 126.358 82.9105 126.862 82.9105 127.378C82.9105 128.086 82.7485 128.764 82.4245 129.412C82.1125 130.048 81.6625 130.564 81.0745 130.96C80.4985 131.356 79.8265 131.554 79.0585 131.554H75.6025V136H73.5865ZM75.6025 129.772H78.9325C79.3165 129.772 79.6525 129.67 79.9405 129.466C80.2285 129.25 80.4505 128.962 80.6065 128.602C80.7745 128.242 80.8585 127.834 80.8585 127.378C80.8585 126.91 80.7625 126.496 80.5705 126.136C80.3785 125.776 80.1265 125.5 79.8145 125.308C79.5145 125.104 79.1845 125.002 78.8245 125.002H75.6025V129.772ZM84.8013 136V123.22H86.8173V136H84.8013ZM94.1529 136V123.22H98.6889C100.069 123.22 101.221 123.508 102.145 124.084C103.069 124.648 103.759 125.416 104.215 126.388C104.683 127.348 104.917 128.416 104.917 129.592C104.917 130.888 104.659 132.016 104.143 132.976C103.639 133.936 102.919 134.68 101.983 135.208C101.047 135.736 99.9489 136 98.6889 136H94.1529ZM102.865 129.592C102.865 128.692 102.697 127.9 102.361 127.216C102.037 126.52 101.563 125.98 100.939 125.596C100.327 125.2 99.5769 125.002 98.6889 125.002H96.1689V134.218H98.6889C99.5889 134.218 100.345 134.014 100.957 133.606C101.581 133.198 102.055 132.646 102.379 131.95C102.703 131.254 102.865 130.468 102.865 129.592ZM111.016 136.18C110.272 136.18 109.606 136.054 109.018 135.802C108.43 135.538 107.92 135.178 107.488 134.722C107.068 134.266 106.744 133.75 106.516 133.174C106.288 132.586 106.174 131.962 106.174 131.302C106.174 130.642 106.288 130.018 106.516 129.43C106.744 128.842 107.068 128.326 107.488 127.882C107.92 127.426 108.43 127.072 109.018 126.82C109.618 126.556 110.284 126.424 111.016 126.424C111.748 126.424 112.408 126.556 112.996 126.82C113.596 127.072 114.106 127.426 114.526 127.882C114.958 128.326 115.288 128.842 115.516 129.43C115.744 130.018 115.858 130.642 115.858 131.302C115.858 131.962 115.744 132.586 115.516 133.174C115.288 133.75 114.958 134.266 114.526 134.722C114.106 135.178 113.596 135.538 112.996 135.802C112.408 136.054 111.748 136.18 111.016 136.18ZM108.208 131.32C108.208 131.92 108.334 132.46 108.586 132.94C108.838 133.42 109.174 133.798 109.594 134.074C110.014 134.35 110.488 134.488 111.016 134.488C111.532 134.488 112 134.35 112.42 134.074C112.852 133.786 113.194 133.402 113.446 132.922C113.698 132.43 113.824 131.89 113.824 131.302C113.824 130.702 113.698 130.162 113.446 129.682C113.194 129.202 112.852 128.824 112.42 128.548C112 128.26 111.532 128.116 111.016 128.116C110.488 128.116 110.014 128.26 109.594 128.548C109.174 128.836 108.838 129.22 108.586 129.7C108.334 130.168 108.208 130.708 108.208 131.32ZM121.88 136.18C121.148 136.18 120.482 136.054 119.882 135.802C119.294 135.538 118.784 135.178 118.352 134.722C117.92 134.266 117.584 133.744 117.344 133.156C117.116 132.568 117.002 131.944 117.002 131.284C117.002 130.396 117.2 129.586 117.596 128.854C118.004 128.122 118.568 127.534 119.288 127.09C120.02 126.646 120.884 126.424 121.88 126.424C122.84 126.424 123.674 126.64 124.382 127.072C125.102 127.492 125.63 128.056 125.966 128.764L124.04 129.376C123.824 128.98 123.518 128.674 123.122 128.458C122.738 128.23 122.312 128.116 121.844 128.116C121.316 128.116 120.836 128.254 120.404 128.53C119.984 128.794 119.648 129.166 119.396 129.646C119.156 130.114 119.036 130.66 119.036 131.284C119.036 131.884 119.162 132.43 119.414 132.922C119.666 133.402 120.002 133.786 120.422 134.074C120.854 134.35 121.334 134.488 121.862 134.488C122.186 134.488 122.498 134.434 122.798 134.326C123.11 134.206 123.38 134.05 123.608 133.858C123.836 133.654 123.998 133.432 124.094 133.192L126.038 133.768C125.834 134.236 125.528 134.65 125.12 135.01C124.724 135.37 124.25 135.658 123.698 135.874C123.158 136.078 122.552 136.18 121.88 136.18ZM127.578 132.346V126.586H129.558V131.95C129.558 132.79 129.708 133.426 130.008 133.858C130.32 134.278 130.77 134.488 131.358 134.488C131.73 134.488 132.09 134.41 132.438 134.254C132.798 134.098 133.122 133.87 133.41 133.57C133.71 133.258 133.95 132.886 134.13 132.454V126.586H136.11V133.768C136.11 133.996 136.152 134.158 136.236 134.254C136.32 134.35 136.458 134.404 136.65 134.416V136C136.446 136.036 136.278 136.06 136.146 136.072C136.014 136.084 135.888 136.09 135.768 136.09C135.408 136.09 135.108 135.994 134.868 135.802C134.628 135.598 134.49 135.34 134.454 135.028L134.418 134.092C133.998 134.776 133.452 135.298 132.78 135.658C132.108 136.006 131.37 136.18 130.566 136.18C129.582 136.18 128.838 135.856 128.334 135.208C127.83 134.56 127.578 133.606 127.578 132.346ZM153.037 136H151.057V130.726C151.057 129.85 150.913 129.208 150.625 128.8C150.337 128.392 149.917 128.188 149.365 128.188C148.813 128.188 148.297 128.398 147.817 128.818C147.349 129.226 147.019 129.76 146.827 130.42V136H144.847V130.726C144.847 129.85 144.703 129.208 144.415 128.8C144.127 128.392 143.713 128.188 143.173 128.188C142.621 128.188 142.105 128.392 141.625 128.8C141.157 129.208 140.821 129.742 140.617 130.402V136H138.637V126.586H140.437V128.476C140.809 127.816 141.295 127.312 141.895 126.964C142.507 126.604 143.203 126.424 143.983 126.424C144.763 126.424 145.375 126.628 145.819 127.036C146.275 127.444 146.557 127.954 146.665 128.566C147.073 127.87 147.571 127.342 148.159 126.982C148.759 126.61 149.443 126.424 150.211 126.424C150.763 126.424 151.225 126.526 151.597 126.73C151.969 126.934 152.257 127.216 152.461 127.576C152.665 127.924 152.809 128.332 152.893 128.8C152.989 129.256 153.037 129.742 153.037 130.258V136ZM159.585 136.18C158.853 136.18 158.187 136.054 157.587 135.802C156.999 135.538 156.489 135.184 156.057 134.74C155.625 134.284 155.289 133.768 155.049 133.192C154.821 132.604 154.707 131.98 154.707 131.32C154.707 130.432 154.911 129.622 155.319 128.89C155.727 128.146 156.297 127.552 157.029 127.108C157.761 126.652 158.619 126.424 159.603 126.424C160.587 126.424 161.433 126.652 162.141 127.108C162.861 127.552 163.419 128.14 163.815 128.872C164.211 129.604 164.409 130.39 164.409 131.23C164.409 131.374 164.403 131.512 164.391 131.644C164.379 131.764 164.367 131.866 164.355 131.95H156.813C156.849 132.502 156.999 132.988 157.263 133.408C157.539 133.816 157.887 134.14 158.307 134.38C158.727 134.608 159.177 134.722 159.657 134.722C160.185 134.722 160.683 134.59 161.151 134.326C161.631 134.062 161.955 133.714 162.123 133.282L163.815 133.768C163.611 134.224 163.299 134.638 162.879 135.01C162.471 135.37 161.985 135.658 161.421 135.874C160.857 136.078 160.245 136.18 159.585 136.18ZM156.759 130.636H162.447C162.411 130.096 162.255 129.622 161.979 129.214C161.715 128.794 161.373 128.47 160.953 128.242C160.545 128.002 160.089 127.882 159.585 127.882C159.093 127.882 158.637 128.002 158.217 128.242C157.809 128.47 157.473 128.794 157.209 129.214C156.945 129.622 156.795 130.096 156.759 130.636ZM174.466 136H172.486V130.726C172.486 129.85 172.342 129.208 172.054 128.8C171.778 128.392 171.364 128.188 170.812 128.188C170.428 128.188 170.044 128.284 169.66 128.476C169.288 128.668 168.952 128.932 168.652 129.268C168.352 129.592 168.136 129.97 168.004 130.402V136H166.024V126.586H167.824V128.476C168.064 128.056 168.376 127.696 168.76 127.396C169.156 127.084 169.6 126.844 170.092 126.676C170.584 126.508 171.106 126.424 171.658 126.424C172.222 126.424 172.684 126.526 173.044 126.73C173.416 126.934 173.704 127.216 173.908 127.576C174.124 127.924 174.268 128.332 174.34 128.8C174.424 129.256 174.466 129.742 174.466 130.258V136ZM181.932 135.514C181.764 135.598 181.554 135.688 181.302 135.784C181.05 135.88 180.762 135.964 180.438 136.036C180.126 136.108 179.802 136.144 179.466 136.144C179.058 136.144 178.68 136.072 178.332 135.928C177.984 135.784 177.702 135.556 177.486 135.244C177.282 134.92 177.18 134.506 177.18 134.002V128.116H175.938V126.586H177.18V123.49H179.16V126.586H181.212V128.116H179.16V133.372C179.184 133.696 179.286 133.936 179.466 134.092C179.658 134.248 179.892 134.326 180.168 134.326C180.444 134.326 180.708 134.278 180.96 134.182C181.212 134.086 181.398 134.008 181.518 133.948L181.932 135.514ZM182.619 133.246C182.619 132.646 182.787 132.124 183.123 131.68C183.471 131.224 183.945 130.876 184.545 130.636C185.145 130.384 185.841 130.258 186.633 130.258C187.053 130.258 187.479 130.288 187.911 130.348C188.355 130.408 188.745 130.504 189.081 130.636V130.042C189.081 129.382 188.883 128.866 188.487 128.494C188.091 128.122 187.521 127.936 186.777 127.936C186.249 127.936 185.751 128.032 185.283 128.224C184.815 128.404 184.317 128.662 183.789 128.998L183.123 127.666C183.747 127.246 184.371 126.934 184.995 126.73C185.631 126.526 186.297 126.424 186.993 126.424C188.253 126.424 189.243 126.76 189.963 127.432C190.695 128.092 191.061 129.034 191.061 130.258V133.768C191.061 133.996 191.097 134.158 191.169 134.254C191.253 134.35 191.391 134.404 191.583 134.416V136C191.403 136.036 191.241 136.06 191.097 136.072C190.953 136.084 190.833 136.09 190.737 136.09C190.317 136.09 189.999 135.988 189.783 135.784C189.567 135.58 189.441 135.34 189.405 135.064L189.351 134.524C188.943 135.052 188.421 135.46 187.785 135.748C187.149 136.036 186.507 136.18 185.859 136.18C185.235 136.18 184.677 136.054 184.185 135.802C183.693 135.538 183.309 135.184 183.033 134.74C182.757 134.296 182.619 133.798 182.619 133.246ZM188.613 133.822C188.757 133.666 188.871 133.51 188.955 133.354C189.039 133.198 189.081 133.06 189.081 132.94V131.86C188.745 131.728 188.391 131.632 188.019 131.572C187.647 131.5 187.281 131.464 186.921 131.464C186.201 131.464 185.613 131.608 185.157 131.896C184.713 132.184 184.491 132.58 184.491 133.084C184.491 133.36 184.563 133.624 184.707 133.876C184.863 134.128 185.079 134.332 185.355 134.488C185.643 134.644 185.997 134.722 186.417 134.722C186.849 134.722 187.263 134.638 187.659 134.47C188.055 134.302 188.373 134.086 188.613 133.822ZM198.631 135.514C198.463 135.598 198.253 135.688 198.001 135.784C197.749 135.88 197.461 135.964 197.137 136.036C196.825 136.108 196.501 136.144 196.165 136.144C195.757 136.144 195.379 136.072 195.031 135.928C194.683 135.784 194.401 135.556 194.185 135.244C193.981 134.92 193.879 134.506 193.879 134.002V128.116H192.637V126.586H193.879V123.49H195.859V126.586H197.911V128.116H195.859V133.372C195.883 133.696 195.985 133.936 196.165 134.092C196.357 134.248 196.591 134.326 196.867 134.326C197.143 134.326 197.407 134.278 197.659 134.182C197.911 134.086 198.097 134.008 198.217 133.948L198.631 135.514ZM200.002 136V126.586H201.982V136H200.002ZM200.002 125.038V122.86H201.982V125.038H200.002ZM208.592 136.18C207.848 136.18 207.182 136.054 206.594 135.802C206.006 135.538 205.496 135.178 205.064 134.722C204.644 134.266 204.32 133.75 204.092 133.174C203.864 132.586 203.75 131.962 203.75 131.302C203.75 130.642 203.864 130.018 204.092 129.43C204.32 128.842 204.644 128.326 205.064 127.882C205.496 127.426 206.006 127.072 206.594 126.82C207.194 126.556 207.86 126.424 208.592 126.424C209.324 126.424 209.984 126.556 210.572 126.82C211.172 127.072 211.682 127.426 212.102 127.882C212.534 128.326 212.864 128.842 213.092 129.43C213.32 130.018 213.434 130.642 213.434 131.302C213.434 131.962 213.32 132.586 213.092 133.174C212.864 133.75 212.534 134.266 212.102 134.722C211.682 135.178 211.172 135.538 210.572 135.802C209.984 136.054 209.324 136.18 208.592 136.18ZM205.784 131.32C205.784 131.92 205.91 132.46 206.162 132.94C206.414 133.42 206.75 133.798 207.17 134.074C207.59 134.35 208.064 134.488 208.592 134.488C209.108 134.488 209.576 134.35 209.996 134.074C210.428 133.786 210.77 133.402 211.022 132.922C211.274 132.43 211.4 131.89 211.4 131.302C211.4 130.702 211.274 130.162 211.022 129.682C210.77 129.202 210.428 128.824 209.996 128.548C209.576 128.26 209.108 128.116 208.592 128.116C208.064 128.116 207.59 128.26 207.17 128.548C206.75 128.836 206.414 129.22 206.162 129.7C205.91 130.168 205.784 130.708 205.784 131.32ZM223.632 136H221.652V130.726C221.652 129.85 221.508 129.208 221.22 128.8C220.944 128.392 220.53 128.188 219.978 128.188C219.594 128.188 219.21 128.284 218.826 128.476C218.454 128.668 218.118 128.932 217.818 129.268C217.518 129.592 217.302 129.97 217.17 130.402V136H215.19V126.586H216.99V128.476C217.23 128.056 217.542 127.696 217.926 127.396C218.322 127.084 218.766 126.844 219.258 126.676C219.75 126.508 220.272 126.424 220.824 126.424C221.388 126.424 221.85 126.526 222.21 126.73C222.582 126.934 222.87 127.216 223.074 127.576C223.29 127.924 223.434 128.332 223.506 128.8C223.59 129.256 223.632 129.742 223.632 130.258V136ZM239.463 125.002H235.215V136H233.181V125.002H228.915V123.22H239.463V125.002ZM240.035 138.214C240.215 138.238 240.389 138.262 240.557 138.286C240.737 138.322 240.881 138.34 240.989 138.34C241.193 138.34 241.367 138.274 241.511 138.142C241.667 138.022 241.823 137.794 241.979 137.458C242.135 137.122 242.327 136.636 242.555 136L238.685 126.586H240.755L243.635 133.984L246.191 126.586H248.099L243.833 138.178C243.701 138.526 243.509 138.844 243.257 139.132C243.005 139.432 242.693 139.666 242.321 139.834C241.949 140.002 241.511 140.086 241.007 140.086C240.863 140.086 240.713 140.074 240.557 140.05C240.401 140.026 240.227 139.99 240.035 139.942V138.214ZM254.901 136.18C254.145 136.18 253.479 136 252.903 135.64C252.327 135.28 251.871 134.812 251.535 134.236V139.834H249.555V126.586H251.301V128.278C251.661 127.714 252.129 127.264 252.705 126.928C253.281 126.592 253.923 126.424 254.631 126.424C255.279 126.424 255.873 126.556 256.413 126.82C256.953 127.072 257.421 127.426 257.817 127.882C258.213 128.338 258.519 128.86 258.735 129.448C258.963 130.024 259.077 130.636 259.077 131.284C259.077 132.184 258.897 133.006 258.537 133.75C258.189 134.494 257.697 135.088 257.061 135.532C256.437 135.964 255.717 136.18 254.901 136.18ZM254.253 134.488C254.673 134.488 255.051 134.398 255.387 134.218C255.735 134.038 256.029 133.798 256.269 133.498C256.521 133.198 256.713 132.856 256.845 132.472C256.977 132.088 257.043 131.692 257.043 131.284C257.043 130.852 256.971 130.444 256.827 130.06C256.683 129.676 256.473 129.34 256.197 129.052C255.933 128.764 255.621 128.536 255.261 128.368C254.913 128.2 254.529 128.116 254.109 128.116C253.857 128.116 253.593 128.164 253.317 128.26C253.041 128.356 252.783 128.488 252.543 128.656C252.303 128.824 252.093 129.022 251.913 129.25C251.733 129.478 251.607 129.718 251.535 129.97V132.436C251.703 132.82 251.925 133.168 252.201 133.48C252.477 133.78 252.795 134.026 253.155 134.218C253.515 134.398 253.881 134.488 254.253 134.488ZM265.124 136.18C264.392 136.18 263.726 136.054 263.126 135.802C262.538 135.538 262.028 135.184 261.596 134.74C261.164 134.284 260.828 133.768 260.588 133.192C260.36 132.604 260.246 131.98 260.246 131.32C260.246 130.432 260.45 129.622 260.858 128.89C261.266 128.146 261.836 127.552 262.568 127.108C263.3 126.652 264.158 126.424 265.142 126.424C266.126 126.424 266.972 126.652 267.68 127.108C268.4 127.552 268.958 128.14 269.354 128.872C269.75 129.604 269.948 130.39 269.948 131.23C269.948 131.374 269.942 131.512 269.93 131.644C269.918 131.764 269.906 131.866 269.894 131.95H262.352C262.388 132.502 262.538 132.988 262.802 133.408C263.078 133.816 263.426 134.14 263.846 134.38C264.266 134.608 264.716 134.722 265.196 134.722C265.724 134.722 266.222 134.59 266.69 134.326C267.17 134.062 267.494 133.714 267.662 133.282L269.354 133.768C269.15 134.224 268.838 134.638 268.418 135.01C268.01 135.37 267.524 135.658 266.96 135.874C266.396 136.078 265.784 136.18 265.124 136.18ZM262.298 130.636H267.986C267.95 130.096 267.794 129.622 267.518 129.214C267.254 128.794 266.912 128.47 266.492 128.242C266.084 128.002 265.628 127.882 265.124 127.882C264.632 127.882 264.176 128.002 263.756 128.242C263.348 128.47 263.012 128.794 262.748 129.214C262.484 129.622 262.334 130.096 262.298 130.636Z" fill="#232830"/>
<path d="M97.36 176V164.64H102.096C102.597 164.64 103.056 164.747 103.472 164.96C103.888 165.163 104.251 165.44 104.56 165.792C104.869 166.133 105.109 166.523 105.28 166.96C105.451 167.387 105.536 167.824 105.536 168.272C105.536 168.891 105.397 169.483 105.12 170.048C104.843 170.603 104.453 171.056 103.952 171.408C103.451 171.749 102.864 171.92 102.192 171.92H98.8V176H97.36ZM98.8 170.64H102.112C102.507 170.64 102.848 170.533 103.136 170.32C103.435 170.107 103.664 169.819 103.824 169.456C103.995 169.093 104.08 168.699 104.08 168.272C104.08 167.824 103.984 167.424 103.792 167.072C103.6 166.709 103.349 166.427 103.04 166.224C102.731 166.021 102.389 165.92 102.016 165.92H98.8V170.64ZM110.597 176.16C109.967 176.16 109.397 176.048 108.885 175.824C108.373 175.589 107.93 175.275 107.557 174.88C107.183 174.475 106.895 174.011 106.693 173.488C106.49 172.965 106.389 172.416 106.389 171.84C106.389 171.253 106.49 170.699 106.693 170.176C106.895 169.653 107.183 169.195 107.557 168.8C107.93 168.395 108.373 168.08 108.885 167.856C109.407 167.621 109.983 167.504 110.613 167.504C111.231 167.504 111.797 167.621 112.309 167.856C112.821 168.08 113.263 168.395 113.637 168.8C114.021 169.195 114.314 169.653 114.517 170.176C114.719 170.699 114.821 171.253 114.821 171.84C114.821 172.416 114.719 172.965 114.517 173.488C114.314 174.011 114.026 174.475 113.653 174.88C113.279 175.275 112.831 175.589 112.309 175.824C111.797 176.048 111.226 176.16 110.597 176.16ZM107.829 171.856C107.829 172.432 107.951 172.955 108.197 173.424C108.453 173.893 108.789 174.267 109.205 174.544C109.621 174.811 110.085 174.944 110.597 174.944C111.109 174.944 111.573 174.805 111.989 174.528C112.415 174.251 112.751 173.877 112.997 173.408C113.253 172.928 113.381 172.4 113.381 171.824C113.381 171.248 113.253 170.725 112.997 170.256C112.751 169.787 112.415 169.413 111.989 169.136C111.573 168.859 111.109 168.72 110.597 168.72C110.085 168.72 109.621 168.864 109.205 169.152C108.789 169.429 108.453 169.803 108.197 170.272C107.951 170.741 107.829 171.269 107.829 171.856ZM119.391 176.16C118.697 176.16 118.047 176.048 117.439 175.824C116.831 175.589 116.308 175.243 115.871 174.784L116.415 173.792C116.895 174.24 117.375 174.56 117.855 174.752C118.335 174.944 118.825 175.04 119.327 175.04C119.903 175.04 120.372 174.933 120.735 174.72C121.097 174.496 121.279 174.171 121.279 173.744C121.279 173.435 121.183 173.205 120.991 173.056C120.809 172.907 120.548 172.784 120.207 172.688C119.865 172.581 119.46 172.464 118.991 172.336C118.415 172.165 117.929 171.984 117.535 171.792C117.14 171.6 116.841 171.36 116.639 171.072C116.436 170.784 116.335 170.421 116.335 169.984C116.335 169.451 116.473 169.003 116.751 168.64C117.028 168.267 117.407 167.984 117.887 167.792C118.377 167.6 118.932 167.504 119.551 167.504C120.169 167.504 120.729 167.6 121.231 167.792C121.732 167.984 122.164 168.267 122.527 168.64L121.887 169.616C121.556 169.275 121.193 169.024 120.799 168.864C120.404 168.693 119.961 168.608 119.471 168.608C119.183 168.608 118.9 168.645 118.623 168.72C118.345 168.784 118.116 168.907 117.935 169.088C117.753 169.259 117.663 169.504 117.663 169.824C117.663 170.091 117.732 170.304 117.871 170.464C118.02 170.613 118.233 170.741 118.511 170.848C118.799 170.955 119.145 171.072 119.551 171.2C120.18 171.381 120.724 171.563 121.183 171.744C121.652 171.925 122.015 172.16 122.271 172.448C122.527 172.736 122.655 173.136 122.655 173.648C122.655 174.437 122.356 175.056 121.759 175.504C121.161 175.941 120.372 176.16 119.391 176.16ZM128.659 175.584C128.542 175.637 128.382 175.707 128.179 175.792C127.976 175.877 127.742 175.952 127.475 176.016C127.208 176.08 126.926 176.112 126.627 176.112C126.286 176.112 125.971 176.053 125.683 175.936C125.395 175.808 125.166 175.616 124.995 175.36C124.824 175.093 124.739 174.763 124.739 174.368V168.752H123.603V167.648H124.739V164.864H126.147V167.648H128.019V168.752H126.147V173.936C126.168 174.235 126.27 174.459 126.451 174.608C126.632 174.747 126.846 174.816 127.091 174.816C127.368 174.816 127.624 174.768 127.859 174.672C128.094 174.576 128.248 174.507 128.323 174.464L128.659 175.584ZM142.556 176H141.148V171.328C141.148 170.453 141.004 169.808 140.716 169.392C140.439 168.976 140.023 168.768 139.468 168.768C138.903 168.768 138.391 168.976 137.932 169.392C137.473 169.797 137.148 170.325 136.956 170.976V176H135.548V171.328C135.548 170.443 135.409 169.797 135.132 169.392C134.855 168.976 134.439 168.768 133.884 168.768C133.329 168.768 132.817 168.971 132.348 169.376C131.889 169.771 131.564 170.299 131.372 170.96V176H129.964V167.648H131.244V169.44C131.585 168.821 132.028 168.347 132.572 168.016C133.116 167.675 133.729 167.504 134.412 167.504C135.105 167.504 135.66 167.696 136.076 168.08C136.492 168.453 136.748 168.939 136.844 169.536C137.217 168.875 137.671 168.373 138.204 168.032C138.737 167.68 139.345 167.504 140.028 167.504C140.508 167.504 140.908 167.595 141.228 167.776C141.559 167.947 141.82 168.192 142.012 168.512C142.204 168.821 142.343 169.189 142.428 169.616C142.513 170.043 142.556 170.507 142.556 171.008V176ZM144.089 173.584C144.089 173.051 144.239 172.592 144.537 172.208C144.847 171.813 145.268 171.509 145.801 171.296C146.335 171.083 146.953 170.976 147.657 170.976C148.031 170.976 148.425 171.008 148.841 171.072C149.257 171.125 149.625 171.211 149.945 171.328V170.72C149.945 170.08 149.753 169.579 149.369 169.216C148.985 168.843 148.441 168.656 147.737 168.656C147.279 168.656 146.836 168.741 146.409 168.912C145.993 169.072 145.551 169.307 145.081 169.616L144.569 168.624C145.113 168.251 145.657 167.973 146.201 167.792C146.745 167.6 147.311 167.504 147.897 167.504C148.964 167.504 149.807 167.803 150.425 168.4C151.044 168.987 151.353 169.808 151.353 170.864V174.4C151.353 174.571 151.385 174.699 151.449 174.784C151.524 174.859 151.641 174.901 151.801 174.912V176C151.663 176.021 151.54 176.037 151.433 176.048C151.337 176.059 151.257 176.064 151.193 176.064C150.863 176.064 150.612 175.973 150.441 175.792C150.281 175.611 150.191 175.419 150.169 175.216L150.137 174.688C149.775 175.157 149.3 175.52 148.713 175.776C148.127 176.032 147.545 176.16 146.969 176.16C146.415 176.16 145.919 176.048 145.481 175.824C145.044 175.589 144.703 175.28 144.457 174.896C144.212 174.501 144.089 174.064 144.089 173.584ZM149.529 174.176C149.657 174.027 149.759 173.877 149.833 173.728C149.908 173.568 149.945 173.435 149.945 173.328V172.288C149.615 172.16 149.268 172.064 148.905 172C148.543 171.925 148.185 171.888 147.833 171.888C147.119 171.888 146.537 172.032 146.089 172.32C145.652 172.597 145.433 172.981 145.433 173.472C145.433 173.739 145.503 174 145.641 174.256C145.791 174.501 146.004 174.704 146.281 174.864C146.569 175.024 146.921 175.104 147.337 175.104C147.775 175.104 148.191 175.019 148.585 174.848C148.98 174.667 149.295 174.443 149.529 174.176ZM160.853 176H159.445V171.328C159.445 170.443 159.306 169.797 159.029 169.392C158.762 168.976 158.351 168.768 157.797 168.768C157.413 168.768 157.029 168.864 156.645 169.056C156.271 169.248 155.935 169.509 155.637 169.84C155.349 170.16 155.141 170.533 155.013 170.96V176H153.605V167.648H154.885V169.44C155.109 169.045 155.397 168.704 155.749 168.416C156.101 168.128 156.501 167.904 156.949 167.744C157.397 167.584 157.866 167.504 158.357 167.504C158.837 167.504 159.237 167.595 159.557 167.776C159.887 167.947 160.143 168.192 160.325 168.512C160.517 168.821 160.65 169.189 160.725 169.616C160.81 170.043 160.853 170.507 160.853 171.008V176ZM169.052 176L165.772 167.648H167.244L169.868 174.656L172.492 167.648H173.868L170.588 176H169.052ZM174.829 176C174.829 175.573 174.861 175.173 174.925 174.8C174.999 174.427 175.127 174.069 175.309 173.728C175.501 173.387 175.767 173.061 176.109 172.752C176.45 172.432 176.893 172.123 177.437 171.824C177.757 171.643 178.077 171.472 178.397 171.312C178.727 171.152 179.031 170.981 179.309 170.8C179.597 170.619 179.826 170.421 179.997 170.208C180.167 169.984 180.253 169.728 180.253 169.44C180.253 169.195 180.178 168.96 180.029 168.736C179.89 168.501 179.677 168.315 179.389 168.176C179.111 168.027 178.765 167.952 178.349 167.952C178.029 167.952 177.735 167.995 177.469 168.08C177.213 168.165 176.978 168.277 176.765 168.416C176.562 168.544 176.381 168.683 176.221 168.832C176.071 168.971 175.943 169.099 175.837 169.216L174.957 168.224C175.042 168.128 175.186 168 175.389 167.84C175.591 167.669 175.847 167.499 176.157 167.328C176.466 167.157 176.823 167.013 177.229 166.896C177.645 166.768 178.098 166.704 178.589 166.704C179.25 166.704 179.815 166.821 180.285 167.056C180.765 167.28 181.133 167.589 181.389 167.984C181.645 168.368 181.773 168.8 181.773 169.28C181.773 169.696 181.682 170.059 181.501 170.368C181.33 170.677 181.106 170.949 180.829 171.184C180.562 171.419 180.279 171.621 179.981 171.792C179.693 171.952 179.431 172.091 179.197 172.208C178.717 172.443 178.306 172.656 177.965 172.848C177.623 173.04 177.341 173.232 177.117 173.424C176.903 173.605 176.727 173.797 176.589 174C176.461 174.203 176.365 174.443 176.301 174.72H181.949V176H174.829ZM183.727 176V174.208H184.911V176H183.727ZM192.754 174.72V176H187.01V174.72H189.282V168.48C189.186 168.608 189.036 168.747 188.834 168.896C188.631 169.035 188.402 169.168 188.146 169.296C187.89 169.424 187.634 169.531 187.378 169.616C187.122 169.691 186.887 169.728 186.674 169.728V168.384C186.908 168.384 187.164 168.32 187.442 168.192C187.73 168.053 188.007 167.893 188.274 167.712C188.54 167.531 188.764 167.36 188.946 167.2C189.138 167.04 189.25 166.928 189.282 166.864H190.722V174.72H192.754Z" fill="#232830"/>
<path d="M97.36 212V200.64H102.096C102.597 200.64 103.056 200.747 103.472 200.96C103.888 201.163 104.251 201.44 104.56 201.792C104.869 202.133 105.109 202.523 105.28 202.96C105.451 203.387 105.536 203.824 105.536 204.272C105.536 204.891 105.397 205.483 105.12 206.048C104.843 206.603 104.453 207.056 103.952 207.408C103.451 207.749 102.864 207.92 102.192 207.92H98.8V212H97.36ZM98.8 206.64H102.112C102.507 206.64 102.848 206.533 103.136 206.32C103.435 206.107 103.664 205.819 103.824 205.456C103.995 205.093 104.08 204.699 104.08 204.272C104.08 203.824 103.984 203.424 103.792 203.072C103.6 202.709 103.349 202.427 103.04 202.224C102.731 202.021 102.389 201.92 102.016 201.92H98.8V206.64ZM110.597 212.16C109.967 212.16 109.397 212.048 108.885 211.824C108.373 211.589 107.93 211.275 107.557 210.88C107.183 210.475 106.895 210.011 106.693 209.488C106.49 208.965 106.389 208.416 106.389 207.84C106.389 207.253 106.49 206.699 106.693 206.176C106.895 205.653 107.183 205.195 107.557 204.8C107.93 204.395 108.373 204.08 108.885 203.856C109.407 203.621 109.983 203.504 110.613 203.504C111.231 203.504 111.797 203.621 112.309 203.856C112.821 204.08 113.263 204.395 113.637 204.8C114.021 205.195 114.314 205.653 114.517 206.176C114.719 206.699 114.821 207.253 114.821 207.84C114.821 208.416 114.719 208.965 114.517 209.488C114.314 210.011 114.026 210.475 113.653 210.88C113.279 211.275 112.831 211.589 112.309 211.824C111.797 212.048 111.226 212.16 110.597 212.16ZM107.829 207.856C107.829 208.432 107.951 208.955 108.197 209.424C108.453 209.893 108.789 210.267 109.205 210.544C109.621 210.811 110.085 210.944 110.597 210.944C111.109 210.944 111.573 210.805 111.989 210.528C112.415 210.251 112.751 209.877 112.997 209.408C113.253 208.928 113.381 208.4 113.381 207.824C113.381 207.248 113.253 206.725 112.997 206.256C112.751 205.787 112.415 205.413 111.989 205.136C111.573 204.859 111.109 204.72 110.597 204.72C110.085 204.72 109.621 204.864 109.205 205.152C108.789 205.429 108.453 205.803 108.197 206.272C107.951 206.741 107.829 207.269 107.829 207.856ZM119.391 212.16C118.697 212.16 118.047 212.048 117.439 211.824C116.831 211.589 116.308 211.243 115.871 210.784L116.415 209.792C116.895 210.24 117.375 210.56 117.855 210.752C118.335 210.944 118.825 211.04 119.327 211.04C119.903 211.04 120.372 210.933 120.735 210.72C121.097 210.496 121.279 210.171 121.279 209.744C121.279 209.435 121.183 209.205 120.991 209.056C120.809 208.907 120.548 208.784 120.207 208.688C119.865 208.581 119.46 208.464 118.991 208.336C118.415 208.165 117.929 207.984 117.535 207.792C117.14 207.6 116.841 207.36 116.639 207.072C116.436 206.784 116.335 206.421 116.335 205.984C116.335 205.451 116.473 205.003 116.751 204.64C117.028 204.267 117.407 203.984 117.887 203.792C118.377 203.6 118.932 203.504 119.551 203.504C120.169 203.504 120.729 203.6 121.231 203.792C121.732 203.984 122.164 204.267 122.527 204.64L121.887 205.616C121.556 205.275 121.193 205.024 120.799 204.864C120.404 204.693 119.961 204.608 119.471 204.608C119.183 204.608 118.9 204.645 118.623 204.72C118.345 204.784 118.116 204.907 117.935 205.088C117.753 205.259 117.663 205.504 117.663 205.824C117.663 206.091 117.732 206.304 117.871 206.464C118.02 206.613 118.233 206.741 118.511 206.848C118.799 206.955 119.145 207.072 119.551 207.2C120.18 207.381 120.724 207.563 121.183 207.744C121.652 207.925 122.015 208.16 122.271 208.448C122.527 208.736 122.655 209.136 122.655 209.648C122.655 210.437 122.356 211.056 121.759 211.504C121.161 211.941 120.372 212.16 119.391 212.16ZM128.659 211.584C128.542 211.637 128.382 211.707 128.179 211.792C127.976 211.877 127.742 211.952 127.475 212.016C127.208 212.08 126.926 212.112 126.627 212.112C126.286 212.112 125.971 212.053 125.683 211.936C125.395 211.808 125.166 211.616 124.995 211.36C124.824 211.093 124.739 210.763 124.739 210.368V204.752H123.603V203.648H124.739V200.864H126.147V203.648H128.019V204.752H126.147V209.936C126.168 210.235 126.27 210.459 126.451 210.608C126.632 210.747 126.846 210.816 127.091 210.816C127.368 210.816 127.624 210.768 127.859 210.672C128.094 210.576 128.248 210.507 128.323 210.464L128.659 211.584ZM142.556 212H141.148V207.328C141.148 206.453 141.004 205.808 140.716 205.392C140.439 204.976 140.023 204.768 139.468 204.768C138.903 204.768 138.391 204.976 137.932 205.392C137.473 205.797 137.148 206.325 136.956 206.976V212H135.548V207.328C135.548 206.443 135.409 205.797 135.132 205.392C134.855 204.976 134.439 204.768 133.884 204.768C133.329 204.768 132.817 204.971 132.348 205.376C131.889 205.771 131.564 206.299 131.372 206.96V212H129.964V203.648H131.244V205.44C131.585 204.821 132.028 204.347 132.572 204.016C133.116 203.675 133.729 203.504 134.412 203.504C135.105 203.504 135.66 203.696 136.076 204.08C136.492 204.453 136.748 204.939 136.844 205.536C137.217 204.875 137.671 204.373 138.204 204.032C138.737 203.68 139.345 203.504 140.028 203.504C140.508 203.504 140.908 203.595 141.228 203.776C141.559 203.947 141.82 204.192 142.012 204.512C142.204 204.821 142.343 205.189 142.428 205.616C142.513 206.043 142.556 206.507 142.556 207.008V212ZM144.089 209.584C144.089 209.051 144.239 208.592 144.537 208.208C144.847 207.813 145.268 207.509 145.801 207.296C146.335 207.083 146.953 206.976 147.657 206.976C148.031 206.976 148.425 207.008 148.841 207.072C149.257 207.125 149.625 207.211 149.945 207.328V206.72C149.945 206.08 149.753 205.579 149.369 205.216C148.985 204.843 148.441 204.656 147.737 204.656C147.279 204.656 146.836 204.741 146.409 204.912C145.993 205.072 145.551 205.307 145.081 205.616L144.569 204.624C145.113 204.251 145.657 203.973 146.201 203.792C146.745 203.6 147.311 203.504 147.897 203.504C148.964 203.504 149.807 203.803 150.425 204.4C151.044 204.987 151.353 205.808 151.353 206.864V210.4C151.353 210.571 151.385 210.699 151.449 210.784C151.524 210.859 151.641 210.901 151.801 210.912V212C151.663 212.021 151.54 212.037 151.433 212.048C151.337 212.059 151.257 212.064 151.193 212.064C150.863 212.064 150.612 211.973 150.441 211.792C150.281 211.611 150.191 211.419 150.169 211.216L150.137 210.688C149.775 211.157 149.3 211.52 148.713 211.776C148.127 212.032 147.545 212.16 146.969 212.16C146.415 212.16 145.919 212.048 145.481 211.824C145.044 211.589 144.703 211.28 144.457 210.896C144.212 210.501 144.089 210.064 144.089 209.584ZM149.529 210.176C149.657 210.027 149.759 209.877 149.833 209.728C149.908 209.568 149.945 209.435 149.945 209.328V208.288C149.615 208.16 149.268 208.064 148.905 208C148.543 207.925 148.185 207.888 147.833 207.888C147.119 207.888 146.537 208.032 146.089 208.32C145.652 208.597 145.433 208.981 145.433 209.472C145.433 209.739 145.503 210 145.641 210.256C145.791 210.501 146.004 210.704 146.281 210.864C146.569 211.024 146.921 211.104 147.337 211.104C147.775 211.104 148.191 211.019 148.585 210.848C148.98 210.667 149.295 210.443 149.529 210.176ZM160.853 212H159.445V207.328C159.445 206.443 159.306 205.797 159.029 205.392C158.762 204.976 158.351 204.768 157.797 204.768C157.413 204.768 157.029 204.864 156.645 205.056C156.271 205.248 155.935 205.509 155.637 205.84C155.349 206.16 155.141 206.533 155.013 206.96V212H153.605V203.648H154.885V205.44C155.109 205.045 155.397 204.704 155.749 204.416C156.101 204.128 156.501 203.904 156.949 203.744C157.397 203.584 157.866 203.504 158.357 203.504C158.837 203.504 159.237 203.595 159.557 203.776C159.887 203.947 160.143 204.192 160.325 204.512C160.517 204.821 160.65 205.189 160.725 205.616C160.81 206.043 160.853 206.507 160.853 207.008V212ZM169.052 212L165.772 203.648H167.244L169.868 210.656L172.492 203.648H173.868L170.588 212H169.052ZM174.829 212C174.829 211.573 174.861 211.173 174.925 210.8C174.999 210.427 175.127 210.069 175.309 209.728C175.501 209.387 175.767 209.061 176.109 208.752C176.45 208.432 176.893 208.123 177.437 207.824C177.757 207.643 178.077 207.472 178.397 207.312C178.727 207.152 179.031 206.981 179.309 206.8C179.597 206.619 179.826 206.421 179.997 206.208C180.167 205.984 180.253 205.728 180.253 205.44C180.253 205.195 180.178 204.96 180.029 204.736C179.89 204.501 179.677 204.315 179.389 204.176C179.111 204.027 178.765 203.952 178.349 203.952C178.029 203.952 177.735 203.995 177.469 204.08C177.213 204.165 176.978 204.277 176.765 204.416C176.562 204.544 176.381 204.683 176.221 204.832C176.071 204.971 175.943 205.099 175.837 205.216L174.957 204.224C175.042 204.128 175.186 204 175.389 203.84C175.591 203.669 175.847 203.499 176.157 203.328C176.466 203.157 176.823 203.013 177.229 202.896C177.645 202.768 178.098 202.704 178.589 202.704C179.25 202.704 179.815 202.821 180.285 203.056C180.765 203.28 181.133 203.589 181.389 203.984C181.645 204.368 181.773 204.8 181.773 205.28C181.773 205.696 181.682 206.059 181.501 206.368C181.33 206.677 181.106 206.949 180.829 207.184C180.562 207.419 180.279 207.621 179.981 207.792C179.693 207.952 179.431 208.091 179.197 208.208C178.717 208.443 178.306 208.656 177.965 208.848C177.623 209.04 177.341 209.232 177.117 209.424C176.903 209.605 176.727 209.797 176.589 210C176.461 210.203 176.365 210.443 176.301 210.72H181.949V212H174.829ZM183.727 212V210.208H184.911V212H183.727ZM194.898 207.312C194.898 208.251 194.722 209.088 194.37 209.824C194.018 210.549 193.538 211.12 192.93 211.536C192.322 211.952 191.628 212.16 190.85 212.16C190.071 212.16 189.378 211.952 188.77 211.536C188.162 211.12 187.682 210.549 187.33 209.824C186.978 209.088 186.802 208.251 186.802 207.312C186.802 206.373 186.978 205.541 187.33 204.816C187.682 204.08 188.162 203.504 188.77 203.088C189.378 202.661 190.071 202.448 190.85 202.448C191.628 202.448 192.322 202.661 192.93 203.088C193.538 203.504 194.018 204.08 194.37 204.816C194.722 205.541 194.898 206.373 194.898 207.312ZM193.474 207.312C193.474 206.608 193.362 205.989 193.138 205.456C192.914 204.923 192.604 204.507 192.21 204.208C191.815 203.909 191.362 203.76 190.85 203.76C190.327 203.76 189.868 203.909 189.474 204.208C189.079 204.507 188.77 204.923 188.546 205.456C188.322 205.989 188.21 206.608 188.21 207.312C188.21 208.016 188.322 208.635 188.546 209.168C188.77 209.691 189.079 210.101 189.474 210.4C189.868 210.699 190.327 210.848 190.85 210.848C191.362 210.848 191.815 210.699 192.21 210.4C192.604 210.101 192.914 209.691 193.138 209.168C193.362 208.635 193.474 208.016 193.474 207.312Z" fill="#8F92A1"/>
<path d="M101.968 248.08C101.168 248.08 100.443 247.92 99.792 247.6C99.1413 247.28 98.576 246.848 98.096 246.304C97.6267 245.749 97.264 245.131 97.008 244.448C96.752 243.755 96.624 243.045 96.624 242.32C96.624 241.563 96.7573 240.843 97.024 240.16C97.3013 239.467 97.68 238.853 98.16 238.32C98.6507 237.776 99.2213 237.349 99.872 237.04C100.523 236.72 101.232 236.56 102 236.56C102.8 236.56 103.525 236.725 104.176 237.056C104.827 237.387 105.387 237.829 105.856 238.384C106.325 238.939 106.688 239.557 106.944 240.24C107.2 240.923 107.328 241.621 107.328 242.336C107.328 243.093 107.195 243.819 106.928 244.512C106.661 245.195 106.283 245.808 105.792 246.352C105.312 246.885 104.747 247.307 104.096 247.616C103.445 247.925 102.736 248.08 101.968 248.08ZM98.08 242.32C98.08 242.896 98.1707 243.456 98.352 244C98.544 244.533 98.8107 245.008 99.152 245.424C99.4933 245.84 99.904 246.171 100.384 246.416C100.864 246.661 101.397 246.784 101.984 246.784C102.592 246.784 103.136 246.656 103.616 246.4C104.096 246.144 104.501 245.803 104.832 245.376C105.173 244.949 105.429 244.469 105.6 243.936C105.781 243.403 105.872 242.864 105.872 242.32C105.872 241.744 105.776 241.189 105.584 240.656C105.403 240.123 105.136 239.648 104.784 239.232C104.443 238.805 104.032 238.475 103.552 238.24C103.083 237.995 102.56 237.872 101.984 237.872C101.376 237.872 100.832 238 100.352 238.256C99.872 238.501 99.4613 238.837 99.12 239.264C98.7893 239.691 98.5333 240.171 98.352 240.704C98.1707 241.227 98.08 241.765 98.08 242.32ZM113.523 248.16C112.84 248.16 112.232 247.989 111.699 247.648C111.165 247.307 110.744 246.875 110.435 246.352V251.408H109.027V239.648H110.275V241.216C110.605 240.704 111.037 240.293 111.571 239.984C112.104 239.664 112.685 239.504 113.315 239.504C113.891 239.504 114.419 239.621 114.899 239.856C115.379 240.091 115.795 240.411 116.147 240.816C116.499 241.221 116.771 241.685 116.963 242.208C117.165 242.72 117.267 243.259 117.267 243.824C117.267 244.613 117.107 245.339 116.787 246C116.477 246.661 116.04 247.189 115.475 247.584C114.909 247.968 114.259 248.16 113.523 248.16ZM113.091 246.944C113.507 246.944 113.88 246.859 114.211 246.688C114.552 246.507 114.84 246.272 115.075 245.984C115.32 245.685 115.507 245.349 115.635 244.976C115.763 244.603 115.827 244.219 115.827 243.824C115.827 243.408 115.752 243.013 115.603 242.64C115.464 242.267 115.261 241.936 114.995 241.648C114.739 241.36 114.435 241.136 114.083 240.976C113.741 240.805 113.368 240.72 112.963 240.72C112.707 240.72 112.44 240.768 112.163 240.864C111.896 240.96 111.64 241.099 111.395 241.28C111.149 241.451 110.941 241.648 110.771 241.872C110.6 242.096 110.488 242.336 110.435 242.592V244.976C110.595 245.339 110.808 245.669 111.075 245.968C111.341 246.267 111.651 246.507 112.003 246.688C112.355 246.859 112.717 246.944 113.091 246.944ZM122.691 248.16C122.062 248.16 121.486 248.048 120.963 247.824C120.451 247.589 120.003 247.275 119.619 246.88C119.246 246.475 118.953 246.011 118.739 245.488C118.537 244.965 118.435 244.411 118.435 243.824C118.435 243.035 118.617 242.315 118.979 241.664C119.342 241.013 119.843 240.491 120.483 240.096C121.134 239.701 121.875 239.504 122.707 239.504C123.55 239.504 124.281 239.707 124.899 240.112C125.529 240.507 126.014 241.029 126.355 241.68C126.707 242.32 126.883 243.013 126.883 243.76C126.883 243.867 126.878 243.973 126.867 244.08C126.867 244.176 126.862 244.251 126.851 244.304H119.923C119.966 244.848 120.115 245.333 120.371 245.76C120.638 246.176 120.979 246.507 121.395 246.752C121.811 246.987 122.259 247.104 122.739 247.104C123.251 247.104 123.731 246.976 124.179 246.72C124.638 246.464 124.953 246.128 125.123 245.712L126.339 246.048C126.158 246.453 125.886 246.816 125.523 247.136C125.171 247.456 124.75 247.707 124.259 247.888C123.779 248.069 123.257 248.16 122.691 248.16ZM119.875 243.328H125.571C125.529 242.784 125.374 242.304 125.107 241.888C124.841 241.472 124.499 241.147 124.083 240.912C123.667 240.677 123.209 240.56 122.707 240.56C122.217 240.56 121.763 240.677 121.347 240.912C120.931 241.147 120.59 241.472 120.323 241.888C120.067 242.304 119.918 242.784 119.875 243.328ZM135.697 248H134.289V243.328C134.289 242.443 134.15 241.797 133.873 241.392C133.606 240.976 133.195 240.768 132.641 240.768C132.257 240.768 131.873 240.864 131.489 241.056C131.115 241.248 130.779 241.509 130.481 241.84C130.193 242.16 129.985 242.533 129.857 242.96V248H128.449V239.648H129.729V241.44C129.953 241.045 130.241 240.704 130.593 240.416C130.945 240.128 131.345 239.904 131.793 239.744C132.241 239.584 132.71 239.504 133.201 239.504C133.681 239.504 134.081 239.595 134.401 239.776C134.731 239.947 134.987 240.192 135.169 240.512C135.361 240.821 135.494 241.189 135.569 241.616C135.654 242.043 135.697 242.507 135.697 243.008V248ZM141.566 236.64H142.782L147.422 248H145.886L144.542 244.672H139.774L138.446 248H136.91L141.566 236.64ZM144.222 243.552L142.174 238.304L140.062 243.552H144.222ZM153.21 248.16C152.527 248.16 151.919 247.989 151.386 247.648C150.853 247.307 150.431 246.875 150.122 246.352V251.408H148.714V239.648H149.962V241.216C150.293 240.704 150.725 240.293 151.258 239.984C151.791 239.664 152.373 239.504 153.002 239.504C153.578 239.504 154.106 239.621 154.586 239.856C155.066 240.091 155.482 240.411 155.834 240.816C156.186 241.221 156.458 241.685 156.65 242.208C156.853 242.72 156.954 243.259 156.954 243.824C156.954 244.613 156.794 245.339 156.474 246C156.165 246.661 155.727 247.189 155.162 247.584C154.597 247.968 153.946 248.16 153.21 248.16ZM152.778 246.944C153.194 246.944 153.567 246.859 153.898 246.688C154.239 246.507 154.527 246.272 154.762 245.984C155.007 245.685 155.194 245.349 155.322 244.976C155.45 244.603 155.514 244.219 155.514 243.824C155.514 243.408 155.439 243.013 155.29 242.64C155.151 242.267 154.949 241.936 154.682 241.648C154.426 241.36 154.122 241.136 153.77 240.976C153.429 240.805 153.055 240.72 152.65 240.72C152.394 240.72 152.127 240.768 151.85 240.864C151.583 240.96 151.327 241.099 151.082 241.28C150.837 241.451 150.629 241.648 150.458 241.872C150.287 242.096 150.175 242.336 150.122 242.592V244.976C150.282 245.339 150.495 245.669 150.762 245.968C151.029 246.267 151.338 246.507 151.69 246.688C152.042 246.859 152.405 246.944 152.778 246.944ZM158.683 248V239.648H160.091V248H158.683ZM158.683 238.08V236.32H160.091V238.08H158.683ZM171.009 244.224C171.468 244.299 171.863 244.469 172.193 244.736C172.524 244.992 172.78 245.323 172.961 245.728C173.143 246.123 173.233 246.571 173.233 247.072C173.233 247.723 173.073 248.293 172.753 248.784C172.444 249.285 172.001 249.669 171.425 249.936C170.849 250.213 170.177 250.352 169.409 250.352C168.599 250.352 167.884 250.197 167.265 249.888C166.657 249.589 166.183 249.163 165.841 248.608L166.785 247.664C167.031 248.091 167.361 248.432 167.777 248.688C168.204 248.944 168.748 249.072 169.409 249.072C170.145 249.072 170.721 248.901 171.137 248.56C171.564 248.229 171.777 247.733 171.777 247.072C171.777 246.4 171.548 245.867 171.089 245.472C170.641 245.067 169.985 244.864 169.121 244.864H168.705V243.68H169.153C169.921 243.68 170.508 243.493 170.913 243.12C171.329 242.747 171.537 242.283 171.537 241.728C171.537 241.344 171.447 241.029 171.265 240.784C171.084 240.539 170.839 240.357 170.529 240.24C170.22 240.112 169.863 240.048 169.457 240.048C168.871 240.048 168.353 240.176 167.905 240.432C167.468 240.677 167.127 241.024 166.881 241.472L166.017 240.576C166.209 240.213 166.481 239.899 166.833 239.632C167.196 239.365 167.612 239.157 168.081 239.008C168.561 238.859 169.068 238.784 169.601 238.784C170.273 238.784 170.865 238.901 171.377 239.136C171.9 239.371 172.305 239.701 172.593 240.128C172.881 240.555 173.025 241.056 173.025 241.632C173.025 242.048 172.945 242.443 172.785 242.816C172.625 243.179 172.391 243.488 172.081 243.744C171.783 243.989 171.425 244.149 171.009 244.224ZM174.946 248V246.208H176.13V248H174.946ZM186.116 243.312C186.116 244.251 185.94 245.088 185.588 245.824C185.236 246.549 184.756 247.12 184.148 247.536C183.54 247.952 182.847 248.16 182.068 248.16C181.29 248.16 180.596 247.952 179.988 247.536C179.38 247.12 178.9 246.549 178.548 245.824C178.196 245.088 178.02 244.251 178.02 243.312C178.02 242.373 178.196 241.541 178.548 240.816C178.9 240.08 179.38 239.504 179.988 239.088C180.596 238.661 181.29 238.448 182.068 238.448C182.847 238.448 183.54 238.661 184.148 239.088C184.756 239.504 185.236 240.08 185.588 240.816C185.94 241.541 186.116 242.373 186.116 243.312ZM184.692 243.312C184.692 242.608 184.58 241.989 184.356 241.456C184.132 240.923 183.823 240.507 183.428 240.208C183.034 239.909 182.58 239.76 182.068 239.76C181.546 239.76 181.087 239.909 180.692 240.208C180.298 240.507 179.988 240.923 179.764 241.456C179.54 241.989 179.428 242.608 179.428 243.312C179.428 244.016 179.54 244.635 179.764 245.168C179.988 245.691 180.298 246.101 180.692 246.4C181.087 246.699 181.546 246.848 182.068 246.848C182.58 246.848 183.034 246.699 183.428 246.4C183.823 246.101 184.132 245.691 184.356 245.168C184.58 244.635 184.692 244.016 184.692 243.312Z" fill="#8F92A1"/>
<circle cx="70" cy="170" r="7.5" stroke="#0846A6"/>
<circle cx="70" cy="170" r="3" stroke="#0846A6" stroke-width="4"/>
<circle cx="70" cy="206" r="7.5" stroke="#8F92A1"/>
<circle cx="70" cy="242" r="7.5" stroke="#8F92A1"/>
<g filter="url(#filter1_d_8739_21563)">
<path fill-rule="evenodd" clip-rule="evenodd" d="M75.0812 172.391L83.0743 191.39C83.4183 192.207 84.5775 192.205 84.919 191.387L86.7513 186.994L90.8787 191.121C92.0503 192.293 93.9498 192.293 95.1214 191.121C96.2929 189.95 96.2929 188.05 95.1214 186.879L90.9939 182.751L95.3868 180.919C96.2055 180.577 96.2073 179.418 95.3897 179.074L76.3907 171.081C75.5646 170.733 74.7336 171.564 75.0812 172.391Z" fill="#12131A"/>
</g>
<path fill-rule="evenodd" clip-rule="evenodd" d="M86.0546 183.469L92.2929 189.707C92.6835 190.098 93.3166 190.098 93.7072 189.707C94.0977 189.317 94.0977 188.683 93.7072 188.293L87.4688 182.055L92.4137 179.992L77.8757 173.876L83.9921 188.414L86.0546 183.469ZM95.3868 180.919C96.2055 180.577 96.2073 179.418 95.3897 179.074L76.3907 171.081C75.5646 170.733 74.7336 171.564 75.0812 172.391L83.0743 191.39C83.4183 192.207 84.5775 192.205 84.919 191.387L86.7513 186.994L90.8787 191.121C92.0503 192.293 93.9498 192.293 95.1214 191.121C96.2929 189.95 96.2929 188.05 95.1214 186.879L90.9939 182.751L95.3868 180.919Z" fill="white"/>
<defs>
<filter id="filter0_f_8739_21563" x="0.733334" y="0.733334" width="564.533" height="315.533" filterUnits="userSpaceOnUse" color-interpolation-filters="sRGB">
<feFlood flood-opacity="0" result="BackgroundImageFix"/>
<feBlend mode="normal" in="SourceGraphic" in2="BackgroundImageFix" result="shape"/>
<feGaussianBlur stdDeviation="16.1333" result="effect1_foregroundBlur_8739_21563"/>
</filter>
<filter id="filter1_d_8739_21563" x="72" y="169.5" width="27.002" height="27.002" filterUnits="userSpaceOnUse" color-interpolation-filters="sRGB">
<feFlood flood-opacity="0" result="BackgroundImageFix"/>
<feColorMatrix in="SourceAlpha" type="matrix" values="0 0 0 0 0 0 0 0 0 0 0 0 0 0 0 0 0 0 127 0" result="hardAlpha"/>
<feOffset dy="1.5"/>
<feGaussianBlur stdDeviation="1.5"/>
<feComposite in2="hardAlpha" operator="out"/>
<feColorMatrix type="matrix" values="0 0 0 0 0.0705882 0 0 0 0 0.0745098 0 0 0 0 0.101961 0 0 0 0.25 0"/>
<feBlend mode="normal" in2="BackgroundImageFix" result="effect1_dropShadow_8739_21563"/>
<feBlend mode="normal" in="SourceGraphic" in2="effect1_dropShadow_8739_21563" result="shape"/>
</filter>
</defs>
</svg>
