<svg width="20" height="20" viewBox="0 0 20 20" fill="none" xmlns="http://www.w3.org/2000/svg">
    <g id="48px_logo-linkedin 1" clip-path="url(#clip0_516_2756)">
    <path id="Vector" d="M18.5204 0H1.47564C0.661838 0 0.000488281 0.645617 0.000488281 1.44205V18.5568C0.000488281 19.3533 0.661838 20 1.47564 20H18.5204C19.3359 20 19.9999 19.3533 19.9999 18.5568V1.44205C19.9999 0.645617 19.3359 0 18.5204 0Z" fill="#007BB5"/>
    <path id="Vector_2" d="M2.96348 7.49789H5.93277V17.0422H2.96348V7.49789ZM4.44894 2.75342C5.39784 2.75342 6.16821 3.52409 6.16821 4.47353C6.16821 5.42323 5.39784 6.19389 4.44894 6.19389C3.49626 6.19389 2.72803 5.42324 2.72803 4.47353C2.72803 3.52409 3.49625 2.75342 4.44894 2.75342Z" fill="white"/>
    <path id="Vector_3" d="M7.79395 7.49782H10.6374V8.8026H10.6781C11.0736 8.05227 12.0414 7.26099 13.4846 7.26099C16.4881 7.26099 17.0431 9.23721 17.0431 11.8077V17.0421H14.0771V12.4007C14.0771 11.2939 14.0581 9.87004 12.5357 9.87004C10.9922 9.87004 10.7567 11.0764 10.7567 12.3215V17.0421H7.79395V7.49782Z" fill="white"/>
    </g>
    <defs>
    <clipPath id="clip0_516_2756">
    <rect width="20" height="20" fill="white"/>
    </clipPath>
    </defs>
    </svg>
    