<svg width="14" height="14" viewBox="0 0 14 14" fill="none" xmlns="http://www.w3.org/2000/svg">
    <path d="M3.5 1.75H4.375L4.375 5.87009C3.87181 5.9996 3.5 6.45638 3.5 7C3.5 7.54362 3.87181 8.0004 4.375 8.12991L4.375 12.25H3.5C2.5335 12.25 1.75 11.4665 1.75 10.5V3.5C1.75 2.5335 2.5335 1.75 3.5 1.75Z" fill="#DC3444"/>
    <path d="M13.2458 7.41248C13.4736 7.18467 13.4736 6.81533 13.2458 6.58752L10.9125 4.25419C10.6847 4.02638 10.3153 4.02638 10.0875 4.25419C9.85972 4.48199 9.85972 4.85134 10.0875 5.07915L11.425 6.41667L4.66667 6.41667C4.3445 6.41667 4.08333 6.67783 4.08333 7C4.08333 7.32217 4.3445 7.58333 4.66667 7.58333L11.425 7.58333L10.0875 8.92085C9.85972 9.14866 9.85972 9.51801 10.0875 9.74581C10.3153 9.97362 10.6847 9.97362 10.9125 9.74581L13.2458 7.41248Z" fill="#DC3444"/>
    </svg>
    