<svg width="127" height="21" viewBox="0 0 127 21" fill="none" xmlns="http://www.w3.org/2000/svg">
<path d="M0.368156 20V0.119999H8.01216C10.2148 0.119999 12.0535 0.567999 13.5282 1.464C15.0215 2.34133 16.1415 3.536 16.8882 5.048C17.6535 6.54133 18.0362 8.20267 18.0362 10.032C18.0362 12.048 17.6162 13.8027 16.7762 15.296C15.9548 16.7893 14.7882 17.9467 13.2762 18.768C11.7828 19.5893 10.0282 20 8.01216 20H0.368156ZM12.4922 10.032C12.4922 9.00533 12.3148 8.10933 11.9602 7.344C11.6055 6.56 11.0922 5.95333 10.4202 5.524C9.74816 5.09467 8.94549 4.88 8.01216 4.88H5.82816V15.24H8.01216C8.96416 15.24 9.76682 15.016 10.4202 14.568C11.0922 14.12 11.6055 13.504 11.9602 12.72C12.3148 11.9173 12.4922 11.0213 12.4922 10.032ZM29.0911 20.168C27.5045 20.168 26.1418 19.9067 25.0031 19.384C23.8645 18.8613 22.9311 18.1427 22.2031 17.228C21.4938 16.3133 20.9711 15.268 20.6351 14.092C20.2991 12.8973 20.1311 11.6467 20.1311 10.34V0.119999H25.5911V10.34C25.5911 10.9933 25.6565 11.6187 25.7871 12.216C25.9178 12.8133 26.1231 13.3453 26.4031 13.812C26.6831 14.2787 27.0378 14.652 27.4671 14.932C27.9151 15.1933 28.4565 15.324 29.0911 15.324C29.7445 15.324 30.2951 15.1933 30.7431 14.932C31.1911 14.652 31.5458 14.2787 31.8071 13.812C32.0871 13.3267 32.2925 12.7853 32.4231 12.188C32.5538 11.5907 32.6191 10.9747 32.6191 10.34V0.119999H38.0791V10.34C38.0791 11.7213 37.8925 13.0093 37.5191 14.204C37.1645 15.3987 36.6231 16.444 35.8951 17.34C35.1671 18.236 34.2338 18.936 33.0951 19.44C31.9751 19.9253 30.6405 20.168 29.0911 20.168ZM40.1277 9.892C40.1277 8.67867 40.3517 7.49333 40.7997 6.336C41.2664 5.16 41.9384 4.096 42.8157 3.144C43.6931 2.192 44.7571 1.436 46.0077 0.875999C47.2771 0.297332 48.7051 0.0079987 50.2917 0.0079987C52.1957 0.0079987 53.8571 0.409332 55.2757 1.212C56.6944 1.996 57.7491 3.04133 58.4397 4.348L54.2677 7.316C54.0251 6.66267 53.6704 6.15867 53.2037 5.804C52.7557 5.44933 52.2611 5.20667 51.7197 5.076C51.1971 4.92667 50.6837 4.852 50.1797 4.852C49.3957 4.852 48.7144 5.01067 48.1357 5.328C47.5757 5.62667 47.1091 6.028 46.7357 6.532C46.3811 7.036 46.1104 7.596 45.9237 8.212C45.7557 8.828 45.6717 9.444 45.6717 10.06C45.6717 10.7507 45.7744 11.4133 45.9797 12.048C46.1851 12.6827 46.4837 13.252 46.8757 13.756C47.2677 14.2413 47.7437 14.624 48.3037 14.904C48.8824 15.184 49.5264 15.324 50.2357 15.324C50.7397 15.324 51.2531 15.2493 51.7757 15.1C52.2984 14.932 52.7744 14.6707 53.2037 14.316C53.6331 13.9613 53.9597 13.4853 54.1837 12.888L58.6357 15.548C58.2437 16.5187 57.5904 17.3493 56.6757 18.04C55.7611 18.7307 54.7251 19.2627 53.5677 19.636C52.4104 19.9907 51.2624 20.168 50.1237 20.168C48.6491 20.168 47.2957 19.8787 46.0637 19.3C44.8504 18.7027 43.7957 17.9187 42.8997 16.948C42.0224 15.9587 41.3411 14.8573 40.8557 13.644C40.3704 12.412 40.1277 11.1613 40.1277 9.892ZM76.0631 4.88H70.3511V20H64.8911V4.88H59.1511V0.119999H76.0631V4.88ZM80.8117 0.119999H86.9157L93.2437 20H87.6997L86.4957 16.108H81.2037L80.0277 20H74.4557L80.8117 0.119999ZM85.6277 12.468L83.8637 5.468L82.0157 12.468H85.6277ZM94.8955 20V0.119999H103.464C104.434 0.119999 105.33 0.315999 106.152 0.708C106.973 1.1 107.682 1.632 108.28 2.304C108.877 2.95733 109.334 3.69467 109.651 4.516C109.988 5.33733 110.156 6.168 110.156 7.008C110.156 8.184 109.876 9.29467 109.316 10.34C108.774 11.3853 108.009 12.244 107.02 12.916C106.049 13.5693 104.91 13.896 103.604 13.896H100.356V20H94.8955ZM100.356 9.136H103.24C103.464 9.136 103.678 9.07067 103.884 8.94C104.089 8.80933 104.257 8.58533 104.388 8.268C104.537 7.95067 104.612 7.53067 104.612 7.008C104.612 6.448 104.528 6.01867 104.36 5.72C104.21 5.40267 104.014 5.188 103.772 5.076C103.548 4.94533 103.324 4.88 103.1 4.88H100.356V9.136ZM126.509 15.24V20H112.341V0.119999H126.257V4.88H117.801V7.68H125.025V12.104H117.801V15.24H126.509Z" fill="white"/>
</svg>
