<svg width="79" height="15" viewBox="0 0 79 15" fill="none" xmlns="http://www.w3.org/2000/svg">
    <path fill-rule="evenodd" clip-rule="evenodd" d="M70 1.41422L71.4143 0L78.4853 7.07108L71.4143 14.1422L70 12.7279L74.228 8.5H7.70924C7.11585 9.96591 5.67869 11 4 11C1.79086 11 0 9.20914 0 7C0 4.79086 1.79086 3 4 3C5.67869 3 7.11585 4.03408 7.70924 5.5H74.0858L70 1.41422ZM4 8.67452C3.07519 8.67452 2.32548 7.92481 2.32548 7C2.32548 6.07519 3.07519 5.32548 4 5.32548C4.92481 5.32548 5.67452 6.07519 5.67452 7C5.67452 7.92481 4.92481 8.67452 4 8.67452Z" fill="#78797A"/>
    </svg>
    