<svg width="36" height="36" viewBox="0 0 36 36" fill="none" xmlns="http://www.w3.org/2000/svg">
<circle cx="18" cy="18" r="18" fill="#0BA4DB"/>
<g clip-path="url(#clip0_6599_36862)">
<mask id="mask0_6599_36862" style="mask-type:luminance" maskUnits="userSpaceOnUse" x="9" y="9" width="18" height="18">
<path d="M9 9H27V27H9V9Z" fill="white"/>
</mask>
<g mask="url(#mask0_6599_36862)">
<path d="M25.1299 9H9.93506C9.42076 9 9 9.42856 9 9.95239V11.6667C9 12.1905 9.42076 12.619 9.93506 12.619H25.0831C25.5974 12.619 26.0182 12.1905 26.0182 11.6667V9.95239C26.0649 9.42856 25.6441 9 25.1299 9ZM25.1299 18.5714H9.93506C9.42076 18.5714 9 19 9 19.5238V21.2381C9 21.7619 9.42076 22.1905 9.93506 22.1905H25.0831C25.5974 22.1905 26.0182 21.7619 26.0182 21.2381V19.5238C26.0649 19 25.6441 18.5714 25.1299 18.5714ZM18.4909 23.381H9.93506C9.42076 23.381 9 23.8095 9 24.3333V26.0476C9 26.5714 9.42076 27 9.93506 27H18.4909C19.0052 27 19.426 26.5714 19.426 26.0476V24.3333C19.426 23.8095 19.0052 23.381 18.4909 23.381ZM26.0649 13.8095H9.93506C9.42076 13.8095 9 14.2381 9 14.7619V16.4762C9 17 9.42076 17.4286 9.93506 17.4286H26.0649C26.5792 17.4286 27 17 27 16.4762V14.7619C27 14.2381 26.5792 13.8095 26.0649 13.8095Z" fill="white"/>
</g>
</g>
<defs>
<clipPath id="clip0_6599_36862">
<rect width="18" height="18" fill="white" transform="translate(9 9)"/>
</clipPath>
</defs>
</svg>
