<svg width="54" height="54" viewBox="0 0 54 54" fill="none" xmlns="http://www.w3.org/2000/svg">
<path fill-rule="evenodd" clip-rule="evenodd" d="M42.5719 11.6146C39.9684 9.01111 35.7473 9.01111 33.1438 11.6146C30.5403 14.2181 30.5403 18.4392 33.1438 21.0427C35.7473 23.6462 39.9684 23.6462 42.5719 21.0427C45.1754 18.4392 45.1754 14.2181 42.5719 11.6146ZM36.9151 15.3858C37.4358 14.8651 38.28 14.8651 38.8007 15.3858C39.3214 15.9065 39.3214 16.7508 38.8007 17.2715C38.28 17.7922 37.4358 17.7922 36.9151 17.2715C36.3944 16.7508 36.3944 15.9065 36.9151 15.3858Z" fill="white"/>
<path fill-rule="evenodd" clip-rule="evenodd" d="M51.9994 2.18631C51.6261 1.79847 51.1455 1.53588 50.6272 1.42622C48.1149 0.483086 43.8712 -0.20771 37.4702 2.29567C32.9711 4.05523 27.4233 7.38398 20.6186 13.2753C19.8054 13.0322 18.9423 12.9339 18.0987 12.9356C16.5135 12.939 14.74 13.2914 12.8876 13.994C9.17157 15.4034 4.95097 18.2897 0.927611 23.104C0.0422625 24.1634 0.11193 25.7233 1.08819 26.6996C3.29828 28.9097 5.82228 29.2418 7.84838 29.0638C8.78069 28.9819 9.64797 28.7896 10.2769 28.6501L10.3232 28.6399C10.7056 28.5551 10.965 28.501 11.1457 28.468C11.2102 28.4774 11.2754 28.4845 11.3411 28.4892C17.3113 28.9156 20.4465 30.0307 22.3008 31.885C24.1551 33.7392 25.2701 36.8744 25.6966 42.8447C25.7013 42.9114 25.7086 42.9776 25.7182 43.043C25.6852 43.2237 25.6311 43.4825 25.5467 43.8634L25.5365 43.9097C25.397 44.5386 25.2047 45.4059 25.1228 46.3382C24.9447 48.3643 25.2769 50.8883 27.487 53.0984C28.4632 54.0747 30.0232 54.1443 31.0826 53.259C35.8969 49.2356 38.7831 45.015 40.1926 41.299C40.8952 39.4466 41.2476 37.6731 41.2509 36.0879C41.2527 35.2438 41.1543 34.3802 40.9108 33.5666C46.8019 26.7621 50.1305 21.2145 51.8901 16.7155C54.3934 10.3145 53.7026 6.07086 52.7595 3.55852C52.6498 3.04027 52.3873 2.55962 51.9994 2.18631ZM14.0012 19.4434C13.8095 19.6342 13.6168 19.8268 13.4234 20.0213L10.2308 23.2138C9.8766 23.2751 9.54757 23.3485 9.28066 23.4081L9.16929 23.4329C8.59758 23.5595 8.10896 23.6652 7.63404 23.7241C10.0219 21.4505 12.3074 20.0156 14.2527 19.192L14.0012 19.4434ZM17.2125 23.7746L17.1385 23.849C20.8097 24.5706 23.8066 25.8483 26.072 28.1137C28.3374 30.3791 29.6152 33.376 30.3367 37.0472C40.3314 27.1152 44.9379 19.8489 46.9231 14.7729C48.6079 10.4651 48.4096 7.73206 48.0046 6.18113C46.4537 5.77618 43.7206 5.57789 39.4128 7.26265C34.4419 9.20672 27.3703 13.6648 17.7517 23.2354L17.2125 23.7746ZM34.9946 39.9339L30.9727 43.9558C30.9115 44.31 30.8381 44.639 30.7785 44.9059L30.7537 45.0173C30.627 45.589 30.5214 46.0776 30.4625 46.5525C32.7361 44.1647 34.171 41.8792 34.9946 39.9339Z" fill="white"/>
<path fill-rule="evenodd" clip-rule="evenodd" d="M18.4681 31.9227C19.2028 32.1421 20.1254 32.5379 20.887 33.2995C21.6487 34.0611 22.0444 34.9838 22.2639 35.7184C22.4898 36.4747 22.588 37.2328 22.631 37.8567C22.6747 38.4911 22.666 39.0616 22.6475 39.47C22.6382 39.6766 22.626 39.8478 22.6156 39.9724C22.6104 40.0347 22.6057 40.0858 22.6019 40.1242L22.5969 40.1721L22.5951 40.1887L22.5944 40.1951L22.5941 40.1978C22.5941 40.1984 22.5938 40.2002 19.9442 39.8992L22.5941 40.1978C22.5004 41.0224 22.0279 41.7588 21.3162 42.1858C19.4206 43.3232 17.0095 44.1064 15.2247 44.5932C14.303 44.8446 13.488 45.0326 12.9016 45.1583C12.6076 45.2213 12.3692 45.269 12.2014 45.3015C12.1174 45.3177 12.0509 45.3302 12.0038 45.3389L11.9479 45.3491L11.9313 45.3521L11.9231 45.3536C11.9227 45.3536 11.9224 45.3537 11.4589 42.7276C8.84406 42.2046 8.84411 42.2044 8.84416 42.2041L8.84569 42.1965L8.84917 42.1793L8.86158 42.1186C8.87225 42.0668 8.88767 41.9927 8.90762 41.8988C8.94751 41.7112 9.00564 41.4439 9.08016 41.1175C9.22877 40.4667 9.44478 39.5714 9.71374 38.599C9.98117 37.6321 10.3098 36.5565 10.6873 35.5554C11.0488 34.5967 11.5192 33.5299 12.1174 32.6923C12.5565 32.0776 13.2357 31.678 13.9864 31.5927L14.2874 34.2423C13.9864 31.5927 13.9858 31.5928 13.9864 31.5927L13.9915 31.5921L13.9979 31.5914L14.0144 31.5896L14.0624 31.5847C14.1007 31.5809 14.1518 31.5761 14.2142 31.5709C14.3387 31.5605 14.5099 31.5484 14.7166 31.539C15.1249 31.5205 15.6954 31.5118 16.3299 31.5555C16.9537 31.5985 17.7118 31.6967 18.4681 31.9227ZM15.9027 36.8723C15.8306 37.0429 15.7554 37.2311 15.6777 37.437C15.4861 37.9452 15.3027 38.499 15.1317 39.0618C15.8864 38.8218 16.6347 38.5504 17.3122 38.2527L17.3103 38.2233C17.2835 37.8345 17.229 37.4971 17.1537 37.2451C17.133 37.1759 17.1142 37.1244 17.0991 37.0875C17.0622 37.0724 17.0106 37.0535 16.9415 37.0328C16.6894 36.9575 16.352 36.903 15.9633 36.8763L15.9027 36.8723Z" fill="white"/>
<path d="M11.4589 42.7276L11.9231 45.3536C11.0556 45.5066 10.1678 45.2216 9.55202 44.5917C8.93626 43.9618 8.67141 43.0679 8.84416 42.2041L11.4589 42.7276Z" fill="white"/>
</svg>
