<svg width="20" height="20" viewBox="0 0 20 20" fill="none" xmlns="http://www.w3.org/2000/svg">
    <path fill-rule="evenodd" clip-rule="evenodd" d="M9.16667 2.5C5.48477 2.5 2.5 5.48477 2.5 9.16667C2.5 12.8486 5.48477 15.8333 9.16667 15.8333C12.8486 15.8333 15.8333 12.8486 15.8333 9.16667C15.8333 5.48477 12.8486 2.5 9.16667 2.5ZM9.16797 4.16675C11.9294 4.16675 14.168 6.40532 14.168 9.16675C14.168 11.9282 11.9294 14.1667 9.16797 14.1667C6.40654 14.1667 4.16797 11.9282 4.16797 9.16675C4.16797 6.40532 6.40654 4.16675 9.16797 4.16675Z" fill="#979797"/>
    <g opacity="0.5">
    <path fill-rule="evenodd" clip-rule="evenodd" d="M12.7438 12.7473C13.0441 12.4467 13.5168 12.4234 13.8438 12.6775L13.9223 12.7467L17.2557 16.077C17.5812 16.4023 17.5815 16.93 17.2562 17.2556C16.9559 17.5561 16.4832 17.5794 16.1562 17.3254L16.0777 17.2561L12.7443 13.9258C12.4188 13.6005 12.4185 13.0729 12.7438 12.7473Z" fill="#979797"/>
    </g>
    </svg>
    