<svg width="16" height="16" viewBox="0 0 16 16" fill="none" xmlns="http://www.w3.org/2000/svg">
    <path fill-rule="evenodd" clip-rule="evenodd" d="M13.361 8.44059C13.1399 8.18892 13.1399 7.81226 13.361 7.56059L14.2143 6.60059C14.4072 6.38541 14.4395 6.07045 14.2943 5.82059L12.961 3.51392C12.8173 3.26439 12.5296 3.13534 12.2477 3.19392L10.9943 3.44725C10.6643 3.51545 10.3353 3.32662 10.2277 3.00725L9.821 1.78725C9.72929 1.51571 9.47428 1.33318 9.18767 1.33392H6.521C6.22224 1.31833 5.94967 1.50367 5.85434 1.78725L5.481 3.00725C5.37339 3.32662 5.04437 3.51545 4.71434 3.44725L3.42767 3.19392C3.16123 3.15627 2.89828 3.28249 2.761 3.51392L1.42767 5.82059C1.27883 6.06764 1.30573 6.38238 1.49434 6.60059L2.341 7.56059C2.5621 7.81226 2.5621 8.18892 2.341 8.44059L1.49434 9.40059C1.30573 9.61879 1.27883 9.93354 1.42767 10.1806L2.761 12.4873C2.90472 12.7368 3.1924 12.8658 3.47434 12.8073L4.72767 12.5539C5.0577 12.4857 5.38673 12.6746 5.49434 12.9939L5.901 14.2139C5.99633 14.4975 6.2689 14.6828 6.56767 14.6673H9.23434C9.52095 14.668 9.77596 14.4855 9.86767 14.2139L10.2743 12.9939C10.3819 12.6746 10.711 12.4857 11.041 12.5539L12.2943 12.8073C12.5763 12.8658 12.864 12.7368 13.0077 12.4873L14.341 10.1806C14.4862 9.93073 14.4539 9.61577 14.261 9.40059L13.361 8.44059ZM12.3686 9.3339L12.9019 9.9339L12.0486 11.4139L11.2619 11.2539C10.2681 11.0507 9.27951 11.6238 8.96193 12.5872L8.70859 13.3339H7.00193L6.76193 12.5739C6.44434 11.6105 5.45579 11.0374 4.46193 11.2406L3.67526 11.4006L2.80859 9.92724L3.34193 9.32724C4.02098 8.56803 4.02098 7.41977 3.34193 6.66057L2.80859 6.06057L3.66193 4.5939L4.44859 4.7539C5.44246 4.95706 6.43101 4.38399 6.74859 3.42057L7.00193 2.66724H8.70859L8.96193 3.42724C9.27951 4.39065 10.2681 4.96373 11.2619 4.76057L12.0486 4.60057L12.9019 6.08057L12.3686 6.68057C11.6975 7.4377 11.6975 8.57678 12.3686 9.3339ZM7.85434 5.33392C6.38158 5.33392 5.18767 6.52783 5.18767 8.00059C5.18767 9.47335 6.38158 10.6673 7.85434 10.6673C9.3271 10.6673 10.521 9.47335 10.521 8.00059C10.521 7.29334 10.2401 6.61507 9.73995 6.11497C9.23986 5.61487 8.56158 5.33392 7.85434 5.33392ZM7.85286 9.3339C7.11649 9.3339 6.51953 8.73695 6.51953 8.00057C6.51953 7.26419 7.11649 6.66724 7.85286 6.66724C8.58924 6.66724 9.1862 7.26419 9.1862 8.00057C9.1862 8.73695 8.58924 9.3339 7.85286 9.3339Z" fill="#DC3444"/>
    </svg>
    