<svg width="24" height="24" viewBox="0 0 24 24" fill="none" xmlns="http://www.w3.org/2000/svg">
<path fill-rule="evenodd" clip-rule="evenodd" d="M20.0435 12.6614C19.7118 12.2839 19.7118 11.7189 20.0435 11.3414L21.3235 9.90137C21.6128 9.5786 21.6613 9.10616 21.4435 8.73137L19.4435 5.27137C19.2279 4.89708 18.7964 4.7035 18.3735 4.79137L16.4935 5.17137C15.9984 5.27366 15.5049 4.99042 15.3435 4.51137L14.7335 2.68137C14.5959 2.27406 14.2134 2.00026 13.7835 2.00137H9.78346C9.33531 1.97798 8.92645 2.256 8.78346 2.68137L8.22346 4.51137C8.06204 4.99042 7.56851 5.27366 7.07346 5.17137L5.14346 4.79137C4.7438 4.73489 4.34937 4.92422 4.14346 5.27137L2.14346 8.73137C1.92019 9.10194 1.96055 9.57406 2.24346 9.90137L3.51346 11.3414C3.8451 11.7189 3.8451 12.2839 3.51346 12.6614L2.24346 14.1014C1.96055 14.4287 1.92019 14.9008 2.14346 15.2714L4.14346 18.7314C4.35903 19.1057 4.79056 19.2992 5.21346 19.2114L7.09346 18.8314C7.58851 18.7291 8.08204 19.0123 8.24346 19.4914L8.85346 21.3214C8.99645 21.7467 9.40531 22.0248 9.85346 22.0014H13.8535C14.2834 22.0025 14.6659 21.7287 14.8035 21.3214L15.4135 19.4914C15.5749 19.0123 16.0684 18.7291 16.5635 18.8314L18.4435 19.2114C18.8664 19.2992 19.2979 19.1057 19.5135 18.7314L21.5135 15.2714C21.7313 14.8966 21.6828 14.4241 21.3935 14.1014L20.0435 12.6614ZM18.5534 14.002L19.3534 14.902L18.0734 17.122L16.8934 16.882C15.4026 16.5772 13.9198 17.4368 13.4434 18.882L13.0634 20.002H10.5034L10.1434 18.862C9.66706 17.4168 8.18423 16.5572 6.69344 16.862L5.51344 17.102L4.21344 14.892L5.01344 13.992C6.03202 12.8532 6.03202 11.1308 5.01344 9.99195L4.21344 9.09195L5.49344 6.89195L6.67344 7.13195C8.16423 7.43669 9.64706 6.57708 10.1234 5.13195L10.5034 4.00195H13.0634L13.4434 5.14195C13.9198 6.58708 15.4026 7.44669 16.8934 7.14195L18.0734 6.90195L19.3534 9.12195L18.5534 10.022C17.5467 11.1576 17.5467 12.8663 18.5534 14.002ZM11.7832 8.00195C9.57406 8.00195 7.7832 9.79281 7.7832 12.002C7.7832 14.2111 9.57406 16.002 11.7832 16.002C13.9923 16.002 15.7832 14.2111 15.7832 12.002C15.7832 10.9411 15.3618 9.92367 14.6116 9.17353C13.8615 8.42338 12.8441 8.00195 11.7832 8.00195ZM11.7832 14.002C10.6786 14.002 9.7832 13.1065 9.7832 12.002C9.7832 10.8974 10.6786 10.002 11.7832 10.002C12.8878 10.002 13.7832 10.8974 13.7832 12.002C13.7832 13.1065 12.8878 14.002 11.7832 14.002Z" fill="#0846A6"/>
</svg>
