<svg width="14" height="14" viewBox="0 0 14 14" fill="none" xmlns="http://www.w3.org/2000/svg">
    <path fill-rule="evenodd" clip-rule="evenodd" d="M8.05447 1.60209C7.46691 1.03368 6.53443 1.03368 5.94687 1.60209C5.61087 1.92713 5.14368 2.07893 4.6808 2.01346C3.87135 1.89896 3.11696 2.44706 2.97572 3.25227C2.89495 3.71273 2.60621 4.11014 2.19325 4.32925C1.47109 4.71241 1.18294 5.59925 1.54196 6.3337C1.74727 6.75369 1.74727 7.24492 1.54196 7.66491C1.18294 8.39937 1.47109 9.28621 2.19325 9.66936C2.60621 9.88847 2.89495 10.2859 2.97572 10.7463C3.11696 11.5515 3.87135 12.0996 4.6808 11.9852C5.14368 11.9197 5.61087 12.0715 5.94687 12.3965C6.53443 12.9649 7.46691 12.9649 8.05447 12.3965C8.39046 12.0715 8.85765 11.9197 9.32053 11.9852C10.13 12.0996 10.8844 11.5515 11.0256 10.7463C11.1064 10.2859 11.3951 9.88847 11.8081 9.66936C12.5302 9.28621 12.8184 8.39937 12.4594 7.66491C12.2541 7.24492 12.2541 6.75369 12.4594 6.3337C12.8184 5.59925 12.5302 4.71241 11.8081 4.32925C11.3951 4.11014 11.1064 3.71273 11.0256 3.25227C10.8844 2.44706 10.13 1.89896 9.32053 2.01346C8.85765 2.07893 8.39046 1.92713 8.05447 1.60209ZM7.00067 9.91597C8.6115 9.91597 9.91733 8.61014 9.91733 6.99931C9.91733 5.38847 8.6115 4.08264 7.00067 4.08264C5.38984 4.08264 4.084 5.38847 4.084 6.99931C4.084 8.61014 5.38984 9.91597 7.00067 9.91597Z" fill="#8F92A1"/>
    </svg>
    