<svg width="36" height="36" viewBox="0 0 36 36" fill="none" xmlns="http://www.w3.org/2000/svg">
<circle cx="18" cy="18" r="18" fill="#F4D9D9"/>
<path d="M6.50244 12.1992C6.50244 10.9486 6.86816 9.88076 7.63564 9.11328L8.9704 10.448C7.48482 11.9283 8.7822 16.5305 13.012 20.7643C17.2418 24.9981 21.8467 26.2942 23.331 24.8113L24.6657 26.146C22.1617 28.65 16.4583 26.8735 11.6839 22.0977C8.37243 18.7849 6.50244 15.0262 6.50244 12.1992Z" fill="#009A46"/>
<path d="M14.9193 27.2962C13.6686 27.2962 12.6008 26.9305 11.832 26.163L13.1668 24.8282C14.6497 26.3112 19.2519 25.0138 23.4857 20.7813C27.7196 16.5488 29.0143 11.9466 27.5314 10.4637L28.8661 9.12891C31.3714 11.6329 29.5936 17.3363 24.8178 22.1107C21.505 25.4275 17.7463 27.2962 14.9193 27.2962Z" fill="#FF5805"/>
<path d="M25.26 20.1987C24.4498 17.8656 22.7947 15.3723 20.5991 13.1779C15.8247 8.40219 10.1213 6.6243 7.61727 9.12963C7.43975 9.30848 7.59325 9.75029 7.96164 10.1187C8.33003 10.4871 8.77183 10.6392 8.94935 10.4617C10.4336 8.9788 15.0358 10.2762 19.2683 14.51C21.2704 16.5121 22.7627 18.7478 23.4821 20.8167C24.1121 22.6306 24.0507 24.0935 23.3166 24.8276C23.1378 25.0052 23.2926 25.4483 23.6596 25.8153C24.0267 26.1824 24.4698 26.3372 24.6487 26.1584C25.9314 24.8757 26.1489 22.7561 25.26 20.1987Z" fill="#F5AFCB"/>
<path d="M28.8633 9.13233C27.578 7.84696 25.461 7.6294 22.901 8.51968C20.5692 9.32853 18.0745 10.985 15.8802 13.1793C11.1058 17.9537 9.32791 23.6571 11.8319 26.1624C12.0108 26.3399 12.4526 26.1864 12.821 25.8194C13.1893 25.4523 13.3428 25.0092 13.164 24.8303C11.6771 23.3474 12.9785 18.7452 17.2123 14.5114C19.2144 12.5092 21.4501 11.017 23.519 10.2976C25.3329 9.6689 26.7958 9.72896 27.5312 10.4631C27.7088 10.6406 28.1519 10.4871 28.519 10.1187C28.886 9.75032 29.0408 9.30985 28.8633 9.13233Z" fill="#FF9B00"/>
</svg>
