<svg width="100" height="20" viewBox="0 0 100 20" fill="none" xmlns="http://www.w3.org/2000/svg">
    <path fill-rule="evenodd" clip-rule="evenodd" d="M12.3766 16.4093C13.6982 17.1327 14.8605 16.2559 14.6078 14.7215L14.1539 11.9666L16.0764 10.0155C17.1457 8.93035 16.7039 7.50852 15.2242 7.28466L12.5673 6.88271L11.385 4.38854C10.7228 2.99143 9.2848 2.9764 8.62128 4.37615L7.43309 6.88271L4.77623 7.28466C3.29859 7.50821 2.85326 8.92882 3.92399 10.0155L5.84652 11.9666L5.39267 14.7215C5.14026 16.2537 6.30034 17.1337 7.62385 16.4093L10.0002 15.1085L12.3766 16.4093Z" fill="#232830"/>
    <mask id="mask0_505_8120" style="mask-type:luminance" maskUnits="userSpaceOnUse" x="3" y="3" width="14" height="14">
    <path fill-rule="evenodd" clip-rule="evenodd" d="M12.3766 16.4093C13.6982 17.1327 14.8605 16.2559 14.6078 14.7215L14.1539 11.9666L16.0764 10.0155C17.1457 8.93035 16.7039 7.50852 15.2242 7.28466L12.5673 6.88271L11.385 4.38854C10.7228 2.99143 9.2848 2.9764 8.62128 4.37615L7.43309 6.88271L4.77623 7.28466C3.29859 7.50821 2.85326 8.92882 3.92399 10.0155L5.84652 11.9666L5.39267 14.7215C5.14026 16.2537 6.30034 17.1337 7.62385 16.4093L10.0002 15.1085L12.3766 16.4093Z" fill="white"/>
    </mask>
    <g mask="url(#mask0_505_8120)">
    </g>
    <path fill-rule="evenodd" clip-rule="evenodd" d="M32.3766 16.4093C33.6982 17.1327 34.8605 16.2559 34.6078 14.7215L34.1539 11.9666L36.0764 10.0155C37.1457 8.93035 36.7039 7.50852 35.2242 7.28466L32.5673 6.88271L31.385 4.38854C30.7228 2.99143 29.2848 2.9764 28.6213 4.37615L27.4331 6.88271L24.7762 7.28466C23.2986 7.50821 22.8533 8.92882 23.924 10.0155L25.8465 11.9666L25.3927 14.7215C25.1403 16.2537 26.3003 17.1337 27.6238 16.4093L30.0002 15.1085L32.3766 16.4093Z" fill="#232830"/>
    <mask id="mask1_505_8120" style="mask-type:luminance" maskUnits="userSpaceOnUse" x="23" y="3" width="14" height="14">
    <path fill-rule="evenodd" clip-rule="evenodd" d="M32.3766 16.4093C33.6982 17.1327 34.8605 16.2559 34.6078 14.7215L34.1539 11.9666L36.0764 10.0155C37.1457 8.93035 36.7039 7.50852 35.2242 7.28466L32.5673 6.88271L31.385 4.38854C30.7228 2.99143 29.2848 2.9764 28.6213 4.37615L27.4331 6.88271L24.7762 7.28466C23.2986 7.50821 22.8533 8.92882 23.924 10.0155L25.8465 11.9666L25.3927 14.7215C25.1403 16.2537 26.3003 17.1337 27.6238 16.4093L30.0002 15.1085L32.3766 16.4093Z" fill="white"/>
    </mask>
    <g mask="url(#mask1_505_8120)">
    </g>
    <path fill-rule="evenodd" clip-rule="evenodd" d="M52.3766 16.4093C53.6982 17.1327 54.8605 16.2559 54.6078 14.7215L54.1539 11.9666L56.0764 10.0155C57.1457 8.93035 56.7039 7.50852 55.2242 7.28466L52.5673 6.88271L51.385 4.38854C50.7228 2.99143 49.2848 2.9764 48.6213 4.37615L47.4331 6.88271L44.7762 7.28466C43.2986 7.50821 42.8533 8.92882 43.924 10.0155L45.8465 11.9666L45.3927 14.7215C45.1403 16.2537 46.3003 17.1337 47.6238 16.4093L50.0002 15.1085L52.3766 16.4093Z" fill="#232830"/>
    <mask id="mask2_505_8120" style="mask-type:luminance" maskUnits="userSpaceOnUse" x="43" y="3" width="14" height="14">
    <path fill-rule="evenodd" clip-rule="evenodd" d="M52.3766 16.4093C53.6982 17.1327 54.8605 16.2559 54.6078 14.7215L54.1539 11.9666L56.0764 10.0155C57.1457 8.93035 56.7039 7.50852 55.2242 7.28466L52.5673 6.88271L51.385 4.38854C50.7228 2.99143 49.2848 2.9764 48.6213 4.37615L47.4331 6.88271L44.7762 7.28466C43.2986 7.50821 42.8533 8.92882 43.924 10.0155L45.8465 11.9666L45.3927 14.7215C45.1403 16.2537 46.3003 17.1337 47.6238 16.4093L50.0002 15.1085L52.3766 16.4093Z" fill="white"/>
    </mask>
    <g mask="url(#mask2_505_8120)">
    </g>
    <path fill-rule="evenodd" clip-rule="evenodd" d="M72.3766 16.4093C73.6982 17.1327 74.8605 16.2559 74.6078 14.7215L74.1539 11.9666L76.0764 10.0155C77.1457 8.93035 76.7039 7.50852 75.2242 7.28466L72.5673 6.88271L71.385 4.38854C70.7228 2.99143 69.2848 2.9764 68.6213 4.37615L67.4331 6.88271L64.7762 7.28466C63.2986 7.50821 62.8533 8.92882 63.924 10.0155L65.8465 11.9666L65.3927 14.7215C65.1403 16.2537 66.3003 17.1337 67.6238 16.4093L70.0002 15.1085L72.3766 16.4093Z" fill="#232830"/>
    <mask id="mask3_505_8120" style="mask-type:luminance" maskUnits="userSpaceOnUse" x="63" y="3" width="14" height="14">
    <path fill-rule="evenodd" clip-rule="evenodd" d="M72.3766 16.4093C73.6982 17.1327 74.8605 16.2559 74.6078 14.7215L74.1539 11.9666L76.0764 10.0155C77.1457 8.93035 76.7039 7.50852 75.2242 7.28466L72.5673 6.88271L71.385 4.38854C70.7228 2.99143 69.2848 2.9764 68.6213 4.37615L67.4331 6.88271L64.7762 7.28466C63.2986 7.50821 62.8533 8.92882 63.924 10.0155L65.8465 11.9666L65.3927 14.7215C65.1403 16.2537 66.3003 17.1337 67.6238 16.4093L70.0002 15.1085L72.3766 16.4093Z" fill="white"/>
    </mask>
    <g mask="url(#mask3_505_8120)">
    </g>
    <path fill-rule="evenodd" clip-rule="evenodd" d="M92.3766 16.4093C93.6982 17.1327 94.8605 16.2559 94.6078 14.7215L94.1539 11.9666L96.0764 10.0155C97.1457 8.93035 96.7039 7.50852 95.2242 7.28466L92.5673 6.88271L91.385 4.38854C90.7228 2.99143 89.2848 2.9764 88.6213 4.37615L87.4331 6.88271L84.7762 7.28466C83.2986 7.50821 82.8533 8.92882 83.924 10.0155L85.8465 11.9666L85.3927 14.7215C85.1403 16.2537 86.3003 17.1337 87.6238 16.4093L90.0002 15.1085L92.3766 16.4093Z" fill="#232830"/>
    <mask id="mask4_505_8120" style="mask-type:luminance" maskUnits="userSpaceOnUse" x="83" y="3" width="14" height="14">
    <path fill-rule="evenodd" clip-rule="evenodd" d="M92.3766 16.4093C93.6982 17.1327 94.8605 16.2559 94.6078 14.7215L94.1539 11.9666L96.0764 10.0155C97.1457 8.93035 96.7039 7.50852 95.2242 7.28466L92.5673 6.88271L91.385 4.38854C90.7228 2.99143 89.2848 2.9764 88.6213 4.37615L87.4331 6.88271L84.7762 7.28466C83.2986 7.50821 82.8533 8.92882 83.924 10.0155L85.8465 11.9666L85.3927 14.7215C85.1403 16.2537 86.3003 17.1337 87.6238 16.4093L90.0002 15.1085L92.3766 16.4093Z" fill="white"/>
    </mask>
    <g mask="url(#mask4_505_8120)">
    </g>
    </svg>
    