<svg width="36" height="36" viewBox="0 0 36 36" fill="none" xmlns="http://www.w3.org/2000/svg">
    <path fill-rule="evenodd" clip-rule="evenodd" d="M22.2776 29.5364C24.6565 30.8385 26.7487 29.2603 26.2937 26.4985L25.4768 21.5395L28.9373 18.0275C30.8619 16.0743 30.0668 13.515 27.4033 13.1121L22.6209 12.3886L20.4928 7.89908C19.3007 5.38428 16.7123 5.35723 15.518 7.87677L13.3793 12.3886L8.59692 13.1121C5.93718 13.5145 5.13557 16.0716 7.0629 18.0275L10.5234 21.5395L9.70652 26.4985C9.25218 29.2564 11.3403 30.8404 13.7226 29.5364L18.0001 27.1951L22.2776 29.5364Z" fill="#FF991F"/>
    <mask id="mask0_511_2792" style="mask-type:luminance" maskUnits="userSpaceOnUse" x="6" y="6" width="24" height="24">
    <path fill-rule="evenodd" clip-rule="evenodd" d="M22.2776 29.5364C24.6565 30.8385 26.7487 29.2603 26.2937 26.4985L25.4768 21.5395L28.9373 18.0275C30.8619 16.0743 30.0668 13.515 27.4033 13.1121L22.6209 12.3886L20.4928 7.89908C19.3007 5.38428 16.7123 5.35723 15.518 7.87677L13.3793 12.3886L8.59692 13.1121C5.93718 13.5145 5.13557 16.0716 7.0629 18.0275L10.5234 21.5395L9.70652 26.4985C9.25218 29.2564 11.3403 30.8404 13.7226 29.5364L18.0001 27.1951L22.2776 29.5364Z" fill="white"/>
    </mask>
    <g mask="url(#mask0_511_2792)">
    </g>
    </svg>
    