<svg width="65" height="64" viewBox="0 0 65 64" fill="none" xmlns="http://www.w3.org/2000/svg">
<path d="M56.5002 5.33341C56.5002 3.86066 55.3063 2.66675 53.8335 2.66675C52.3607 2.66675 51.1668 3.86066 51.1668 5.33341V9.56218L33.6647 27.0643C33.2857 26.0532 32.3103 25.3334 31.1668 25.3334C29.6941 25.3334 28.5002 26.5273 28.5002 28.0001V33.3334C28.5002 34.8062 29.6941 36.0001 31.1668 36.0001H36.5002C37.9729 36.0001 39.1668 34.8062 39.1668 33.3334C39.1668 32.1899 38.4471 31.2145 37.4359 30.8356L54.9381 13.3334H59.1668C60.6396 13.3334 61.8335 12.1395 61.8335 10.6667C61.8335 9.19399 60.6396 8.00008 59.1668 8.00008H56.5002V5.33341Z" fill="white"/>
<path d="M32.5002 5.33341C37.9353 5.33341 42.9906 6.95942 47.2062 9.75153L41.3807 15.5771C38.7398 14.146 35.7149 13.3334 32.5002 13.3334C22.1908 13.3334 13.8335 21.6908 13.8335 32.0001C13.8335 42.3094 22.1908 50.6667 32.5002 50.6667C42.8095 50.6667 51.1668 42.3094 51.1668 32.0001C51.1668 28.7854 50.3542 25.7605 48.9232 23.1196L54.7487 17.294C57.5408 21.5096 59.1668 26.565 59.1668 32.0001C59.1668 46.7277 47.2278 58.6667 32.5002 58.6667C17.7726 58.6667 5.8335 46.7277 5.8335 32.0001C5.8335 17.2725 17.7726 5.33341 32.5002 5.33341Z" fill="white"/>
<path d="M32.5002 18.6667C34.2198 18.6667 35.8634 18.9923 37.3727 19.5851L33.6689 23.2889C32.9227 22.8918 32.0711 22.6667 31.1668 22.6667C28.2213 22.6667 25.8335 25.0546 25.8335 28.0001V33.3334C25.8335 36.2789 28.2213 38.6667 31.1668 38.6667H36.5002C39.4457 38.6667 41.8335 36.2789 41.8335 33.3334C41.8335 32.4292 41.6085 31.5775 41.2114 30.8314L44.9151 27.1276C45.508 28.6369 45.8335 30.2805 45.8335 32.0001C45.8335 39.3639 39.864 45.3334 32.5002 45.3334C25.1364 45.3334 19.1668 39.3639 19.1668 32.0001C19.1668 24.6363 25.1364 18.6667 32.5002 18.6667Z" fill="white"/>
</svg>
