<svg width="64" height="64" viewBox="0 0 64 64" fill="none" xmlns="http://www.w3.org/2000/svg">
<path fill-rule="evenodd" clip-rule="evenodd" d="M48 10.6667H16C11.5817 10.6667 8 14.2485 8 18.6667V45.3334C8 49.7517 11.5817 53.3334 16 53.3334H48C52.4183 53.3334 56 49.7517 56 45.3334V18.6667C56 14.2485 52.4183 10.6667 48 10.6667ZM16.4053 22.5868C15.6248 23.8356 16.0044 25.4808 17.2533 26.2614L24.3019 30.6667L17.2533 35.0721C16.0044 35.8526 15.6248 37.4978 16.4053 38.7467C17.1859 39.9956 18.8311 40.3753 20.08 39.5947L27.1285 35.1894C30.4708 33.1005 30.4708 28.233 27.1285 26.1441L20.08 21.7388C18.8311 20.9582 17.1859 21.3379 16.4053 22.5868ZM34.6667 34.6667C33.1939 34.6667 32 35.8607 32 37.3334C32 38.8062 33.1939 40.0001 34.6667 40.0001H45.3333C46.8061 40.0001 48 38.8062 48 37.3334C48 35.8607 46.8061 34.6667 45.3333 34.6667H34.6667Z" fill="white"/>
</svg>
