<svg width="726" height="21" viewBox="0 0 726 21" fill="none" xmlns="http://www.w3.org/2000/svg">
<path d="M0 8.06667C0 3.61157 3.61157 0 8.06667 0H717.933C722.388 0 726 3.61157 726 8.06667V20.1667H0V8.06667Z" fill="#F2F2F5"/>
<path d="M15.1252 10.0833C15.1252 11.754 13.7709 13.1083 12.1002 13.1083C10.4295 13.1083 9.0752 11.754 9.0752 10.0833C9.0752 8.41269 10.4295 7.05835 12.1002 7.05835C13.7709 7.05835 15.1252 8.41269 15.1252 10.0833Z" fill="#F3605C"/>
<path d="M27.2253 10.0833C27.2253 11.754 25.871 13.1083 24.2003 13.1083C22.5296 13.1083 21.1753 11.754 21.1753 10.0833C21.1753 8.41269 22.5296 7.05835 24.2003 7.05835C25.871 7.05835 27.2253 8.41269 27.2253 10.0833Z" fill="#F8BE39"/>
<path d="M39.3249 10.0833C39.3249 11.754 37.9706 13.1083 36.2999 13.1083C34.6292 13.1083 33.2749 11.754 33.2749 10.0833C33.2749 8.41269 34.6292 7.05835 36.2999 7.05835C37.9706 7.05835 39.3249 8.41269 39.3249 10.0833Z" fill="#50C845"/>
</svg>
