<svg width="20" height="20" viewBox="0 0 20 20" fill="none" xmlns="http://www.w3.org/2000/svg">
    <path fill-rule="evenodd" clip-rule="evenodd" d="M0.833496 9.99998C0.833496 4.93737 4.93755 0.833313 10.0002 0.833313C15.0627 0.833313 19.1668 4.93737 19.1668 9.99998C19.1668 15.0626 15.0627 19.1666 10.0002 19.1666C4.93755 19.1666 0.833496 15.0626 0.833496 9.99998ZM4.09015 14.6181C3.09395 13.345 2.50016 11.7418 2.50016 9.99998C2.50016 5.85785 5.85803 2.49998 10.0002 2.49998C14.1423 2.49998 17.5002 5.85785 17.5002 9.99998C17.5002 11.7103 16.9277 13.2869 15.9639 14.5486C14.5912 12.7942 12.4542 11.6666 10.0539 11.6666C7.62205 11.6666 5.46054 12.8241 4.09015 14.6181ZM5.27322 15.8231C6.5632 16.8716 8.2083 17.5 10.0002 17.5C11.8236 17.5 13.4951 16.8492 14.795 15.7674C13.7362 14.2934 12.0072 13.3333 10.0539 13.3333C8.07605 13.3333 6.3281 14.3176 5.27322 15.8231ZM10.0002 10.8333C11.8411 10.8333 13.3335 9.34089 13.3335 7.49998C13.3335 5.65903 11.8411 4.16665 10.0002 4.16665C8.15921 4.16665 6.66683 5.65903 6.66683 7.49998C6.66683 9.34089 8.15921 10.8333 10.0002 10.8333ZM10.0002 9.16665C10.9207 9.16665 11.6668 8.42048 11.6668 7.49998C11.6668 6.5795 10.9207 5.83331 10.0002 5.83331C9.07966 5.83331 8.3335 6.5795 8.3335 7.49998C8.3335 8.42048 9.07966 9.16665 10.0002 9.16665Z" fill="white"/>
    </svg>
    