<svg width="20" height="20" viewBox="0 0 20 20" fill="none" xmlns="http://www.w3.org/2000/svg">
<path fill-rule="evenodd" clip-rule="evenodd" d="M1.66797 10.0013C1.66797 5.39893 5.39893 1.66797 10.0013 1.66797C14.6036 1.66797 18.3346 5.39893 18.3346 10.0013C18.3346 14.6036 14.6036 18.3346 10.0013 18.3346C5.39893 18.3346 1.66797 14.6036 1.66797 10.0013ZM10.0026 16.6693C6.3207 16.6693 3.33594 13.6845 3.33594 10.0026C3.33594 6.3207 6.3207 3.33594 10.0026 3.33594C13.6845 3.33594 16.6693 6.3207 16.6693 10.0026C16.6693 13.6845 13.6845 16.6693 10.0026 16.6693ZM10.0013 5.04297C9.54105 5.04297 9.16797 5.41606 9.16797 5.8763C9.16797 6.33654 9.54105 6.70964 10.0013 6.70964C10.4616 6.70964 10.8346 6.33654 10.8346 5.8763C10.8346 5.41606 10.4616 5.04297 10.0013 5.04297ZM9.16797 9.15367C9.16797 8.69342 9.54105 8.32031 10.0013 8.32031C10.4616 8.32031 10.8346 8.69342 10.8346 9.15367V14.1537C10.8346 14.6139 10.4616 14.987 10.0013 14.987C9.54105 14.987 9.16797 14.6139 9.16797 14.1537V9.15367Z" fill="#DC3444"/>
</svg>
