<svg width="6" height="6" viewBox="0 0 6 6" fill="none" xmlns="http://www.w3.org/2000/svg">
    <path fill-rule="evenodd" clip-rule="evenodd" d="M0.80645 0.104852C0.610304 -0.0476601 0.326689 -0.0337954 0.146447 0.146447C-0.0488155 0.341709 -0.0488155 0.658291 0.146447 0.853553L2.29289 3L0.146447 5.14645L0.104852 5.19355C-0.0476601 5.3897 -0.0337954 5.67331 0.146447 5.85355C0.341709 6.04882 0.658291 6.04882 0.853553 5.85355L3 3.70711L5.14645 5.85355L5.19355 5.89515C5.3897 6.04766 5.67331 6.0338 5.85355 5.85355C6.04882 5.65829 6.04882 5.34171 5.85355 5.14645L3.70711 3L5.85355 0.853553L5.89515 0.80645C6.04766 0.610304 6.0338 0.326689 5.85355 0.146447C5.65829 -0.0488155 5.34171 -0.0488155 5.14645 0.146447L3 2.29289L0.853553 0.146447L0.80645 0.104852Z" fill="#0846A6"/>
    </svg>
    